<?xml version="1.0" encoding="iso-8859-1"?>
<!-- Generator: Adobe Illustrator 16.0.0, SVG Export Plug-In . SVG Version: 6.00 Build 0)  -->
<!DOCTYPE svg PUBLIC "-//W3C//DTD SVG 1.1//EN" "http://www.w3.org/Graphics/SVG/1.1/DTD/svg11.dtd">
<svg version="1.1" id="Capa_1" xmlns="http://www.w3.org/2000/svg" xmlns:xlink="http://www.w3.org/1999/xlink" x="0px" y="0px"
	 width="484.78px" height="484.78px" viewBox="0 0 484.78 484.78" style="enable-background:new 0 0 484.78 484.78;"
	 xml:space="preserve">
<g>
	<path d="M181.74,212.282c0-33.496,27.155-60.653,60.651-60.653c33.495,0,60.653,27.158,60.653,60.653
		c0,33.496-27.158,60.648-60.653,60.648C208.896,272.93,181.74,245.778,181.74,212.282z M299.283,305.745
		c-4.621-1.685-9.423-2.427-14.281-2.395v-0.032l-85.464-0.032c-4.768,0-9.509,0.803-14.069,2.464
		c-31.983,11.635-43.476,60.677-25.706,109.546c16.437,45.131,52.063,73.885,82.628,68.914c30.532,5.035,66.16-23.723,82.565-68.887
		C342.789,366.455,331.299,317.413,299.283,305.745z M242.392,75.816c-75.252,0-136.466,61.213-136.466,136.465
		c0,35.031,13.649,66.692,35.418,90.892c6.277-8.382,13.95-14.926,22.596-19.961c-17.028-18.841-27.688-43.567-27.688-70.931
		c0-58.64,47.56-106.141,106.139-106.141c58.608,0,106.144,47.501,106.144,106.141c0,27.363-10.665,52.09-27.695,70.931
		c8.653,5.035,16.316,11.603,22.599,19.961c21.767-24.199,35.418-55.86,35.418-90.892C378.856,137.03,317.639,75.816,242.392,75.816
		z M242.392,0C125.353,0,30.111,95.246,30.111,212.282c0,72.526,36.602,136.643,92.308,174.937
		c-1.51-13.03-1.272-25.706,0.593-37.851c-38.293-33.342-62.576-82.327-62.576-137.086c0-100.515,81.501-181.955,181.956-181.955
		c100.454,0,181.955,81.44,181.955,181.955c0,54.759-24.311,103.744-62.581,137.086c1.839,12.145,2.105,24.82,0.598,37.878
		c55.674-38.321,92.306-102.438,92.306-174.964C454.669,95.246,359.428,0,242.392,0z"/>
</g>
<g>
</g>
<g>
</g>
<g>
</g>
<g>
</g>
<g>
</g>
<g>
</g>
<g>
</g>
<g>
</g>
<g>
</g>
<g>
</g>
<g>
</g>
<g>
</g>
<g>
</g>
<g>
</g>
<g>
</g>
</svg>
