<?xml version="1.0" encoding="iso-8859-1"?>
<!-- Generator: Adobe Illustrator 16.0.0, SVG Export Plug-In . SVG Version: 6.00 Build 0)  -->
<!DOCTYPE svg PUBLIC "-//W3C//DTD SVG 1.1//EN" "http://www.w3.org/Graphics/SVG/1.1/DTD/svg11.dtd">
<svg version="1.1" id="Capa_1" xmlns="http://www.w3.org/2000/svg" xmlns:xlink="http://www.w3.org/1999/xlink" x="0px" y="0px"
	 width="485.212px" height="485.212px" viewBox="0 0 485.212 485.212" style="enable-background:new 0 0 485.212 485.212;"
	 xml:space="preserve">
<g>
	<path d="M303.261,212.282c0,22.388-12.266,41.729-30.332,52.243v220.688H212.28V264.525
		c-18.063-10.515-30.324-29.855-30.324-52.243c0-33.496,27.155-60.653,60.651-60.653
		C276.103,151.628,303.261,178.786,303.261,212.282z M242.607,75.816c-75.252,0-136.466,61.213-136.466,136.465
		c0,32.161,11.845,61.186,30.562,84.46l21.44-21.445c-13.269-17.646-21.676-39.205-21.676-63.015
		c0-58.64,47.56-106.141,106.139-106.141c58.608,0,106.144,47.501,106.144,106.141c0,23.81-8.383,45.369-21.712,62.992
		l21.469,21.468c18.72-23.307,30.564-52.299,30.564-84.46C379.072,137.03,317.854,75.816,242.607,75.816z M242.607,0
		C125.568,0,30.327,95.246,30.327,212.282c0,53.069,19.751,101.519,52.094,138.748l21.527-21.534
		c-26.859-31.657-43.296-72.433-43.296-117.214c0-100.515,81.501-181.955,181.956-181.955c100.454,0,181.955,81.44,181.955,181.955
		c0,44.781-16.466,85.529-43.329,117.186l21.562,21.562c32.339-37.262,52.09-85.707,52.09-138.748
		C454.885,95.246,359.644,0,242.607,0z"/>
</g>
<g>
</g>
<g>
</g>
<g>
</g>
<g>
</g>
<g>
</g>
<g>
</g>
<g>
</g>
<g>
</g>
<g>
</g>
<g>
</g>
<g>
</g>
<g>
</g>
<g>
</g>
<g>
</g>
<g>
</g>
</svg>
