<?xml version="1.0" encoding="iso-8859-1"?>
<!-- Generator: Adobe Illustrator 16.0.0, SVG Export Plug-In . SVG Version: 6.00 Build 0)  -->
<!DOCTYPE svg PUBLIC "-//W3C//DTD SVG 1.1//EN" "http://www.w3.org/Graphics/SVG/1.1/DTD/svg11.dtd">
<svg version="1.1" id="Capa_1" xmlns="http://www.w3.org/2000/svg" xmlns:xlink="http://www.w3.org/1999/xlink" x="0px" y="0px"
	 width="480px" height="480px" viewBox="0 0 480 480" style="enable-background:new 0 0 480 480;" xml:space="preserve">
<g>
	<path d="M144,224h-32v-32h32V224z M208,192h-32v32h32V192z M176,160h-32v32h32V160z M240,160h-32v32h32V160z M208,128h-32v32h32
		V128z M272,128h-32v32h32V128z M240,96h-32v32h32V96z M304,96h-32v32h32V96z M272,64h-32v32h32V64z M336,64h-32v32h32V64z M304,32
		h-32v32h32V32z M368,32h-32v32h32V32z M336,0h-32v32h32V0z M400,0h-32v32h32V0z M368,480h32v-32h-32V480z M304,480h32v-32h-32V480z
		 M336,448h32v-32h-32V448z M272,448h32v-32h-32V448z M304,416h32v-32h-32V416z M240,416h32v-32h-32V416z M272,384h32v-32h-32V384z
		 M208,384h32v-32h-32V384z M240,352h32v-32h-32V352z M176,352h32v-32h-32V352z M208,320h32v-32h-32V320z M144,320h32v-32h-32V320z
		 M176,288h32v-32h-32V288z M112,288h32v-32h-32V288z M112,224H80v32h32V224z M176,224h-32v32h32V224z"/>
</g>
<g>
</g>
<g>
</g>
<g>
</g>
<g>
</g>
<g>
</g>
<g>
</g>
<g>
</g>
<g>
</g>
<g>
</g>
<g>
</g>
<g>
</g>
<g>
</g>
<g>
</g>
<g>
</g>
<g>
</g>
</svg>
