<?xml version="1.0" encoding="iso-8859-1"?>
<!-- Generator: Adobe Illustrator 16.0.0, SVG Export Plug-In . SVG Version: 6.00 Build 0)  -->
<!DOCTYPE svg PUBLIC "-//W3C//DTD SVG 1.1//EN" "http://www.w3.org/Graphics/SVG/1.1/DTD/svg11.dtd">
<svg version="1.1" id="Capa_1" xmlns="http://www.w3.org/2000/svg" xmlns:xlink="http://www.w3.org/1999/xlink" x="0px" y="0px"
	 width="384.004px" height="384.004px" viewBox="0 0 384.004 384.004" style="enable-background:new 0 0 384.004 384.004;"
	 xml:space="preserve">
<g>
	<path d="M47.995,31.996c8.839,0,16.009,7.192,15.998,15.998l0.011,249.376L323.866,37.509c4.109-4.11,8.839-4.685,11.312-4.685
		c2.477,0,7.228,0.597,11.314,4.685c4.108,4.066,4.706,8.816,4.685,11.313c0.021,2.409-0.619,7.204-4.685,11.313L86.632,319.999
		l249.377,0.01c8.807-0.01,15.987,7.173,15.998,15.998c-0.011,8.807-7.191,15.988-15.998,16H31.997V47.994
		C32.008,39.189,39.19,32.007,47.995,31.996 M47.995,0C21.478,0,0.011,21.511,0,47.995v336.009h336.009
		c26.483-0.012,47.983-21.512,47.995-47.996c-0.012-26.504-21.512-48.006-47.995-47.994l-172.126-0.013L369.121,82.764
		c18.761-18.761,18.761-49.166,0-67.882c-9.369-9.369-21.655-14.054-33.941-14.054c-12.285,0-24.57,4.685-33.939,14.054
		L96.001,220.12L95.99,47.994C96.001,21.511,74.5,0.01,47.995,0L47.995,0z"/>
</g>
<g>
</g>
<g>
</g>
<g>
</g>
<g>
</g>
<g>
</g>
<g>
</g>
<g>
</g>
<g>
</g>
<g>
</g>
<g>
</g>
<g>
</g>
<g>
</g>
<g>
</g>
<g>
</g>
<g>
</g>
</svg>
