<?xml version="1.0" encoding="iso-8859-1"?>
<!-- Generator: Adobe Illustrator 16.0.0, SVG Export Plug-In . SVG Version: 6.00 Build 0)  -->
<!DOCTYPE svg PUBLIC "-//W3C//DTD SVG 1.1//EN" "http://www.w3.org/Graphics/SVG/1.1/DTD/svg11.dtd">
<svg version="1.1" id="Capa_1" xmlns="http://www.w3.org/2000/svg" xmlns:xlink="http://www.w3.org/1999/xlink" x="0px" y="0px"
	 width="485.213px" height="485.212px" viewBox="0 0 485.213 485.212" style="enable-background:new 0 0 485.213 485.212;"
	 xml:space="preserve">
<g>
	<polygon points="219.862,197.119 219.862,106.141 83.397,242.606 219.862,379.074 219.862,288.094 401.815,288.094 
		401.815,197.119 	"/>
	<path d="M242.607,30.327c117.041,0,212.282,95.241,212.282,212.279c0,117.039-95.241,212.28-212.282,212.28
		c-117.039,0-212.28-95.241-212.28-212.28C30.328,125.568,125.568,30.327,242.607,30.327 M242.607,0
		C108.629,0,0.001,108.628,0.001,242.606c0,133.976,108.628,242.606,242.606,242.606c133.978,0,242.604-108.631,242.604-242.606
		C485.212,108.628,376.585,0,242.607,0L242.607,0z"/>
</g>
<g>
</g>
<g>
</g>
<g>
</g>
<g>
</g>
<g>
</g>
<g>
</g>
<g>
</g>
<g>
</g>
<g>
</g>
<g>
</g>
<g>
</g>
<g>
</g>
<g>
</g>
<g>
</g>
<g>
</g>
</svg>
