<?xml version="1.0" encoding="iso-8859-1"?>
<!-- Generator: Adobe Illustrator 16.0.0, SVG Export Plug-In . SVG Version: 6.00 Build 0)  -->
<!DOCTYPE svg PUBLIC "-//W3C//DTD SVG 1.1//EN" "http://www.w3.org/Graphics/SVG/1.1/DTD/svg11.dtd">
<svg version="1.1" id="Capa_1" xmlns="http://www.w3.org/2000/svg" xmlns:xlink="http://www.w3.org/1999/xlink" x="0px" y="0px"
	 width="394.231px" height="394.23px" viewBox="0 0 394.231 394.23" style="enable-background:new 0 0 394.231 394.23;"
	 xml:space="preserve">
<g>
	<path d="M0,197.115c0-8.352,6.812-15.161,15.161-15.161l0,0c8.352,0,15.166,6.812,15.166,15.161l0,0
		c0,8.356-6.813,15.166-15.166,15.166l0,0C6.812,212.281,0,205.472,0,197.115L0,197.115z M60.649,166.791
		c0,8.352,6.814,15.164,15.166,15.164l0,0c8.352,0,15.161-6.814,15.161-15.164l0,0c0-8.352-6.812-15.163-15.161-15.163l0,0
		C67.463,151.628,60.649,158.439,60.649,166.791L60.649,166.791z M121.305,288.094c0,8.354,6.809,15.163,15.161,15.163l0,0
		c8.352,0,15.161-6.81,15.161-15.163l0,0c0-8.35-6.809-15.169-15.161-15.169l0,0C128.114,272.925,121.305,279.744,121.305,288.094
		L121.305,288.094z M181.953,288.094c0,8.354,6.814,15.163,15.164,15.163l0,0c8.35,0,15.163-6.81,15.163-15.163l0,0
		c0-8.35-6.813-15.169-15.163-15.169l0,0C188.767,272.925,181.953,279.744,181.953,288.094L181.953,288.094z M181.953,106.138
		c0,8.352,6.814,15.166,15.164,15.166l0,0c8.35,0,15.163-6.814,15.163-15.166l0,0c0-8.352-6.813-15.161-15.163-15.161l0,0
		C188.767,90.977,181.953,97.789,181.953,106.138L181.953,106.138z M181.953,348.746c0,8.35,6.814,15.159,15.164,15.159l0,0
		c8.35,0,15.163-6.81,15.163-15.159l0,0c0-8.354-6.813-15.163-15.163-15.163l0,0C188.767,333.583,181.953,340.393,181.953,348.746
		L181.953,348.746z M121.305,106.138c0,8.352,6.809,15.166,15.161,15.166l0,0c8.352,0,15.161-6.814,15.161-15.166l0,0
		c0-8.352-6.809-15.161-15.161-15.161l0,0C128.114,90.977,121.305,97.789,121.305,106.138L121.305,106.138z M181.953,45.487
		c0,8.352,6.814,15.164,15.164,15.164l0,0c8.35,0,15.163-6.812,15.163-15.164l0,0c0-8.352-6.813-15.161-15.163-15.161l0,0
		C188.767,30.326,181.953,37.135,181.953,45.487L181.953,45.487z M121.305,166.791c0,8.352,6.809,15.164,15.161,15.164l0,0
		c8.352,0,15.161-6.814,15.161-15.164l0,0c0-8.352-6.809-15.163-15.161-15.163l0,0C128.114,151.628,121.305,158.439,121.305,166.791
		L121.305,166.791z M181.953,166.791c0,8.352,6.814,15.164,15.164,15.164l0,0c8.35,0,15.163-6.814,15.163-15.164l0,0
		c0-8.352-6.813-15.163-15.163-15.163l0,0C188.767,151.628,181.953,158.439,181.953,166.791L181.953,166.791z M242.607,166.791
		c0,8.352,6.809,15.164,15.158,15.164l0,0c8.354,0,15.168-6.814,15.168-15.164l0,0c0-8.352-6.813-15.163-15.168-15.163l0,0
		C249.416,151.628,242.607,158.439,242.607,166.791L242.607,166.791z M303.255,166.791c0,8.352,6.813,15.164,15.163,15.164l0,0
		c8.35,0,15.168-6.814,15.168-15.164l0,0c0-8.352-6.818-15.163-15.168-15.163l0,0C310.069,151.628,303.255,158.439,303.255,166.791
		L303.255,166.791z M60.649,227.439c0,8.354,6.814,15.164,15.166,15.164l0,0c8.352,0,15.161-6.81,15.161-15.164l0,0
		c0-8.349-6.812-15.158-15.161-15.158l0,0C67.463,212.281,60.649,219.091,60.649,227.439L60.649,227.439z M121.305,227.439
		c0,8.354,6.809,15.164,15.161,15.164l0,0c8.352,0,15.161-6.81,15.161-15.164l0,0c0-8.349-6.809-15.158-15.161-15.158l0,0
		C128.114,212.281,121.305,219.091,121.305,227.439L121.305,227.439z M181.953,227.439c0,8.354,6.814,15.164,15.164,15.164l0,0
		c8.35,0,15.163-6.81,15.163-15.164l0,0c0-8.349-6.813-15.158-15.163-15.158l0,0C188.767,212.281,181.953,219.091,181.953,227.439
		L181.953,227.439z M242.607,227.439c0,8.354,6.809,15.164,15.158,15.164l0,0c8.354,0,15.168-6.81,15.168-15.164l0,0
		c0-8.349-6.813-15.158-15.168-15.158l0,0C249.416,212.281,242.607,219.091,242.607,227.439L242.607,227.439z M303.255,227.439
		c0,8.354,6.813,15.164,15.163,15.164l0,0c8.35,0,15.168-6.81,15.168-15.164l0,0c0-8.349-6.818-15.158-15.168-15.158l0,0
		C310.069,212.281,303.255,219.091,303.255,227.439L303.255,227.439z M363.909,166.791c0,8.352,6.81,15.164,15.163,15.164l0,0
		c8.35,0,15.159-6.814,15.159-15.164l0,0c0-8.352-6.81-15.163-15.159-15.163l0,0C370.718,151.628,363.909,158.439,363.909,166.791
		L363.909,166.791z M363.909,227.439c0,8.354,6.81,15.164,15.163,15.164l0,0c8.35,0,15.159-6.81,15.159-15.164l0,0
		c0-8.349-6.81-15.158-15.159-15.158l0,0C370.718,212.281,363.909,219.091,363.909,227.439L363.909,227.439z"/>
</g>
<g>
</g>
<g>
</g>
<g>
</g>
<g>
</g>
<g>
</g>
<g>
</g>
<g>
</g>
<g>
</g>
<g>
</g>
<g>
</g>
<g>
</g>
<g>
</g>
<g>
</g>
<g>
</g>
<g>
</g>
</svg>
