<?xml version="1.0" encoding="iso-8859-1"?>
<!-- Generator: Adobe Illustrator 16.0.0, SVG Export Plug-In . SVG Version: 6.00 Build 0)  -->
<!DOCTYPE svg PUBLIC "-//W3C//DTD SVG 1.1//EN" "http://www.w3.org/Graphics/SVG/1.1/DTD/svg11.dtd">
<svg version="1.1" id="Capa_1" xmlns="http://www.w3.org/2000/svg" xmlns:xlink="http://www.w3.org/1999/xlink" x="0px" y="0px"
	 width="485.213px" height="485.212px" viewBox="0 0 485.213 485.212" style="enable-background:new 0 0 485.213 485.212;"
	 xml:space="preserve">
<g>
	<g>
		<path d="M424.562,151.628h-93.285C322.274,62.665,287.178,0,242.607,0c-44.599,0-79.665,62.665-88.67,151.628H60.652
			L0.001,485.212h485.211L424.562,151.628z M242.607,30.327c23.807,0,49.723,49.723,57.839,121.302H184.768
			C192.884,80.049,218.798,30.327,242.607,30.327z M85.945,181.955h313.294l49.639,272.931H36.339L85.945,181.955z"/>
		<path d="M166.795,204.7c-12.559,0-22.745,10.186-22.745,22.745c0,12.557,10.186,22.743,22.745,22.743
			c12.554,0,22.743-10.186,22.743-22.743C189.538,214.886,179.35,204.7,166.795,204.7z"/>
		<path d="M318.424,204.7c-12.559,0-22.747,10.186-22.747,22.745c0,12.557,10.188,22.743,22.747,22.743
			c12.555,0,22.738-10.186,22.738-22.743C341.162,214.886,330.979,204.7,318.424,204.7z"/>
	</g>
</g>
<g>
</g>
<g>
</g>
<g>
</g>
<g>
</g>
<g>
</g>
<g>
</g>
<g>
</g>
<g>
</g>
<g>
</g>
<g>
</g>
<g>
</g>
<g>
</g>
<g>
</g>
<g>
</g>
<g>
</g>
</svg>
