<?xml version="1.0" encoding="iso-8859-1"?>
<!-- Generator: Adobe Illustrator 16.0.0, SVG Export Plug-In . SVG Version: 6.00 Build 0)  -->
<!DOCTYPE svg PUBLIC "-//W3C//DTD SVG 1.1//EN" "http://www.w3.org/Graphics/SVG/1.1/DTD/svg11.dtd">
<svg version="1.1" id="Capa_1" xmlns="http://www.w3.org/2000/svg" xmlns:xlink="http://www.w3.org/1999/xlink" x="0px" y="0px"
	 width="485.211px" height="485.211px" viewBox="0 0 485.211 485.211" style="enable-background:new 0 0 485.211 485.211;"
	 xml:space="preserve">
<g>
	<path d="M424.562,204.565c0-24.936-20.11-45.131-44.953-45.427L254.11,12.751c-5.745-6.723-17.263-6.723-23.008,0L105.637,159.139
		c-24.89,0.266-44.986,20.495-44.986,45.427H0l60.651,272.938h363.911l60.649-272.938H424.562z M135.889,170.391L242.606,45.892
		L349.31,170.391c-9.567,8.352-15.724,20.496-15.724,34.175H151.628C151.628,190.886,145.454,178.743,135.889,170.391z
		 M90.978,447.172h-5.995l-6.737-30.322h12.732V447.172z M90.978,386.523H71.504l-6.737-30.332h26.21V386.523z M90.978,325.87
		H58.017l-6.737-30.322h39.698V325.87z M90.978,265.217H44.542l-6.737-30.325h53.172V265.217z M181.955,447.172h-60.651V416.85
		h60.651V447.172z M181.955,386.523h-60.651v-30.332h60.651V386.523z M181.955,325.87h-60.651v-30.322h60.651V325.87z
		 M181.955,265.217h-60.651v-30.325h60.651V265.217z M272.933,447.172h-60.65V416.85h60.65V447.172z M272.933,386.523h-60.65
		v-30.332h60.65V386.523z M272.933,325.87h-60.65v-30.322h60.65V325.87z M272.933,265.217h-60.65v-30.325h60.65V265.217z
		 M363.908,447.172h-60.653V416.85h60.653V447.172z M363.908,386.523h-60.653v-30.332h60.653V386.523z M363.908,325.87h-60.653
		v-30.322h60.653V325.87z M363.908,265.217h-60.653v-30.325h60.653V265.217z M400.246,447.172h-6.011V416.85h12.736L400.246,447.172
		z M413.72,386.523h-19.484v-30.332h26.21L413.72,386.523z M427.198,325.87h-32.963v-30.322h39.684L427.198,325.87z
		 M394.235,265.217v-30.325h53.157l-6.72,30.325H394.235z"/>
</g>
<g>
</g>
<g>
</g>
<g>
</g>
<g>
</g>
<g>
</g>
<g>
</g>
<g>
</g>
<g>
</g>
<g>
</g>
<g>
</g>
<g>
</g>
<g>
</g>
<g>
</g>
<g>
</g>
<g>
</g>
</svg>
