<?xml version="1.0" encoding="iso-8859-1"?>
<!-- Generator: Adobe Illustrator 16.0.0, SVG Export Plug-In . SVG Version: 6.00 Build 0)  -->
<!DOCTYPE svg PUBLIC "-//W3C//DTD SVG 1.1//EN" "http://www.w3.org/Graphics/SVG/1.1/DTD/svg11.dtd">
<svg version="1.1" id="Capa_1" xmlns="http://www.w3.org/2000/svg" xmlns:xlink="http://www.w3.org/1999/xlink" x="0px" y="0px"
	 width="485.23px" height="485.229px" viewBox="0 0 485.23 485.229" style="enable-background:new 0 0 485.23 485.229;"
	 xml:space="preserve">
<g>
	<path d="M315.53,166.812h-71.194l93.76-152.34c8.765-14.272,27.362-18.776,41.723-9.951c14.249,8.765,18.688,27.452,9.928,41.698
		L315.53,166.812z M485.22,181.973v90.979h-20.228l-61.153,183.52c-5.269,15.821-23.246,28.758-39.922,28.758H121.313
		c-16.675,0-34.634-12.937-39.924-28.758l-61.153-183.52H0.009v-90.979H485.22z M151.638,333.602
		c0-16.76-13.579-30.322-30.324-30.322c-16.748,0-30.327,13.562-30.327,30.322v60.653c0,16.759,13.579,30.321,30.327,30.321
		c16.746,0,30.324-13.562,30.324-30.321V333.602z M272.942,333.602c0-16.76-13.581-30.322-30.326-30.322
		c-16.746,0-30.324,13.562-30.324,30.322v60.653c0,16.759,13.579,30.321,30.324,30.321c16.745,0,30.326-13.562,30.326-30.321
		V333.602z M272.942,227.462c0-16.762-13.562-30.324-30.326-30.324c-16.762,0-30.324,13.562-30.324,30.324
		c0,16.759,13.562,30.327,30.324,30.327C259.379,257.789,272.942,244.227,272.942,227.462z M394.245,333.602
		c0-16.76-13.562-30.322-30.327-30.322c-16.76,0-30.322,13.562-30.322,30.322v60.653c0,16.759,13.562,30.321,30.322,30.321
		c16.765,0,30.327-13.562,30.327-30.321V333.602z"/>
</g>
<g>
</g>
<g>
</g>
<g>
</g>
<g>
</g>
<g>
</g>
<g>
</g>
<g>
</g>
<g>
</g>
<g>
</g>
<g>
</g>
<g>
</g>
<g>
</g>
<g>
</g>
<g>
</g>
<g>
</g>
</svg>
