<?xml version="1.0" encoding="iso-8859-1"?>
<!-- Generator: Adobe Illustrator 16.0.0, SVG Export Plug-In . SVG Version: 6.00 Build 0)  -->
<!DOCTYPE svg PUBLIC "-//W3C//DTD SVG 1.1//EN" "http://www.w3.org/Graphics/SVG/1.1/DTD/svg11.dtd">
<svg version="1.1" id="Capa_1" xmlns="http://www.w3.org/2000/svg" xmlns:xlink="http://www.w3.org/1999/xlink" x="0px" y="0px"
	 width="485.215px" height="485.215px" viewBox="0 0 485.215 485.215" style="enable-background:new 0 0 485.215 485.215;"
	 xml:space="preserve">
<g>
	<path d="M242.606,90.98c67.019,0,121.302,54.315,121.302,121.304c0,5.893-0.92,11.549-1.75,17.205
		c5.479-1.244,11.079-2.042,16.913-2.042c41.878,0,75.812,33.934,75.812,75.812c0,41.873-33.935,75.816-75.812,75.816
		c-27.601,0-51.533-14.925-64.798-36.991c-9.982,30.21-38.111,52.154-71.667,52.154c-33.524,0-61.659-21.944-71.67-52.154
		c-13.264,22.066-37.164,36.991-64.795,36.991c-41.875,0-75.814-33.943-75.814-75.816c0-41.878,33.939-75.812,75.814-75.812
		c5.834,0,11.43,0.798,16.881,2.042c-0.803-5.656-1.72-11.312-1.72-17.205C121.302,145.295,175.617,90.98,242.606,90.98
		 M242.606,60.653c-78.834,0-143.812,60.476-150.98,137.474C39.95,205.207,0,249.658,0,303.26
		c0,58.521,47.62,106.139,106.141,106.139c21.676,0,42.232-6.511,59.436-18.267c19.578,20.875,47.177,33.43,77.03,33.43
		c29.878,0,57.479-12.555,77.03-33.43c17.235,11.756,37.756,18.267,59.435,18.267c58.521,0,106.144-47.618,106.144-106.139
		c0-53.602-39.955-98.053-91.629-105.133C386.413,121.129,321.438,60.653,242.606,60.653L242.606,60.653z"/>
</g>
<g>
</g>
<g>
</g>
<g>
</g>
<g>
</g>
<g>
</g>
<g>
</g>
<g>
</g>
<g>
</g>
<g>
</g>
<g>
</g>
<g>
</g>
<g>
</g>
<g>
</g>
<g>
</g>
<g>
</g>
</svg>
