<?xml version="1.0" encoding="iso-8859-1"?>
<!-- Generator: Adobe Illustrator 16.0.0, SVG Export Plug-In . SVG Version: 6.00 Build 0)  -->
<!DOCTYPE svg PUBLIC "-//W3C//DTD SVG 1.1//EN" "http://www.w3.org/Graphics/SVG/1.1/DTD/svg11.dtd">
<svg version="1.1" id="Capa_1" xmlns="http://www.w3.org/2000/svg" xmlns:xlink="http://www.w3.org/1999/xlink" x="0px" y="0px"
	 width="512px" height="512px" viewBox="0 0 512 512" style="enable-background:new 0 0 512 512;" xml:space="preserve">
<g>
	<path d="M256,64c-83.188,0-151.75,63.813-159.313,145.063C42.156,216.531,0,263.438,0,320c0,61.75,50.25,112,112,112
		c22.875,0,44.563-6.875,62.719-19.281C195.375,434.75,224.5,448,256,448c31.531,0,60.656-13.25,81.281-35.281
		C355.469,425.125,377.125,432,400,432c61.75,0,112-50.25,112-112c0-56.562-42.156-103.469-96.688-110.938
		C407.75,127.813,339.188,64,256,64L256,64z"/>
</g>
<g>
</g>
<g>
</g>
<g>
</g>
<g>
</g>
<g>
</g>
<g>
</g>
<g>
</g>
<g>
</g>
<g>
</g>
<g>
</g>
<g>
</g>
<g>
</g>
<g>
</g>
<g>
</g>
<g>
</g>
</svg>
