<?xml version="1.0" encoding="iso-8859-1"?>
<!-- Generator: Adobe Illustrator 16.0.0, SVG Export Plug-In . SVG Version: 6.00 Build 0)  -->
<!DOCTYPE svg PUBLIC "-//W3C//DTD SVG 1.1//EN" "http://www.w3.org/Graphics/SVG/1.1/DTD/svg11.dtd">
<svg version="1.1" id="Capa_1" xmlns="http://www.w3.org/2000/svg" xmlns:xlink="http://www.w3.org/1999/xlink" x="0px" y="0px"
	 width="512px" height="512px" viewBox="0 0 512 512" style="enable-background:new 0 0 512 512;" xml:space="preserve">
<g>
	<path d="M288,80c70.688,0,128,57.313,128,128c0,12.625-2.375,24.563-5.781,36.063c40.156,11.5,69.781,48.063,69.781,91.938
		c0,53-43,96-96,96H160c-70.688,0-128-57.313-128-128c0-70.687,57.313-128,128-128c1.5,0,2.906,0.375,4.375,0.438
		C178.5,121.125,228.25,80,288,80 M288,48c-64.594,0-121.844,38.875-146.688,97.063C61.875,154.375,0,222.094,0,304
		c0,88.219,71.781,160,160,160h224c70.594,0,128-57.406,128-128c0-46.375-25.688-88.625-65.063-111c0.72-5.75,1.063-11.438,1.063-17
		C448,119.781,376.219,48,288,48L288,48z"/>
</g>
<g>
</g>
<g>
</g>
<g>
</g>
<g>
</g>
<g>
</g>
<g>
</g>
<g>
</g>
<g>
</g>
<g>
</g>
<g>
</g>
<g>
</g>
<g>
</g>
<g>
</g>
<g>
</g>
<g>
</g>
</svg>
