<?xml version="1.0" encoding="iso-8859-1"?>
<!-- Generator: Adobe Illustrator 16.0.0, SVG Export Plug-In . SVG Version: 6.00 Build 0)  -->
<!DOCTYPE svg PUBLIC "-//W3C//DTD SVG 1.1//EN" "http://www.w3.org/Graphics/SVG/1.1/DTD/svg11.dtd">
<svg version="1.1" id="Capa_1" xmlns="http://www.w3.org/2000/svg" xmlns:xlink="http://www.w3.org/1999/xlink" x="0px" y="0px"
	 width="485.211px" height="485.211px" viewBox="0 0 485.211 485.211" style="enable-background:new 0 0 485.211 485.211;"
	 xml:space="preserve">
<g>
	<path d="M303.255,90.978c50.26,0,90.98,40.723,90.98,90.978c0,11.964-2.46,23.338-6.665,33.82
		c38.709,10.484,67.318,45.488,67.318,87.482c0,50.255-40.721,90.979-90.98,90.979h-257.77c-41.873,0-75.812-33.938-75.812-75.821
		c0-41.868,33.939-75.81,75.812-75.81c2.326,0,4.504,0.474,6.77,0.682c-4.264-9.477-6.77-19.928-6.77-31.006
		c0-41.877,33.941-75.814,75.816-75.814c13.682,0,26.344,3.909,37.418,10.247C233.144,113.961,265.494,90.978,303.255,90.978
		 M303.255,60.651c-38.793,0-74.421,18.332-96.989,48.393c-7.948-1.925-16.064-2.903-24.311-2.903
		c-58.518,0-106.139,47.623-106.139,106.141c0,1.479,0.028,2.931,0.089,4.385C32.061,229.698,0,270.383,0,318.416
		c0,58.53,47.62,106.144,106.139,106.144h257.77c66.902,0,121.303-54.399,121.303-121.302c0-44.211-24.312-84.166-61.741-105.311
		c0.732-5.271,1.092-10.631,1.092-15.992C424.562,115.086,370.157,60.651,303.255,60.651L303.255,60.651z"/>
</g>
<g>
</g>
<g>
</g>
<g>
</g>
<g>
</g>
<g>
</g>
<g>
</g>
<g>
</g>
<g>
</g>
<g>
</g>
<g>
</g>
<g>
</g>
<g>
</g>
<g>
</g>
<g>
</g>
<g>
</g>
</svg>
