<?xml version="1.0" encoding="iso-8859-1"?>
<!-- Generator: Adobe Illustrator 16.0.0, SVG Export Plug-In . SVG Version: 6.00 Build 0)  -->
<!DOCTYPE svg PUBLIC "-//W3C//DTD SVG 1.1//EN" "http://www.w3.org/Graphics/SVG/1.1/DTD/svg11.dtd">
<svg version="1.1" id="Capa_1" xmlns="http://www.w3.org/2000/svg" xmlns:xlink="http://www.w3.org/1999/xlink" x="0px" y="0px"
	 width="485.211px" height="485.211px" viewBox="0 0 485.211 485.211" style="enable-background:new 0 0 485.211 485.211;"
	 xml:space="preserve">
<g>
	<path d="M424.025,217.671c0.064-1.836,0.536-3.554,0.536-5.391c0-66.991-54.315-121.304-121.307-121.304
		c-45.425,0-84.546,25.291-105.336,62.252c-5.185-0.919-10.484-1.601-15.964-1.601c-39.742,0-73.18,25.648-85.559,61.186
		c-1.804-0.117-3.554-0.532-5.418-0.532C40.75,212.28,0,253.033,0,303.256c0,50.228,40.75,90.979,90.978,90.979h303.258
		c50.227,0,90.976-40.752,90.976-90.979C485.211,263.516,459.569,230.05,424.025,217.671z"/>
</g>
<g>
</g>
<g>
</g>
<g>
</g>
<g>
</g>
<g>
</g>
<g>
</g>
<g>
</g>
<g>
</g>
<g>
</g>
<g>
</g>
<g>
</g>
<g>
</g>
<g>
</g>
<g>
</g>
<g>
</g>
</svg>
