<?xml version="1.0" encoding="iso-8859-1"?>
<!-- Generator: Adobe Illustrator 16.0.0, SVG Export Plug-In . SVG Version: 6.00 Build 0)  -->
<!DOCTYPE svg PUBLIC "-//W3C//DTD SVG 1.1//EN" "http://www.w3.org/Graphics/SVG/1.1/DTD/svg11.dtd">
<svg version="1.1" id="Capa_1" xmlns="http://www.w3.org/2000/svg" xmlns:xlink="http://www.w3.org/1999/xlink" x="0px" y="0px"
	 width="485.213px" height="485.212px" viewBox="0 0 485.213 485.212" style="enable-background:new 0 0 485.213 485.212;"
	 xml:space="preserve">
<g>
	<g>
		<path d="M423.471,137.296c0.732-5.269,1.092-10.631,1.092-15.992C424.562,54.434,370.158,0,303.256,0
			c-38.793,0-74.421,18.332-96.989,48.393c-7.964-1.925-16.081-2.903-24.311-2.903c-58.518,0-106.139,47.621-106.139,106.139
			c0,1.482,0.028,2.934,0.089,4.383c-43.861,13.03-75.905,53.725-75.905,101.761c0,58.516,47.62,106.134,106.139,106.134h257.77
			c66.902,0,121.303-54.399,121.303-121.3C485.212,198.39,460.9,158.442,423.471,137.296z M363.909,333.584H106.14
			c-41.873,0-75.812-33.939-75.812-75.812c0-41.878,33.939-75.817,75.812-75.817c2.312,0,4.504,0.476,6.753,0.682
			c-4.263-9.477-6.753-19.929-6.753-31.008c0-41.875,33.941-75.812,75.816-75.812c13.682,0,26.357,3.909,37.435,10.247
			c13.74-32.753,46.104-55.736,83.865-55.736c50.26,0,90.98,40.72,90.98,90.978c0,11.964-2.46,23.338-6.665,33.82
			c38.709,10.485,67.318,45.49,67.318,87.482C454.89,292.864,414.169,333.584,363.909,333.584z"/>
		<path d="M121.039,416.653l-17.385,24.82c40.867,28.609,88.903,43.739,138.953,43.739c50.055,0,98.088-15.13,138.985-43.739
			l-17.417-24.82C292.718,466.642,192.558,466.642,121.039,416.653z"/>
		<path d="M301.627,382.303c-37.401,15.841-80.64,15.841-117.925,0.057l-11.787,27.955c22.39,9.451,46.171,14.244,70.692,14.244
			c24.525,0,48.36-4.825,70.809-14.3L301.627,382.303z"/>
	</g>
</g>
<g>
</g>
<g>
</g>
<g>
</g>
<g>
</g>
<g>
</g>
<g>
</g>
<g>
</g>
<g>
</g>
<g>
</g>
<g>
</g>
<g>
</g>
<g>
</g>
<g>
</g>
<g>
</g>
<g>
</g>
</svg>
