<?xml version="1.0" encoding="iso-8859-1"?>
<!-- Generator: Adobe Illustrator 16.0.0, SVG Export Plug-In . SVG Version: 6.00 Build 0)  -->
<!DOCTYPE svg PUBLIC "-//W3C//DTD SVG 1.1//EN" "http://www.w3.org/Graphics/SVG/1.1/DTD/svg11.dtd">
<svg version="1.1" id="Capa_1" xmlns="http://www.w3.org/2000/svg" xmlns:xlink="http://www.w3.org/1999/xlink" x="0px" y="0px"
	 width="485.211px" height="485.211px" viewBox="0 0 485.211 485.211" style="enable-background:new 0 0 485.211 485.211;"
	 xml:space="preserve">
<g>
	<path d="M422.961,197.892c0.686-5.274,1.601-10.487,1.601-15.936c0-66.989-54.287-121.304-121.307-121.304
		c-39.623,0-74.477,19.28-96.602,48.687c-7.967-1.925-16.169-3.197-24.698-3.197c-58.639,0-106.139,47.501-106.139,106.141
		c0,1.657,0.413,3.139,0.472,4.795C32.31,230.02,0,270.238,0,318.416C0,377.059,47.504,424.56,106.139,424.56h257.77
		c67.02,0,121.303-54.277,121.303-121.302C485.211,257.828,459.947,218.676,422.961,197.892z M121.304,272.931h30.324
		c0-50.164,40.812-90.975,90.978-90.975c18.006,0,35.152,5.33,49.602,14.718l-18.416,24.551c-9.255-5.568-19.9-8.944-31.186-8.944
		c-33.451,0-60.651,27.188-60.651,60.65h30.327l-45.488,60.654L121.304,272.931z M333.586,272.931
		c0,50.172-40.813,90.976-90.979,90.976c-18.008,0-35.139-5.325-49.621-14.715l18.421-24.554c9.269,5.567,19.917,8.947,31.2,8.947
		c33.435,0,60.648-27.191,60.648-60.654h-30.322l45.49-60.648l45.485,60.648H333.586z"/>
</g>
<g>
</g>
<g>
</g>
<g>
</g>
<g>
</g>
<g>
</g>
<g>
</g>
<g>
</g>
<g>
</g>
<g>
</g>
<g>
</g>
<g>
</g>
<g>
</g>
<g>
</g>
<g>
</g>
<g>
</g>
</svg>
