<?xml version="1.0" encoding="iso-8859-1"?>
<!-- Generator: Adobe Illustrator 16.0.0, SVG Export Plug-In . SVG Version: 6.00 Build 0)  -->
<!DOCTYPE svg PUBLIC "-//W3C//DTD SVG 1.1//EN" "http://www.w3.org/Graphics/SVG/1.1/DTD/svg11.dtd">
<svg version="1.1" id="Capa_1" xmlns="http://www.w3.org/2000/svg" xmlns:xlink="http://www.w3.org/1999/xlink" x="0px" y="0px"
	 width="485.213px" height="485.212px" viewBox="0 0 485.213 485.212" style="enable-background:new 0 0 485.213 485.212;"
	 xml:space="preserve">
<g>
	<g>
		<path d="M422.962,137.235c0.686-5.269,1.601-10.482,1.601-15.931C424.562,54.315,370.275,0,303.256,0
			c-39.623,0-74.477,19.279-96.602,48.689c-7.967-1.927-16.169-3.199-24.698-3.199c-58.639,0-106.139,47.501-106.139,106.139
			c0,1.659,0.413,3.141,0.472,4.798c-43.978,12.942-76.288,53.16-76.288,101.346c0,58.637,47.504,106.134,106.139,106.134h257.77
			c67.02,0,121.303-54.278,121.303-121.3C485.212,197.177,459.948,158.027,422.962,137.235z"/>
		<path d="M121.039,416.653l-17.385,24.82c40.867,28.609,88.903,43.739,138.953,43.739c50.055,0,98.088-15.13,138.985-43.739
			l-17.417-24.82C292.718,466.642,192.558,466.642,121.039,416.653z"/>
		<path d="M301.627,382.303c-37.401,15.841-80.64,15.841-117.925,0.057l-11.787,27.955c22.39,9.451,46.171,14.244,70.692,14.244
			c24.525,0,48.36-4.825,70.809-14.3L301.627,382.303z"/>
	</g>
</g>
<g>
</g>
<g>
</g>
<g>
</g>
<g>
</g>
<g>
</g>
<g>
</g>
<g>
</g>
<g>
</g>
<g>
</g>
<g>
</g>
<g>
</g>
<g>
</g>
<g>
</g>
<g>
</g>
<g>
</g>
</svg>
