<?xml version="1.0" encoding="iso-8859-1"?>
<!-- Generator: Adobe Illustrator 16.0.0, SVG Export Plug-In . SVG Version: 6.00 Build 0)  -->
<!DOCTYPE svg PUBLIC "-//W3C//DTD SVG 1.1//EN" "http://www.w3.org/Graphics/SVG/1.1/DTD/svg11.dtd">
<svg version="1.1" id="Capa_1" xmlns="http://www.w3.org/2000/svg" xmlns:xlink="http://www.w3.org/1999/xlink" x="0px" y="0px"
	 width="485.211px" height="485.211px" viewBox="0 0 485.211 485.211" style="enable-background:new 0 0 485.211 485.211;"
	 xml:space="preserve">
<g>
	<g>
		<path d="M454.889,90.976H30.327C13.562,90.976,0,104.541,0,121.303v60.651h485.211v-60.651
			C485.211,104.541,471.647,90.976,454.889,90.976z"/>
		<path d="M0,242.604v121.3c0,16.769,13.564,30.331,30.327,30.331h424.562c16.759,0,30.322-13.562,30.322-30.331v-121.3H0z
			 M151.628,333.583H60.651v-60.654h90.978V333.583z M303.255,333.583h-30.322v-30.327h30.322V333.583z M363.908,333.583h-30.322
			v-30.327h30.322V333.583z M424.562,333.583h-30.326v-30.327h30.326V333.583z"/>
	</g>
</g>
<g>
</g>
<g>
</g>
<g>
</g>
<g>
</g>
<g>
</g>
<g>
</g>
<g>
</g>
<g>
</g>
<g>
</g>
<g>
</g>
<g>
</g>
<g>
</g>
<g>
</g>
<g>
</g>
<g>
</g>
</svg>
