<?xml version="1.0" encoding="iso-8859-1"?>
<!-- Generator: Adobe Illustrator 16.0.0, SVG Export Plug-In . SVG Version: 6.00 Build 0)  -->
<!DOCTYPE svg PUBLIC "-//W3C//DTD SVG 1.1//EN" "http://www.w3.org/Graphics/SVG/1.1/DTD/svg11.dtd">
<svg version="1.1" id="Capa_1" xmlns="http://www.w3.org/2000/svg" xmlns:xlink="http://www.w3.org/1999/xlink" x="0px" y="0px"
	 width="485.211px" height="485.211px" viewBox="0 0 485.211 485.211" style="enable-background:new 0 0 485.211 485.211;"
	 xml:space="preserve">
<g>
	<g>
		<path d="M454.889,90.976H30.327C13.562,90.976,0,104.541,0,121.303v242.602c0,16.769,13.564,30.331,30.327,30.331h424.562
			c16.759,0,30.322-13.562,30.322-30.331V121.303C485.211,104.541,471.647,90.976,454.889,90.976z M454.889,363.904H30.327V121.303
			h424.562V363.904z"/>
		<path d="M121.304,151.627h-14.689v15.166h40.363C141.681,157.909,132.41,151.627,121.304,151.627z"/>
		<path d="M90.978,242.604h0.476v-90.978h-0.476c-16.762,0-30.327,13.565-30.327,30.327v30.327
			C60.651,229.042,74.216,242.604,90.978,242.604z"/>
		<rect x="60.651" y="303.256" width="60.653" height="30.327"/>
		<path d="M151.628,212.28h-45.014v30.324h14.689C138.066,242.604,151.628,229.042,151.628,212.28z"/>
		<rect x="106.615" y="181.954" width="45.014" height="15.164"/>
		<rect x="161.756" y="303.256" width="60.651" height="30.327"/>
		<rect x="262.806" y="303.256" width="60.677" height="30.327"/>
		<rect x="363.908" y="303.256" width="60.653" height="30.327"/>
		<path d="M318.423,242.604c11.696,0,22.271-4.562,30.322-11.786c8.056,7.225,18.631,11.786,30.331,11.786
			c25.109,0,45.485-20.376,45.485-45.487c0-25.114-20.376-45.49-45.485-45.49c-11.7,0-22.275,4.56-30.331,11.789
			c-8.051-7.229-18.626-11.789-30.322-11.789c-25.118,0-45.49,20.376-45.49,45.49C272.933,222.229,293.305,242.604,318.423,242.604z
			"/>
	</g>
</g>
<g>
</g>
<g>
</g>
<g>
</g>
<g>
</g>
<g>
</g>
<g>
</g>
<g>
</g>
<g>
</g>
<g>
</g>
<g>
</g>
<g>
</g>
<g>
</g>
<g>
</g>
<g>
</g>
<g>
</g>
</svg>
