<?xml version="1.0" encoding="iso-8859-1"?>
<!-- Generator: Adobe Illustrator 16.0.0, SVG Export Plug-In . SVG Version: 6.00 Build 0)  -->
<!DOCTYPE svg PUBLIC "-//W3C//DTD SVG 1.1//EN" "http://www.w3.org/Graphics/SVG/1.1/DTD/svg11.dtd">
<svg version="1.1" id="Capa_1" xmlns="http://www.w3.org/2000/svg" xmlns:xlink="http://www.w3.org/1999/xlink" x="0px" y="0px"
	 width="485.211px" height="485.211px" viewBox="0 0 485.211 485.211" style="enable-background:new 0 0 485.211 485.211;"
	 xml:space="preserve">
<g>
	<g>
		<path d="M454.889,90.976H30.327C13.562,90.976,0,104.541,0,121.303h485.211C485.211,104.541,471.647,90.976,454.889,90.976z"/>
		<rect y="151.627" width="485.211" height="60.653"/>
		<path d="M0,242.604v121.3c0,16.769,13.564,30.331,30.327,30.331h424.562c16.759,0,30.322-13.562,30.322-30.331v-121.3H0z
			 M121.304,363.904H60.651v-30.321h60.653V363.904z M212.282,363.904h-60.654v-30.321h60.654V363.904z M379.076,363.904
			c-11.7,0-22.275-4.56-30.331-11.812c-8.051,7.253-18.626,11.812-30.322,11.812c-25.118,0-45.49-20.372-45.49-45.49
			c0-25.108,20.372-45.485,45.49-45.485c11.696,0,22.271,4.561,30.322,11.817c8.056-7.257,18.631-11.817,30.331-11.817
			c25.109,0,45.485,20.377,45.485,45.485C424.562,343.532,404.186,363.904,379.076,363.904z"/>
	</g>
</g>
<g>
</g>
<g>
</g>
<g>
</g>
<g>
</g>
<g>
</g>
<g>
</g>
<g>
</g>
<g>
</g>
<g>
</g>
<g>
</g>
<g>
</g>
<g>
</g>
<g>
</g>
<g>
</g>
<g>
</g>
</svg>
