<?xml version="1.0" encoding="iso-8859-1"?>
<!-- Generator: Adobe Illustrator 16.0.0, SVG Export Plug-In . SVG Version: 6.00 Build 0)  -->
<!DOCTYPE svg PUBLIC "-//W3C//DTD SVG 1.1//EN" "http://www.w3.org/Graphics/SVG/1.1/DTD/svg11.dtd">
<svg version="1.1" id="Capa_1" xmlns="http://www.w3.org/2000/svg" xmlns:xlink="http://www.w3.org/1999/xlink" x="0px" y="0px"
	 width="485.211px" height="485.211px" viewBox="0 0 485.211 485.211" style="enable-background:new 0 0 485.211 485.211;"
	 xml:space="preserve">
<g>
	<path d="M454.889,90.976H30.327C13.562,90.976,0,104.541,0,121.303v242.602c0,16.769,13.564,30.331,30.327,30.331h424.562
		c16.759,0,30.322-13.562,30.322-30.331V121.303C485.211,104.541,471.647,90.976,454.889,90.976z M106.615,151.627h14.689
		c11.105,0,20.376,6.282,25.674,15.166h-40.363V151.627z M60.651,181.954c0-16.762,13.565-30.327,30.327-30.327h0.476v90.978h-0.476
		c-16.762,0-30.327-13.562-30.327-30.324V181.954z M121.304,333.583H60.651v-30.327h60.653V333.583z M121.304,242.604h-14.689
		V212.28h45.014C151.628,229.042,138.066,242.604,121.304,242.604z M151.628,197.117h-45.014v-15.164h45.014V197.117z
		 M222.407,333.583h-60.651v-30.327h60.651V333.583z M323.482,333.583h-60.677v-30.327h60.677V333.583z M424.562,333.583h-60.653
		v-30.327h60.653V333.583z M379.076,242.604c-11.7,0-22.275-4.562-30.331-11.786c-8.051,7.225-18.626,11.786-30.322,11.786
		c-25.118,0-45.49-20.376-45.49-45.487c0-25.114,20.372-45.49,45.49-45.49c11.696,0,22.271,4.56,30.322,11.789
		c8.056-7.229,18.631-11.789,30.331-11.789c25.109,0,45.485,20.376,45.485,45.49C424.562,222.229,404.186,242.604,379.076,242.604z"
		/>
</g>
<g>
</g>
<g>
</g>
<g>
</g>
<g>
</g>
<g>
</g>
<g>
</g>
<g>
</g>
<g>
</g>
<g>
</g>
<g>
</g>
<g>
</g>
<g>
</g>
<g>
</g>
<g>
</g>
<g>
</g>
</svg>
