<?xml version="1.0" encoding="iso-8859-1"?>
<!-- Generator: Adobe Illustrator 16.0.0, SVG Export Plug-In . SVG Version: 6.00 Build 0)  -->
<!DOCTYPE svg PUBLIC "-//W3C//DTD SVG 1.1//EN" "http://www.w3.org/Graphics/SVG/1.1/DTD/svg11.dtd">
<svg version="1.1" id="Capa_1" xmlns="http://www.w3.org/2000/svg" xmlns:xlink="http://www.w3.org/1999/xlink" x="0px" y="0px"
	 width="485.211px" height="485.211px" viewBox="0 0 485.211 485.211" style="enable-background:new 0 0 485.211 485.211;"
	 xml:space="preserve">
<g>
	<g>
		<path d="M454.889,90.976H30.327C13.562,90.976,0,104.541,0,121.303v242.602c0,16.769,13.564,30.331,30.327,30.331h424.562
			c16.759,0,30.322-13.562,30.322-30.331V121.303C485.211,104.541,471.647,90.976,454.889,90.976z M454.889,363.904H30.327v-121.3
			h424.562V363.904z M454.889,181.954H30.327v-60.651h424.562V181.954z"/>
		<rect x="60.651" y="272.929" width="90.978" height="60.654"/>
		<rect x="272.933" y="303.256" width="30.322" height="30.327"/>
		<rect x="333.586" y="303.256" width="30.322" height="30.327"/>
		<rect x="394.235" y="303.256" width="30.326" height="30.327"/>
	</g>
</g>
<g>
</g>
<g>
</g>
<g>
</g>
<g>
</g>
<g>
</g>
<g>
</g>
<g>
</g>
<g>
</g>
<g>
</g>
<g>
</g>
<g>
</g>
<g>
</g>
<g>
</g>
<g>
</g>
<g>
</g>
</svg>
