<?xml version="1.0" encoding="iso-8859-1"?>
<!-- Generator: Adobe Illustrator 16.0.0, SVG Export Plug-In . SVG Version: 6.00 Build 0)  -->
<!DOCTYPE svg PUBLIC "-//W3C//DTD SVG 1.1//EN" "http://www.w3.org/Graphics/SVG/1.1/DTD/svg11.dtd">
<svg version="1.1" id="Capa_1" xmlns="http://www.w3.org/2000/svg" xmlns:xlink="http://www.w3.org/1999/xlink" x="0px" y="0px"
	 width="454.891px" height="454.89px" viewBox="0 0 454.891 454.89" style="enable-background:new 0 0 454.891 454.89;"
	 xml:space="preserve">
<g>
	<g>
		<rect y="394.233" width="30.329" height="30.331"/>
		<rect y="333.584" width="30.329" height="30.326"/>
		<rect y="272.931" width="30.329" height="30.321"/>
		<rect y="212.282" width="30.329" height="30.327"/>
		<rect y="151.631" width="30.329" height="30.324"/>
		<rect y="90.978" width="30.329" height="30.326"/>
		<rect y="30.327" width="30.329" height="30.327"/>
		<rect x="60.655" y="30.327" width="30.322" height="30.327"/>
		<rect x="121.304" y="30.327" width="30.329" height="30.327"/>
		<rect x="424.56" y="333.584" width="30.331" height="30.326"/>
		<rect x="424.56" y="272.931" width="30.331" height="30.321"/>
		<rect x="424.56" y="212.282" width="30.331" height="30.327"/>
		<rect x="424.56" y="151.631" width="30.331" height="30.324"/>
		<rect x="60.655" y="394.233" width="30.322" height="30.331"/>
		<rect x="121.304" y="394.233" width="30.329" height="30.331"/>
		<rect x="181.955" y="394.233" width="30.327" height="30.331"/>
		<rect x="242.608" y="394.233" width="30.327" height="30.331"/>
		<rect x="303.262" y="394.233" width="30.322" height="30.331"/>
		<rect x="363.915" y="394.233" width="30.322" height="30.331"/>
		<rect x="424.56" y="394.233" width="30.331" height="30.331"/>
		<rect x="181.955" y="60.653" width="30.327" height="30.325"/>
		<rect x="242.608" y="90.978" width="30.327" height="30.326"/>
		<rect x="303.262" y="90.978" width="30.322" height="30.326"/>
		<rect x="363.915" y="90.978" width="30.322" height="30.326"/>
		<rect x="424.56" y="90.978" width="30.331" height="30.326"/>
	</g>
</g>
<g>
</g>
<g>
</g>
<g>
</g>
<g>
</g>
<g>
</g>
<g>
</g>
<g>
</g>
<g>
</g>
<g>
</g>
<g>
</g>
<g>
</g>
<g>
</g>
<g>
</g>
<g>
</g>
<g>
</g>
</svg>
