<?xml version="1.0" encoding="iso-8859-1"?>
<!-- Generator: Adobe Illustrator 16.0.0, SVG Export Plug-In . SVG Version: 6.00 Build 0)  -->
<!DOCTYPE svg PUBLIC "-//W3C//DTD SVG 1.1//EN" "http://www.w3.org/Graphics/SVG/1.1/DTD/svg11.dtd">
<svg version="1.1" id="Capa_1" xmlns="http://www.w3.org/2000/svg" xmlns:xlink="http://www.w3.org/1999/xlink" x="0px" y="0px"
	 width="485.213px" height="485.212px" viewBox="0 0 485.213 485.212" style="enable-background:new 0 0 485.213 485.212;"
	 xml:space="preserve">
<g>
	<path d="M60.652,60.651V30.327C60.652,13.567,74.217,0,90.979,0h151.629c16.764,0,30.326,13.567,30.326,30.327v30.324H60.652z
		 M485.212,151.628v272.931c0,33.347-27.303,60.653-60.649,60.653H60.652c-33.346,0-60.651-27.307-60.651-60.653V151.628
		c0-33.346,27.305-60.651,60.651-60.651h363.911C457.909,90.978,485.212,118.282,485.212,151.628z M424.562,394.237H242.607v30.322
		h181.955V394.237z M424.562,333.584H242.607v30.321h181.955V333.584z"/>
</g>
<g>
</g>
<g>
</g>
<g>
</g>
<g>
</g>
<g>
</g>
<g>
</g>
<g>
</g>
<g>
</g>
<g>
</g>
<g>
</g>
<g>
</g>
<g>
</g>
<g>
</g>
<g>
</g>
<g>
</g>
</svg>
