<?xml version="1.0" encoding="iso-8859-1"?>
<!-- Generator: Adobe Illustrator 16.0.0, SVG Export Plug-In . SVG Version: 6.00 Build 0)  -->
<!DOCTYPE svg PUBLIC "-//W3C//DTD SVG 1.1//EN" "http://www.w3.org/Graphics/SVG/1.1/DTD/svg11.dtd">
<svg version="1.1" id="Capa_1" xmlns="http://www.w3.org/2000/svg" xmlns:xlink="http://www.w3.org/1999/xlink" x="0px" y="0px"
	 width="485.211px" height="485.211px" viewBox="0 0 485.211 485.211" style="enable-background:new 0 0 485.211 485.211;"
	 xml:space="preserve">
<g>
	<path d="M225.135,394.237H0V30.331h181.955l60.651,60.651h242.604v152.579c-27.657-37.168-71.519-61.601-121.303-61.601
		c-83.602,0-151.626,68.027-151.626,151.633C212.282,355.179,216.961,375.639,225.135,394.237z M449.676,247.826
		c47.356,47.319,47.38,124.145,0,171.529c-47.353,47.38-124.205,47.353-171.529,0c-47.357-47.324-47.388-124.177,0-171.529
		C325.526,200.441,402.347,200.469,449.676,247.826z M449.676,290.707l-42.882-42.881l-42.886,42.881l-42.886-42.881l-42.876,42.881
		l42.876,42.886l-42.876,42.877l42.876,42.886l42.886-42.886l42.886,42.886l42.882-42.886l-42.882-42.877L449.676,290.707z"/>
</g>
<g>
</g>
<g>
</g>
<g>
</g>
<g>
</g>
<g>
</g>
<g>
</g>
<g>
</g>
<g>
</g>
<g>
</g>
<g>
</g>
<g>
</g>
<g>
</g>
<g>
</g>
<g>
</g>
<g>
</g>
</svg>
