<?xml version="1.0" encoding="iso-8859-1"?>
<!-- Generator: Adobe Illustrator 16.0.0, SVG Export Plug-In . SVG Version: 6.00 Build 0)  -->
<!DOCTYPE svg PUBLIC "-//W3C//DTD SVG 1.1//EN" "http://www.w3.org/Graphics/SVG/1.1/DTD/svg11.dtd">
<svg version="1.1" id="Capa_1" xmlns="http://www.w3.org/2000/svg" xmlns:xlink="http://www.w3.org/1999/xlink" x="0px" y="0px"
	 width="485.213px" height="485.212px" viewBox="0 0 485.213 485.212" style="enable-background:new 0 0 485.213 485.212;"
	 xml:space="preserve">
<g>
	<path d="M454.89,197.119h-36.277c-4.299-16.646-10.842-32.338-19.401-46.792l25.679-25.646V81.795l-21.445-21.438h-42.909
		l-25.65,25.646c-14.449-8.529-30.145-15.105-46.787-19.369V30.327L257.771,0h-30.327l-30.327,30.327v36.307
		c-16.643,4.266-32.368,10.842-46.79,19.369l-25.678-25.646H81.768L60.325,81.8v42.881l25.648,25.646
		c-8.529,14.454-15.044,30.149-19.366,46.794H30.328L0.001,227.445v30.327l30.327,30.322h36.279
		c4.322,16.647,10.837,32.338,19.366,46.797l-25.648,25.646v42.909l21.443,21.445h42.881l25.678-25.684
		c14.452,8.56,30.149,15.112,46.79,19.396v36.282l30.327,30.326h30.327l30.327-30.326v-36.282
		c16.643-4.284,32.338-10.837,46.787-19.363l25.65,25.65h42.909l21.445-21.445v-42.909l-25.65-25.646
		c8.531-14.459,15.074-30.149,19.373-46.797h36.277l30.322-30.322v-30.327L454.89,197.119z M242.607,363.906
		c-66.989,0-121.302-54.311-121.302-121.3c0-66.989,54.313-121.302,121.302-121.302c66.991,0,121.302,54.313,121.302,121.302
		C363.909,309.595,309.599,363.906,242.607,363.906z"/>
</g>
<g>
</g>
<g>
</g>
<g>
</g>
<g>
</g>
<g>
</g>
<g>
</g>
<g>
</g>
<g>
</g>
<g>
</g>
<g>
</g>
<g>
</g>
<g>
</g>
<g>
</g>
<g>
</g>
<g>
</g>
</svg>
