<?xml version="1.0" encoding="iso-8859-1"?>
<!-- Generator: Adobe Illustrator 16.0.0, SVG Export Plug-In . SVG Version: 6.00 Build 0)  -->
<!DOCTYPE svg PUBLIC "-//W3C//DTD SVG 1.1//EN" "http://www.w3.org/Graphics/SVG/1.1/DTD/svg11.dtd">
<svg version="1.1" id="Capa_1" xmlns="http://www.w3.org/2000/svg" xmlns:xlink="http://www.w3.org/1999/xlink" x="0px" y="0px"
	 width="513.688px" height="513.688px" viewBox="0 0 513.688 513.688" style="enable-background:new 0 0 513.688 513.688;"
	 xml:space="preserve">
<g>
	<path d="M355.532,0l-7.094,0.344c-84.922,4.344-187.547,112.75-186.108,196.594c0.608,35.5,13.594,68.813,35.781,96L83.892,407.156
		l-56.562-56.562c-6.267-6.25-16.375-6.25-22.642,0c-6.25,6.25-6.25,16.375,0,22.625l74.063,74.062l5.141,5.156l0,0l56.563,56.563
		c6.266,6.25,16.375,6.25,22.625,0c6.266-6.25,6.266-16.375,0-22.625l-56.563-56.563l114.22-114.219
		c27.219,22.156,60.483,35.156,96.046,35.781c83.875,1.438,192.25-101.188,196.531-186.125l0.375-7.094L355.532,0z M317.313,319.375
		c-65.125-1.125-121.891-57.781-122.983-122.969c-1.109-64.844,81.844-154.469,148.891-163.469l137.5,137.5
		C471.751,237.5,382.157,320.5,317.313,319.375z M349.595,176.782c54,34.688,113.906-0.938,113.906-0.938
		c-13.469,58.906-91.625,128.469-145.938,127.531C263.719,302.469,211.25,250,210.329,196.156c-0.047-3.281,0.906-6.844,1.344-10.25
		c17.767-1.656,33.609-5.469,41.922-10.219C273.595,164.282,295.595,142.094,349.595,176.782z"/>
</g>
<g>
</g>
<g>
</g>
<g>
</g>
<g>
</g>
<g>
</g>
<g>
</g>
<g>
</g>
<g>
</g>
<g>
</g>
<g>
</g>
<g>
</g>
<g>
</g>
<g>
</g>
<g>
</g>
<g>
</g>
</svg>
