<?xml version="1.0" encoding="iso-8859-1"?>
<!-- Generator: Adobe Illustrator 19.0.0, SVG Export Plug-In . SVG Version: 6.00 Build 0)  -->
<svg version="1.1" id="Capa_1" xmlns="http://www.w3.org/2000/svg" xmlns:xlink="http://www.w3.org/1999/xlink" x="0px" y="0px"
	 viewBox="0 0 512.009 512.009" style="enable-background:new 0 0 512.009 512.009;" xml:space="preserve">
<g>
	<g>
		<path d="M437.335,256.009c5.083,0,9.458-3.594,10.458-8.573c1-4.99-1.667-9.979-6.354-11.938l-121.435-51.676v-34.48h117.331
			c5.063,0,9.438-3.573,10.458-8.542c1-4.979-1.625-9.969-6.292-11.948L289.52,63.358L265.859,6.571l-0.016,0.006
			c-1.044-2.508-3.03-4.622-5.734-5.746c-5.375-2.281-11.688,0.292-13.958,5.74l-24.229,58.151l-151.417,64.13
			c-4.667,1.979-7.292,6.969-6.292,11.948c1.021,4.969,5.396,8.542,10.458,8.542h117.333V184.9L70.567,235.498
			c-4.688,1.958-7.354,6.948-6.354,11.938c1,4.979,5.375,8.573,10.458,8.573h117.333v71.115L66.129,494.946
			c-2.417,3.229-2.813,7.552-1,11.167c1.813,3.615,5.5,5.896,9.542,5.896h42.667c2.833,0,5.542-1.125,7.542-3.125l92.875-92.875
			h76.5l92.875,92.875c2,2,4.708,3.125,7.542,3.125h42.667c4.042,0,7.729-2.281,9.542-5.896c1.813-3.615,1.417-7.938-1-11.167
			L320.004,327.123v-71.115H437.335z M384.002,234.676h-63.997v-27.603L384.002,234.676z M292.171,247.551l-34.834,27.863
			l-34.833-27.863l34.833-16.934L292.171,247.551z M226.713,192.009l30.625-14.891l30.625,14.891L257.338,206.9L226.713,192.009z
			 M257.34,302.735l31.831,25.461l-32.628,14.974l-31.227-14.818L257.34,302.735z M274.417,289.075l24.254-19.401v38.803
			L274.417,289.075z M281.731,218.76l16.94-8.236v16.471L281.731,218.76z M281.735,165.256l16.936-8.236v16.47L281.735,165.256z
			 M278.295,91.915l4.525,10.857l-8.796-7.309L278.295,91.915z M256.004,38.426l13.707,32.892l-12.374,10.281l-14.354-11.927
			L256.004,38.426z M234.4,90.269l6.251,5.194l-12.874,10.698L234.4,90.269z M257.338,109.332l33.449,27.797l-33.449,16.264
			l-33.449-16.264L257.338,109.332z M213.338,155.724l19.603,9.533l-19.603,9.531V155.724z M213.338,209.229l19.607,9.531
			l-19.607,9.533V209.229z M213.338,267.54l26.923,21.534l-26.923,21.536V267.54z M127.213,128.009l82.983-35.146l-14.645,35.146
			H127.213z M128.004,234.676l64-26.668v26.668H128.004z M206.675,343.121l24.572,11.66l-50.806,23.318L206.675,343.121z
			 M112.921,490.676H96.004l56.003-74.667h35.581L112.921,490.676z M195.484,394.676l60.914-27.958l58.91,27.958H195.484z
			 M416.004,490.676h-16.917l-74.667-74.667h35.581L416.004,490.676z M332.352,379.144l-50.656-24.038l24.272-11.141
			L332.352,379.144z M316.458,128.009L301.329,91.7l83.465,36.309H316.458z"/>
	</g>
</g>
<g>
</g>
<g>
</g>
<g>
</g>
<g>
</g>
<g>
</g>
<g>
</g>
<g>
</g>
<g>
</g>
<g>
</g>
<g>
</g>
<g>
</g>
<g>
</g>
<g>
</g>
<g>
</g>
<g>
</g>
</svg>
