<?xml version="1.0" encoding="iso-8859-1"?>
<!-- Generator: Adobe Illustrator 16.0.0, SVG Export Plug-In . SVG Version: 6.00 Build 0)  -->
<!DOCTYPE svg PUBLIC "-//W3C//DTD SVG 1.1//EN" "http://www.w3.org/Graphics/SVG/1.1/DTD/svg11.dtd">
<svg version="1.1" id="Capa_1" xmlns="http://www.w3.org/2000/svg" xmlns:xlink="http://www.w3.org/1999/xlink" x="0px" y="0px"
	 width="421.597px" height="421.598px" viewBox="0 0 421.597 421.598" style="enable-background:new 0 0 421.597 421.598;"
	 xml:space="preserve">
<g>
	<path d="M170.781,374.27l-53.62-53.657l129.773-129.714c41.522,31.039,100.515,28.075,138.304-9.654
		c41.402-41.46,41.402-108.689,0-150.149c-41.457-41.46-108.687-41.46-150.135,0c-37.757,37.79-40.721,96.779-9.643,138.36
		L9.305,385.648c-5.568,5.567-5.288,14.804,0.651,20.727c5.923,5.922,15.224,6.277,20.79,0.709l22.094-22.149L85,417.156
		c5.923,5.922,15.521,5.922,21.443,0c5.939-5.923,5.939-15.519,0-21.441L74.28,363.498l21.443-21.445l53.618,53.662
		c5.925,5.923,15.518,5.923,21.44,0C176.704,389.793,176.704,380.192,170.781,374.27z M256.534,52.538
		c29.557-29.498,77.707-29.498,107.264,0c29.557,29.615,29.557,77.709,0,107.266c-29.557,29.554-77.65,29.554-107.264,0
		C226.987,130.247,226.987,82.153,256.534,52.538z"/>
</g>
<g>
</g>
<g>
</g>
<g>
</g>
<g>
</g>
<g>
</g>
<g>
</g>
<g>
</g>
<g>
</g>
<g>
</g>
<g>
</g>
<g>
</g>
<g>
</g>
<g>
</g>
<g>
</g>
<g>
</g>
</svg>
