<?xml version="1.0" encoding="iso-8859-1"?>
<!-- Generator: Adobe Illustrator 16.0.0, SVG Export Plug-In . SVG Version: 6.00 Build 0)  -->
<!DOCTYPE svg PUBLIC "-//W3C//DTD SVG 1.1//EN" "http://www.w3.org/Graphics/SVG/1.1/DTD/svg11.dtd">
<svg version="1.1" id="Capa_1" xmlns="http://www.w3.org/2000/svg" xmlns:xlink="http://www.w3.org/1999/xlink" x="0px" y="0px"
	 width="485.227px" height="485.227px" viewBox="0 0 485.227 485.227" style="enable-background:new 0 0 485.227 485.227;"
	 xml:space="preserve">
<g>
	<path d="M318.431,30.343c-42.47-40.457-109.179-40.457-151.628,0c-16.75,0-30.329,13.562-30.329,30.324v60.651
		c0,16.764,13.579,30.327,30.329,30.327c9.105,8.678,19.468,15.105,30.322,20.047v70.93h15.166v212.282l30.324,30.322l30.326-30.322
		V242.623h15.164v-70.93c10.864-4.942,21.202-11.369,30.326-20.047c16.76,0,30.322-13.562,30.322-30.327V60.667
		C348.753,43.905,335.191,30.343,318.431,30.343z M272.941,60.667c0,16.764-13.562,30.327-30.326,30.327
		c-16.746,0-30.324-13.564-30.324-30.327c0-16.762,13.579-30.324,30.324-30.324C259.378,30.343,272.941,43.905,272.941,60.667z"/>
</g>
<g>
</g>
<g>
</g>
<g>
</g>
<g>
</g>
<g>
</g>
<g>
</g>
<g>
</g>
<g>
</g>
<g>
</g>
<g>
</g>
<g>
</g>
<g>
</g>
<g>
</g>
<g>
</g>
<g>
</g>
</svg>
