<?xml version="1.0" encoding="iso-8859-1"?>
<!-- Generator: Adobe Illustrator 16.0.0, SVG Export Plug-In . SVG Version: 6.00 Build 0)  -->
<!DOCTYPE svg PUBLIC "-//W3C//DTD SVG 1.1//EN" "http://www.w3.org/Graphics/SVG/1.1/DTD/svg11.dtd">
<svg version="1.1" id="Capa_1" xmlns="http://www.w3.org/2000/svg" xmlns:xlink="http://www.w3.org/1999/xlink" x="0px" y="0px"
	 width="427.784px" height="427.784px" viewBox="0 0 427.784 427.784" style="enable-background:new 0 0 427.784 427.784;"
	 xml:space="preserve">
<g>
	<path d="M171.548,320.563l114.699-114.724c37.373,13.21,80.554,5.211,110.465-24.642c41.43-41.46,41.43-108.685,0-150.089
		c-41.463-41.46-108.659-41.46-150.117,0c-29.883,29.853-37.882,73.033-24.675,110.407L0,363.449l10.723,53.605l53.602,10.716
		l21.443-21.436h42.883v-42.886h42.897V320.563L171.548,320.563z M332.357,95.433c-11.821-11.845-11.821-31.036,0-42.881
		c11.845-11.845,31.064-11.845,42.909,0c11.816,11.845,11.816,31.036,0,42.881C363.421,107.28,344.202,107.28,332.357,95.433z"/>
</g>
<g>
</g>
<g>
</g>
<g>
</g>
<g>
</g>
<g>
</g>
<g>
</g>
<g>
</g>
<g>
</g>
<g>
</g>
<g>
</g>
<g>
</g>
<g>
</g>
<g>
</g>
<g>
</g>
<g>
</g>
</svg>
