<?xml version="1.0" encoding="iso-8859-1"?>
<!-- Generator: Adobe Illustrator 16.0.0, SVG Export Plug-In . SVG Version: 6.00 Build 0)  -->
<!DOCTYPE svg PUBLIC "-//W3C//DTD SVG 1.1//EN" "http://www.w3.org/Graphics/SVG/1.1/DTD/svg11.dtd">
<svg version="1.1" id="Capa_1" xmlns="http://www.w3.org/2000/svg" xmlns:xlink="http://www.w3.org/1999/xlink" x="0px" y="0px"
	 width="485.211px" height="485.211px" viewBox="0 0 485.211 485.211" style="enable-background:new 0 0 485.211 485.211;"
	 xml:space="preserve">
<g>
	<path d="M485.211,288.092v-90.976c0-33.496-27.158-60.651-60.649-60.651h-90.976c-33.495,0-60.653,27.156-60.653,60.651H30.327
		L0,227.443l30.327,60.649l30.324-30.322l30.327,30.322l30.327-30.322l30.324,30.322h121.304c0,33.495,27.158,60.653,60.653,60.653
		h90.976C458.053,348.746,485.211,321.587,485.211,288.092z M424.562,303.255V181.953c0-8.379,6.781-15.161,15.159-15.161
		c8.382,0,15.168,6.781,15.168,15.161v121.302c0,8.382-6.786,15.158-15.168,15.158C431.343,318.414,424.562,311.637,424.562,303.255
		z"/>
</g>
<g>
</g>
<g>
</g>
<g>
</g>
<g>
</g>
<g>
</g>
<g>
</g>
<g>
</g>
<g>
</g>
<g>
</g>
<g>
</g>
<g>
</g>
<g>
</g>
<g>
</g>
<g>
</g>
<g>
</g>
</svg>
