<?xml version="1.0" encoding="iso-8859-1"?>
<!-- Generator: Adobe Illustrator 16.0.0, SVG Export Plug-In . SVG Version: 6.00 Build 0)  -->
<!DOCTYPE svg PUBLIC "-//W3C//DTD SVG 1.1//EN" "http://www.w3.org/Graphics/SVG/1.1/DTD/svg11.dtd">
<svg version="1.1" id="Capa_1" xmlns="http://www.w3.org/2000/svg" xmlns:xlink="http://www.w3.org/1999/xlink" x="0px" y="0px"
	 width="485.213px" height="485.212px" viewBox="0 0 485.213 485.212" style="enable-background:new 0 0 485.213 485.212;"
	 xml:space="preserve">
<g>
	<path d="M333.586,409.396v30.331c0,8.378-6.785,15.159-15.163,15.159h-15.168c0,16.764-13.562,30.326-30.322,30.326h-60.65
		c-16.748,0-30.327-13.562-30.327-30.326h-15.161c-8.384,0-15.166-6.781-15.166-15.159v-30.331c0-8.382,6.782-15.159,15.166-15.159
		h151.628C326.801,394.237,333.586,401.014,333.586,409.396z M394.235,151.628c0,15.817-2.427,31.036-6.898,45.371l-55.146,145.676
		c-3.851,12.321-15.341,21.23-28.937,21.23h-121.3c-13.564,0-25.085-8.909-28.966-21.23L97.875,197
		c-4.469-14.335-6.898-29.554-6.898-45.371C90.978,67.878,158.855,0,242.606,0S394.235,67.878,394.235,151.628z M257.77,60.651
		c0-8.38-6.781-15.161-15.163-15.161c-58.521,0-106.141,47.621-106.141,106.139c0,8.38,6.781,15.166,15.163,15.166
		c8.38,0,15.166-6.786,15.166-15.166c0-41.814,34.014-75.812,75.812-75.812C250.988,75.816,257.77,69.031,257.77,60.651z"/>
</g>
<g>
</g>
<g>
</g>
<g>
</g>
<g>
</g>
<g>
</g>
<g>
</g>
<g>
</g>
<g>
</g>
<g>
</g>
<g>
</g>
<g>
</g>
<g>
</g>
<g>
</g>
<g>
</g>
<g>
</g>
</svg>
