<?xml version="1.0" encoding="iso-8859-1"?>
<!-- Generator: Adobe Illustrator 16.0.0, SVG Export Plug-In . SVG Version: 6.00 Build 0)  -->
<!DOCTYPE svg PUBLIC "-//W3C//DTD SVG 1.1//EN" "http://www.w3.org/Graphics/SVG/1.1/DTD/svg11.dtd">
<svg version="1.1" id="Capa_1" xmlns="http://www.w3.org/2000/svg" xmlns:xlink="http://www.w3.org/1999/xlink" x="0px" y="0px"
	 width="486.096px" height="486.096px" viewBox="0 0 486.096 486.096" style="enable-background:new 0 0 486.096 486.096;"
	 xml:space="preserve">
<g>
	<path d="M141.205,367.486l-22.625-22.625L344.861,118.58l22.625,22.625L141.205,367.486z M250.173,303.798l-63.688,63.688
		l-22.656,22.655l-22.625,22.625c-12.5,12.5-32.75,12.5-45.25,0l-22.625-22.625c-12.5-12.53-12.5-32.75,0-45.28l22.625-22.625
		l22.625-22.625l63.719-63.72c-35.656-16.906-79.5-11-108.969,18.47l-45.25,45.25c-37.438,37.438-37.438,98.344,0,135.78
		l22.625,22.625c37.438,37.438,98.344,37.438,135.781,0l45.25-45.25C261.205,383.298,267.08,339.423,250.173,303.798z
		 M458.017,50.704l-22.625-22.625c-37.438-37.438-98.344-37.438-135.781,0l-45.249,45.25c-29.47,29.469-35.375,73.312-18.47,108.969
		l63.719-63.719l22.625-22.625l22.625-22.625c12.5-12.5,32.75-12.5,45.281,0l22.625,22.625c12.5,12.5,12.469,32.781,0,45.25
		l-22.625,22.625l-22.656,22.656l-63.719,63.719c35.656,16.875,79.531,11,109-18.469l45.25-45.25
		C495.455,149.048,495.455,88.142,458.017,50.704z"/>
</g>
<g>
</g>
<g>
</g>
<g>
</g>
<g>
</g>
<g>
</g>
<g>
</g>
<g>
</g>
<g>
</g>
<g>
</g>
<g>
</g>
<g>
</g>
<g>
</g>
<g>
</g>
<g>
</g>
<g>
</g>
</svg>
