<?xml version="1.0" encoding="iso-8859-1"?>
<!-- Generator: Adobe Illustrator 16.0.0, SVG Export Plug-In . SVG Version: 6.00 Build 0)  -->
<!DOCTYPE svg PUBLIC "-//W3C//DTD SVG 1.1//EN" "http://www.w3.org/Graphics/SVG/1.1/DTD/svg11.dtd">
<svg version="1.1" id="Capa_1" xmlns="http://www.w3.org/2000/svg" xmlns:xlink="http://www.w3.org/1999/xlink" x="0px" y="0px"
	 width="512.004px" height="512.004px" viewBox="0 0 512.004 512.004" style="enable-background:new 0 0 512.004 512.004;"
	 xml:space="preserve">
<g>
	<g>
		<path d="M497.938,430.068L325.219,257.35c-16.531,27.953-39.906,51.313-67.844,67.844l172.688,172.719
			c18.781,18.781,49.188,18.781,67.906,0C516.688,479.225,516.688,448.818,497.938,430.068z M475.312,475.318
			c-6.25,6.25-16.375,6.25-22.625,0l-45.28-45.25c-6.25-6.25-6.25-16.375,0-22.625c6.28-6.25,16.375-6.25,22.655,0l45.25,45.25
			C481.562,458.943,481.562,469.068,475.312,475.318z"/>
		<path d="M320,160.006c0-88.359-71.625-160-160-160S0,71.647,0,160.006c0,88.375,71.625,160,160,160S320,248.381,320,160.006z
			 M160,272.006c-61.75,0-112-50.25-112-112s50.25-112,112-112s112,50.25,112,112S221.75,272.006,160,272.006z"/>
	</g>
</g>
<g>
</g>
<g>
</g>
<g>
</g>
<g>
</g>
<g>
</g>
<g>
</g>
<g>
</g>
<g>
</g>
<g>
</g>
<g>
</g>
<g>
</g>
<g>
</g>
<g>
</g>
<g>
</g>
<g>
</g>
</svg>
