<?xml version="1.0" encoding="iso-8859-1"?>
<!-- Generator: Adobe Illustrator 16.0.0, SVG Export Plug-In . SVG Version: 6.00 Build 0)  -->
<!DOCTYPE svg PUBLIC "-//W3C//DTD SVG 1.1//EN" "http://www.w3.org/Graphics/SVG/1.1/DTD/svg11.dtd">
<svg version="1.1" id="Capa_1" xmlns="http://www.w3.org/2000/svg" xmlns:xlink="http://www.w3.org/1999/xlink" x="0px" y="0px"
	 width="512px" height="512.001px" viewBox="0 0 512 512.001" style="enable-background:new 0 0 512 512.001;" xml:space="preserve"
	>
<g>
	<path d="M384,409.938V102.063c19.844-10.688,32-23.75,32-38.063c0-35.344-71.625-64-160-64S96,28.656,96,64
		c0,14.313,12.156,27.375,32,38.063v307.875c-19.844,10.688-32,23.75-32,38.063c0,35.344,71.625,64,160,64s160-28.656,160-64
		C416,433.688,403.844,420.625,384,409.938z M192,256v-32h128v32h-48v96h-32v-96H192z M192,192v-32h128v32H192z"/>
</g>
<g>
</g>
<g>
</g>
<g>
</g>
<g>
</g>
<g>
</g>
<g>
</g>
<g>
</g>
<g>
</g>
<g>
</g>
<g>
</g>
<g>
</g>
<g>
</g>
<g>
</g>
<g>
</g>
<g>
</g>
</svg>
