<?xml version="1.0" encoding="iso-8859-1"?>
<!-- Generator: Adobe Illustrator 16.0.0, SVG Export Plug-In . SVG Version: 6.00 Build 0)  -->
<!DOCTYPE svg PUBLIC "-//W3C//DTD SVG 1.1//EN" "http://www.w3.org/Graphics/SVG/1.1/DTD/svg11.dtd">
<svg version="1.1" id="Capa_1" xmlns="http://www.w3.org/2000/svg" xmlns:xlink="http://www.w3.org/1999/xlink" x="0px" y="0px"
	 width="485.213px" height="485.212px" viewBox="0 0 485.213 485.212" style="enable-background:new 0 0 485.213 485.212;"
	 xml:space="preserve">
<g>
	<path d="M424.562,121.304H151.629V90.978h90.978c16.764,0,30.326-13.565,30.326-30.327V30.327C272.934,13.562,259.371,0,242.607,0
		H121.305c-16.764,0-30.327,13.567-30.327,30.327v90.978H60.652c-33.493,0-60.651,27.158-60.651,60.651v121.302
		c0,33.495,27.158,60.648,60.651,60.648h151.631v90.98c0,16.764,13.562,30.326,30.324,30.326h60.648
		c16.765,0,30.331-13.562,30.331-30.326v-90.98h90.976c33.491,0,60.649-27.153,60.649-60.648V181.955
		C485.212,148.462,458.054,121.304,424.562,121.304z M272.934,439.727c0,8.378-6.785,15.159-15.163,15.159
		c-8.382,0-15.163-6.781-15.163-15.159v-75.821h30.326V439.727z M454.89,303.257c0,16.731-13.596,30.327-30.327,30.327H60.652
		c-16.701,0-30.324-13.596-30.324-30.327V181.955c0-16.704,13.623-30.327,30.324-30.327h30.327v60.653
		c0,16.762,13.565,30.324,30.327,30.324s30.324-13.562,30.324-30.324v-60.653h272.933c16.731,0,30.327,13.623,30.327,30.327V303.257
		z"/>
</g>
<g>
</g>
<g>
</g>
<g>
</g>
<g>
</g>
<g>
</g>
<g>
</g>
<g>
</g>
<g>
</g>
<g>
</g>
<g>
</g>
<g>
</g>
<g>
</g>
<g>
</g>
<g>
</g>
<g>
</g>
</svg>
