<?xml version="1.0" encoding="iso-8859-1"?>
<!-- Generator: Adobe Illustrator 16.0.0, SVG Export Plug-In . SVG Version: 6.00 Build 0)  -->
<!DOCTYPE svg PUBLIC "-//W3C//DTD SVG 1.1//EN" "http://www.w3.org/Graphics/SVG/1.1/DTD/svg11.dtd">
<svg version="1.1" id="Capa_1" xmlns="http://www.w3.org/2000/svg" xmlns:xlink="http://www.w3.org/1999/xlink" x="0px" y="0px"
	 width="485.227px" height="485.226px" viewBox="0 0 485.227 485.226" style="enable-background:new 0 0 485.227 485.226;"
	 xml:space="preserve">
<g>
	<path d="M454.89,431.89L324.767,283.16l47.292-40.543h-46.583l-82.863,71.02L53.609,151.642h219.324v-30.329H0.006v363.914h485.215
		V181.968H454.89V431.89z M30.332,171.6l130.125,111.527L30.332,431.858V171.6z M50.471,454.894l133.03-152.011l59.111,50.67
		l59.141-50.67l132.998,152.011H50.471z M485.221,2.083V104.85c-75.821,63.197-75.821-37.906-151.633,12.615v94.826h-30.322V0.013
		h30.322V14.7C409.399-35.823,409.399,65.284,485.221,2.083z"/>
</g>
<g>
</g>
<g>
</g>
<g>
</g>
<g>
</g>
<g>
</g>
<g>
</g>
<g>
</g>
<g>
</g>
<g>
</g>
<g>
</g>
<g>
</g>
<g>
</g>
<g>
</g>
<g>
</g>
<g>
</g>
</svg>
