<?xml version="1.0" encoding="iso-8859-1"?>
<!-- Generator: Adobe Illustrator 16.0.0, SVG Export Plug-In . SVG Version: 6.00 Build 0)  -->
<!DOCTYPE svg PUBLIC "-//W3C//DTD SVG 1.1//EN" "http://www.w3.org/Graphics/SVG/1.1/DTD/svg11.dtd">
<svg version="1.1" id="Capa_1" xmlns="http://www.w3.org/2000/svg" xmlns:xlink="http://www.w3.org/1999/xlink" x="0px" y="0px"
	 width="512px" height="512px" viewBox="0 0 512 512" style="enable-background:new 0 0 512 512;" xml:space="preserve">
<g>
	<path d="M384,192c17.781,0,34.188-5.156,48.469-13.563l36.375,36.375c4.688,4.688,10.813,7,16.97,7c6.155,0,12.28-2.313,16.969-7
		c9.375-9.375,9.375-24.563,0-33.938L466.406,144.5C474.844,130.219,480,113.781,480,96c0-53-42.969-96-96-96s-96,43-96,96
		S330.969,192,384,192z M384,32c35.281,0,64,28.688,64,64s-28.719,64-64,64s-64-28.688-64-64S348.719,32,384,32z M480,256v199.719
		L342.688,298.781L429.906,224h-49.125L256,330.938L56.562,160H256v-32H0v384h512V256H480z M32,181.063L169.312,298.75L32,455.688
		V181.063z M53.25,480l140.375-160.406L256,373.062l62.406-53.469L458.75,480H53.25z"/>
</g>
<g>
</g>
<g>
</g>
<g>
</g>
<g>
</g>
<g>
</g>
<g>
</g>
<g>
</g>
<g>
</g>
<g>
</g>
<g>
</g>
<g>
</g>
<g>
</g>
<g>
</g>
<g>
</g>
<g>
</g>
</svg>
