<?xml version="1.0" encoding="iso-8859-1"?>
<!-- Generator: Adobe Illustrator 16.0.0, SVG Export Plug-In . SVG Version: 6.00 Build 0)  -->
<!DOCTYPE svg PUBLIC "-//W3C//DTD SVG 1.1//EN" "http://www.w3.org/Graphics/SVG/1.1/DTD/svg11.dtd">
<svg version="1.1" id="Capa_1" xmlns="http://www.w3.org/2000/svg" xmlns:xlink="http://www.w3.org/1999/xlink" x="0px" y="0px"
	 width="485.213px" height="485.212px" viewBox="0 0 485.213 485.212" style="enable-background:new 0 0 485.213 485.212;"
	 xml:space="preserve">
<g>
	<path d="M424.562,136.467v-45.49L333.587,0H60.652v136.467L0.001,181.955v303.257h485.211V181.955L424.562,136.467z
		 M424.562,174.374l17.772,13.327l-17.772,13.978V174.374z M303.256,30.327v90.978h90.98V225.49l-95.829,75.312l-55.8-47.833
		l-55.795,47.801l-95.834-75.28V30.327H303.256z M60.652,174.374v27.305l-17.768-13.978L60.652,174.374z M30.328,216.396
		L163.33,320.909L30.328,434.925V216.396z M53.637,454.886l188.97-161.99l188.975,161.99H53.637z M454.89,434.925L321.887,320.909
		L454.89,216.396V434.925z"/>
</g>
<g>
</g>
<g>
</g>
<g>
</g>
<g>
</g>
<g>
</g>
<g>
</g>
<g>
</g>
<g>
</g>
<g>
</g>
<g>
</g>
<g>
</g>
<g>
</g>
<g>
</g>
<g>
</g>
<g>
</g>
</svg>
