<?xml version="1.0" encoding="iso-8859-1"?>
<!-- Generator: Adobe Illustrator 16.0.0, SVG Export Plug-In . SVG Version: 6.00 Build 0)  -->
<!DOCTYPE svg PUBLIC "-//W3C//DTD SVG 1.1//EN" "http://www.w3.org/Graphics/SVG/1.1/DTD/svg11.dtd">
<svg version="1.1" id="Capa_1" xmlns="http://www.w3.org/2000/svg" xmlns:xlink="http://www.w3.org/1999/xlink" x="0px" y="0px"
	 width="512px" height="512px" viewBox="0 0 512 512" style="enable-background:new 0 0 512 512;" xml:space="preserve">
<g>
	<path d="M480,455.719L342.688,298.781L392.594,256h-49.155L256,330.938L56.562,160H256v-32H0v384h512V256h-32V455.719z M32,181.063
		L169.312,298.75L32,455.688V181.063z M53.25,480l140.375-160.406L256,373.062l62.406-53.469L458.75,480H53.25z M480,96
		c5.875-32.063-7.969-64.563-35.156-82.5c-27.188-18-62.5-18-89.688,0C327.969,31.438,314.125,63.938,320,96h-32v128h224V96H480z
		 M416,192h-32v-64h32V192z M448,96h-96c-5.969-20.438,1.688-42.406,19.031-54.75c17.344-12.313,40.594-12.313,57.938,0
		C446.312,53.594,453.969,75.563,448,96z"/>
</g>
<g>
</g>
<g>
</g>
<g>
</g>
<g>
</g>
<g>
</g>
<g>
</g>
<g>
</g>
<g>
</g>
<g>
</g>
<g>
</g>
<g>
</g>
<g>
</g>
<g>
</g>
<g>
</g>
<g>
</g>
</svg>
