<?xml version="1.0" encoding="iso-8859-1"?>
<!-- Generator: Adobe Illustrator 16.0.0, SVG Export Plug-In . SVG Version: 6.00 Build 0)  -->
<!DOCTYPE svg PUBLIC "-//W3C//DTD SVG 1.1//EN" "http://www.w3.org/Graphics/SVG/1.1/DTD/svg11.dtd">
<svg version="1.1" id="Capa_1" xmlns="http://www.w3.org/2000/svg" xmlns:xlink="http://www.w3.org/1999/xlink" x="0px" y="0px"
	 width="485.213px" height="485.212px" viewBox="0 0 485.213 485.212" style="enable-background:new 0 0 485.213 485.212;"
	 xml:space="preserve">
<g>
	<path d="M323.071,108.393c0,7.997-9.596,14.69-21.534,20.02c-11.934,5.391-28.604,8.529-58.931,9.477v13.74l0,0v-13.684
		c-60.651-1.538-67.967-10.272-76.941-26.178l37.315-4.648c4.088,10.009,17.74,15.016,40.867,15.016
		c10.809,0,18.836-1.066,23.928-3.199c5.092-2.163,7.701-4.737,7.701-7.759c0-3.144-2.432-5.54-7.523-7.168
		c-5.092-1.599-16.228-3.643-33.79-6.133c-15.784-2.191-27.69-4.352-36.576-6.513c-8.884-2.105-15.222-5.122-20.757-8.975
		c-5.538-3.85-6.543-8.352-6.543-13.446c0-6.751,8.557-12.792,18.449-18.183c9.892-5.357,23.546-8.646,53.87-9.831V30.327l0,0
		v10.601c60.648,1.542,60.116,8.828,69.562,21.798l-32.338,6.487c-7.729-8.917-19.63-13.357-35.804-13.357
		c-8.114,0-14.629,1.008-19.518,2.992c-4.915,1.983-7.372,4.41-7.372,7.255c0,2.873,2.369,5.094,7.105,6.632
		c4.711,1.542,14.87,3.438,30.39,5.745c17.058,2.49,30.443,4.858,40.127,7.052c9.712,2.22,17.441,5.27,23.242,9.183
		C323.781,98.62,323.071,103.18,323.071,108.393z M424.562,121.304c0,10.662-3.883,20.848-10.632,30.385
		c0.028-0.028,0.062-0.061,0.062-0.061c6.72,9.477,10.57,19.667,10.57,30.327v30.327c0,10.662-3.883,20.909-10.659,30.413
		c0.027-0.028,0.056-0.058,0.089-0.089c6.72,9.477,10.57,19.665,10.57,30.324v30.327c0,10.697-3.883,20.881-10.659,30.415
		c0.027-0.032,0.056-0.056,0.089-0.088c6.72,9.474,10.57,19.662,10.57,30.321v30.331c0,50.228-81.501,90.976-181.955,90.976
		c-100.482,0-181.956-40.748-181.956-90.976v-30.331c0-10.659,3.85-20.848,10.573-30.321c0,0.032,0.03,0.032,0.058,0.056
		c-6.781-9.502-10.631-19.719-10.631-30.383V272.93c0-10.659,3.85-20.848,10.573-30.324c0,0.031,0.03,0.061,0.058,0.061
		c-6.781-9.504-10.631-19.723-10.631-30.385v-30.327c0-10.66,3.85-20.85,10.573-30.327c0,0,0,0.033,0.03,0.033
		c-6.753-9.509-10.604-19.695-10.604-30.357V90.978C60.651,40.75,142.124,0,242.606,0c100.454,0,181.955,40.75,181.955,90.978
		V121.304z M409.398,363.906c0-6.034-2.161-12.199-5.866-18.234c0.088-0.089,0.145-0.21,0.242-0.298
		c-30.388,29.02-91.129,48.863-161.168,48.863c-69.745,0-130.247-19.639-160.779-48.453c0.028,0.065,0.061,0.089,0.117,0.154
		c-3.614,5.979-6.128,12.022-6.128,17.968c0,35.866,68.499,75.821,166.79,75.821C340.895,439.727,409.398,399.772,409.398,363.906z
		 M409.398,272.93c0-6.039-2.161-12.199-5.866-18.238c0.065-0.061,0.088-0.121,0.121-0.178
		c-30.443,28.964-91.125,48.743-161.047,48.743c-69.745,0-130.247-19.635-160.779-48.449c0.028,0.061,0.061,0.117,0.117,0.149
		c-3.614,5.979-6.128,12.022-6.128,17.973c0,35.867,68.499,75.817,166.79,75.817C340.895,348.748,409.398,308.797,409.398,272.93z
		 M409.398,181.955c0-6.039-2.161-12.2-5.866-18.244c0.032-0.061,0.032-0.061,0.065-0.088
		c-30.477,28.934-91.098,48.659-160.991,48.659c-69.685,0-130.158-19.606-160.723-48.393c0,0.061,0.033,0.061,0.061,0.088
		c-3.614,5.983-6.128,12.027-6.128,17.978c0,35.864,68.499,75.817,166.79,75.817C340.895,257.772,409.398,217.819,409.398,181.955z
		 M409.398,90.978c0-9.95-5.302-20.255-15.047-29.911c-25.318-25.053-80.787-45.903-151.745-45.903
		c-98.291,0-166.79,39.953-166.79,75.814c0,35.864,68.499,75.817,166.79,75.817C340.895,166.794,409.398,126.842,409.398,90.978z"/>
</g>
<g>
</g>
<g>
</g>
<g>
</g>
<g>
</g>
<g>
</g>
<g>
</g>
<g>
</g>
<g>
</g>
<g>
</g>
<g>
</g>
<g>
</g>
<g>
</g>
<g>
</g>
<g>
</g>
<g>
</g>
</svg>
