<?xml version="1.0" encoding="iso-8859-1"?>
<!-- Generator: Adobe Illustrator 16.0.0, SVG Export Plug-In . SVG Version: 6.00 Build 0)  -->
<!DOCTYPE svg PUBLIC "-//W3C//DTD SVG 1.1//EN" "http://www.w3.org/Graphics/SVG/1.1/DTD/svg11.dtd">
<svg version="1.1" id="Capa_1" xmlns="http://www.w3.org/2000/svg" xmlns:xlink="http://www.w3.org/1999/xlink" x="0px" y="0px"
	 width="485.212px" height="485.212px" viewBox="0 0 485.212 485.212" style="enable-background:new 0 0 485.212 485.212;"
	 xml:space="preserve">
<g>
	<path d="M318.421,106.141c8.378,0,15.163,6.779,15.163,15.161c0,8.384-6.785,15.166-15.163,15.166H166.793
		c-8.384,0-15.166-6.781-15.166-15.166c0-8.382,6.782-15.161,15.166-15.161H318.421z M454.887,396.277
		c0,81.768-64.564,88.936-152.932,88.936c-18.841,0-38.755-0.326-59.351-0.326c-20.615,0-40.513,0.326-59.365,0.326
		c-88.339,0-152.915-7.191-152.915-88.936c0-73.74,52.567-189.861,127.684-244.648h169.177
		C402.322,206.416,454.887,322.537,454.887,396.277z M424.56,396.277c0-61.951-43.833-162.671-107.679-214.322H168.303
		c-63.82,51.651-107.653,152.371-107.653,214.322c0,43.982,17.723,58.609,122.59,58.609c9.138,0,18.51-0.089,28.107-0.149
		c10.2-0.089,20.64-0.178,31.258-0.178c10.612,0,21.053,0.089,31.246,0.178c9.591,0.065,18.977,0.149,28.101,0.149
		C406.848,454.886,424.56,440.259,424.56,396.277z M121.303,6.902C127.137,1.983,134.317,0,142.3,0
		c32.856,0,79.13,33.467,99.031,33.467c0.443,0,0.859,0,1.274-0.03c0.415,0.03,0.828,0.03,1.271,0.03
		C263.78,33.467,310.072,0,342.91,0c7.967,0,15.163,1.986,20.997,6.902c30.327,25.585-36.721,84.075-36.721,84.075H158.009
		C158.009,90.978,90.976,32.487,121.303,6.902z M262.636,60.651h52.551c10.249-10.277,19.43-21.915,23.723-30.028
		c-12.11,1.743-30.476,10.305-44.271,16.701C283.148,52.714,272.6,57.629,262.636,60.651z M146.295,30.623
		c4.285,8.113,13.446,19.753,23.709,30.028h52.567c-9.964-3.022-20.509-7.937-32-13.327
		C176.785,40.928,158.425,32.371,146.295,30.623z"/>
</g>
<g>
</g>
<g>
</g>
<g>
</g>
<g>
</g>
<g>
</g>
<g>
</g>
<g>
</g>
<g>
</g>
<g>
</g>
<g>
</g>
<g>
</g>
<g>
</g>
<g>
</g>
<g>
</g>
<g>
</g>
</svg>
