<?xml version="1.0" encoding="iso-8859-1"?>
<!-- Generator: Adobe Illustrator 16.0.0, SVG Export Plug-In . SVG Version: 6.00 Build 0)  -->
<!DOCTYPE svg PUBLIC "-//W3C//DTD SVG 1.1//EN" "http://www.w3.org/Graphics/SVG/1.1/DTD/svg11.dtd">
<svg version="1.1" id="Capa_1" xmlns="http://www.w3.org/2000/svg" xmlns:xlink="http://www.w3.org/1999/xlink" x="0px" y="0px"
	 width="485.221px" height="485.221px" viewBox="0 0 485.221 485.221" style="enable-background:new 0 0 485.221 485.221;"
	 xml:space="preserve">
<g>
	<path d="M151.631,333.587v-60.653c0-16.759-13.579-30.322-30.327-30.322H60.654c-16.748,0-30.325,13.563-30.325,30.322v60.653
		c-16.748,0-30.326,13.562-30.326,30.327v90.976c0,16.769,13.579,30.331,30.326,30.331h121.302
		c16.748,0,30.327-13.572,30.327-30.331v-90.976C181.958,347.15,168.379,333.587,151.631,333.587z M106.144,424.568
		c0,8.377-6.781,15.163-15.163,15.163c-8.385,0-15.166-6.786-15.166-15.163v-30.327c0-8.377,6.781-15.163,15.166-15.163
		c8.382,0,15.163,6.786,15.163,15.163V424.568z M121.305,333.587H60.654v-60.653h60.651V333.587z M193.596,45.494
		c-8.366-14.512-3.391-33.05,11.107-41.402c14.512-8.41,33.05-3.437,41.43,11.075l0.504,0.891
		c5.152-9.42,14.804-16.052,26.294-16.052s21.146,6.632,26.304,16.052l0.5-0.891c8.382-14.512,26.919-19.485,41.435-11.075
		c14.514,8.352,19.484,26.89,11.103,41.402l-18.687,53.069H212.282L193.596,45.494z M348.753,136.471
		c0,4.208-3.412,7.579-7.584,7.579H204.703c-4.191,0-7.584-3.376-7.584-7.579c0-4.205,3.393-7.582,7.584-7.582h136.466
		C345.341,128.89,348.753,132.266,348.753,136.471z M348.753,113.729c0,4.205-3.412,7.58-7.584,7.58H204.703
		c-4.191,0-7.584-3.377-7.584-7.58c0-4.208,3.393-7.584,7.584-7.584h136.466C345.341,106.145,348.753,109.521,348.753,113.729z
		 M456.964,427.998c6.692-22.859,18.687-87.092-30.505-155.063c-32.222-44.538-36.958-15.158-92.874-121.3H212.282
		c-31.745,60.297-47,76.823-60.147,88.075c8.957,8.293,14.657,20.082,14.657,33.229v48.094
		c17.651,6.245,30.327,23.098,30.327,42.882v90.976c0,11.7-4.56,22.271-11.829,30.331h297.141c1.689-4.77,2.786-9.834,2.786-15.168
		C485.218,451.044,473.518,434.784,456.964,427.998z M427.851,419.471l-7.668,26.238c0,0-3.202-81.795-54.372-141.501
		c-48.985-57.125-50.349-122.247-50.349-122.247c30.327,55.291,46.078,70.689,64.41,85.647c7.229,5.891,12.919,10.539,22.006,23.093
		C442.808,347.239,433.684,399.603,427.851,419.471z"/>
</g>
<g>
</g>
<g>
</g>
<g>
</g>
<g>
</g>
<g>
</g>
<g>
</g>
<g>
</g>
<g>
</g>
<g>
</g>
<g>
</g>
<g>
</g>
<g>
</g>
<g>
</g>
<g>
</g>
<g>
</g>
</svg>
