<?xml version="1.0" encoding="iso-8859-1"?>
<!-- Generator: Adobe Illustrator 16.0.0, SVG Export Plug-In . SVG Version: 6.00 Build 0)  -->
<!DOCTYPE svg PUBLIC "-//W3C//DTD SVG 1.1//EN" "http://www.w3.org/Graphics/SVG/1.1/DTD/svg11.dtd">
<svg version="1.1" id="Capa_1" xmlns="http://www.w3.org/2000/svg" xmlns:xlink="http://www.w3.org/1999/xlink" x="0px" y="0px"
	 width="485.212px" height="485.212px" viewBox="0 0 485.212 485.212" style="enable-background:new 0 0 485.212 485.212;"
	 xml:space="preserve">
<g>
	<path d="M426.635,427.999c6.692-22.859,18.687-87.092-30.504-155.063c-32.222-44.538-36.964-15.158-92.87-121.3H181.956
		c-55.916,106.142-60.653,76.762-92.875,121.3c-49.158,67.972-37.196,132.204-30.487,155.063
		c-16.568,6.786-28.267,23.042-28.267,42.056c0,5.329,1.095,10.398,2.784,15.158h418.991c1.686-4.76,2.782-9.829,2.782-15.158
		C454.885,451.041,443.193,434.785,426.635,427.999z M397.526,419.472l-7.673,26.238c0,0-3.197-81.795-54.376-141.501
		c-48.977-57.125-50.349-122.25-50.349-122.25c30.331,55.291,46.087,70.692,64.42,85.65c7.225,5.891,12.909,10.539,22,23.093
		C412.479,347.24,403.36,399.604,397.526,419.472z M163.269,45.492c-8.368-14.51-3.393-33.048,11.105-41.399
		c14.496-8.412,33.05-3.437,41.43,11.075l0.52,0.891c5.139-9.42,14.792-16.052,26.283-16.052c11.49,0,21.146,6.632,26.28,16.048
		l0.522-0.887c8.378-14.512,26.92-19.487,41.425-11.075c14.515,8.352,19.494,26.89,11.112,41.402l-18.687,53.069H181.956
		L163.269,45.492z M318.419,136.47c0,4.205-3.402,7.582-7.584,7.582h-136.46c-4.191,0-7.584-3.376-7.584-7.582
		c0-4.203,3.393-7.579,7.584-7.579h136.46C315.017,128.891,318.419,132.267,318.419,136.47z M318.419,113.729
		c0,4.203-3.402,7.58-7.584,7.58h-136.46c-4.191,0-7.584-3.377-7.584-7.58c0-4.208,3.393-7.584,7.584-7.584h136.46
		C315.017,106.146,318.419,109.522,318.419,113.729z"/>
</g>
<g>
</g>
<g>
</g>
<g>
</g>
<g>
</g>
<g>
</g>
<g>
</g>
<g>
</g>
<g>
</g>
<g>
</g>
<g>
</g>
<g>
</g>
<g>
</g>
<g>
</g>
<g>
</g>
<g>
</g>
</svg>
