<?xml version="1.0" encoding="iso-8859-1"?>
<!-- Generator: Adobe Illustrator 16.0.0, SVG Export Plug-In . SVG Version: 6.00 Build 0)  -->
<!DOCTYPE svg PUBLIC "-//W3C//DTD SVG 1.1//EN" "http://www.w3.org/Graphics/SVG/1.1/DTD/svg11.dtd">
<svg version="1.1" id="Capa_1" xmlns="http://www.w3.org/2000/svg" xmlns:xlink="http://www.w3.org/1999/xlink" x="0px" y="0px"
	 width="485.213px" height="485.212px" viewBox="0 0 485.213 485.212" style="enable-background:new 0 0 485.213 485.212;"
	 xml:space="preserve">
<g>
	<path d="M288.098,0h-90.98C88.255,0,0.001,108.628,0.001,242.606c0,133.976,88.254,242.606,197.116,242.606h90.98
		c108.859,0,197.114-108.631,197.114-242.606C485.212,108.628,396.957,0,288.098,0z M463.267,181.955h-75.812
		c-2.189-10.424-4.947-20.493-8.2-30.327h75.514C458.175,161.404,460.956,171.531,463.267,181.955z M423.35,90.978
		c6.781,9.449,12.941,19.545,18.388,30.327h-74.57c-5.06-10.66-10.721-20.762-17.002-30.327H423.35z M352.896,30.327
		c15.812,7.579,30.564,17.831,43.917,30.324h-69.535v0.831c-10.902-11.847-22.658-22.446-35.512-31.155H352.896z M197.117,470.049
		c-100.333,0-181.955-102.022-181.955-227.443c0-125.418,81.622-227.443,181.955-227.443c100.338,0,181.96,102.025,181.96,227.443
		C379.077,368.027,297.455,470.049,197.117,470.049z M423.35,394.237h-73.181c6.277-9.567,11.938-19.662,16.998-30.331h74.57
		C436.291,374.687,430.131,384.787,423.35,394.237z M272.514,251.938c5.811,9.773,8.714,21.175,8.714,34.233
		c0,20.045-5.983,36.753-17.949,50.11c-11.935,13.385-29.17,21.258-51.707,23.629v34.326h-28.729v-34.148
		c-37.579-3.846-60.828-25.706-69.801-65.507l44.421-11.579c4.117,25.02,17.74,37.519,40.867,37.519
		c10.809,0,18.809-2.66,23.9-8.027c5.094-5.358,7.642-11.812,7.642-19.396c0-7.846-2.548-13.801-7.642-17.823
		c-5.092-4.061-16.435-9.186-33.998-15.402c-15.786-5.479-28.135-10.869-37.019-16.26c-8.884-5.33-16.108-12.82-21.648-22.448
		c-5.538-9.654-8.321-20.909-8.321-33.701c0-16.792,4.978-31.925,14.867-45.371c9.892-13.413,25.469-21.62,46.734-24.609V90.978
		h28.726v26.506c32.103,3.851,52.892,22.006,62.371,54.491l-39.596,16.23c-7.729-22.271-19.635-33.405-35.804-33.405
		c-8.114,0-14.629,2.485-19.518,7.46c-4.917,4.978-7.372,11.017-7.372,18.097c0,7.227,2.369,12.762,7.105,16.643
		c4.707,3.853,14.867,8.618,30.385,14.335c17.058,6.219,30.443,12.113,40.127,17.651
		C258.984,234.523,266.713,242.193,272.514,251.938z"/>
</g>
<g>
</g>
<g>
</g>
<g>
</g>
<g>
</g>
<g>
</g>
<g>
</g>
<g>
</g>
<g>
</g>
<g>
</g>
<g>
</g>
<g>
</g>
<g>
</g>
<g>
</g>
<g>
</g>
<g>
</g>
</svg>
