<?xml version="1.0" encoding="iso-8859-1"?>
<!-- Generator: Adobe Illustrator 16.0.0, SVG Export Plug-In . SVG Version: 6.00 Build 0)  -->
<!DOCTYPE svg PUBLIC "-//W3C//DTD SVG 1.1//EN" "http://www.w3.org/Graphics/SVG/1.1/DTD/svg11.dtd">
<svg version="1.1" id="Capa_1" xmlns="http://www.w3.org/2000/svg" xmlns:xlink="http://www.w3.org/1999/xlink" x="0px" y="0px"
	 width="512.006px" height="512.006px" viewBox="0 0 512.006 512.006" style="enable-background:new 0 0 512.006 512.006;"
	 xml:space="preserve">
<g>
	<path d="M256.003,448.005c0-12.594-6.266-23.063-16.078-31.906c9.797-8.938,16.078-19.5,16.078-32.094s-6.266-23.063-16.078-31.906
		c9.797-8.938,16.078-19.5,16.078-32.094c0-84-256-84-256,0c0,12.594,6.281,23.156,16.078,32.094
		c-9.812,8.844-16.078,19.313-16.078,31.906s6.281,23.156,16.078,32.094c-9.812,8.844-16.078,19.312-16.078,31.906
		c0,42.031,64.391,64,128,64S256.003,490.036,256.003,448.005z M128.003,480.005c-59.547,0-96-20.688-96-32
		c0-4,4.828-9.219,13.484-14.281c23.359,9.344,52.891,14.281,82.516,14.281s59.156-4.938,82.516-14.281
		c8.656,5.062,13.484,10.281,13.484,14.281C224.003,459.317,187.55,480.005,128.003,480.005z M128.003,416.005
		c-59.547,0-96-20.688-96-32c0-4,4.828-9.219,13.484-14.281c23.359,9.344,52.891,14.281,82.516,14.281s59.156-4.938,82.516-14.281
		c8.656,5.063,13.484,10.281,13.484,14.281C224.003,395.317,187.55,416.005,128.003,416.005z M128.003,352.005
		c-59.547,0-96-20.688-96-32c0-11.25,36.453-32,96-32s96,20.75,96,32C224.003,331.317,187.55,352.005,128.003,352.005z
		 M368.003,120.005c0,4.438-3.594,8-8,8h-144c-4.422,0-8-3.563-8-8c0-4.438,3.578-8,8-8h144
		C364.409,112.005,368.003,115.567,368.003,120.005z M368.003,144.005c0,4.438-3.594,8-8,8h-144c-4.422,0-8-3.563-8-8
		c0-4.438,3.578-8,8-8h144C364.409,136.005,368.003,139.567,368.003,144.005z M204.284,48.005
		c-8.828-15.312-3.578-34.875,11.719-43.688c15.313-8.875,34.875-3.625,43.719,11.688l0.531,0.938
		c5.438-9.938,15.625-16.938,27.75-16.938s22.312,7,27.75,16.938l0.531-0.938c8.844-15.312,28.406-20.562,43.719-11.688
		c15.312,8.813,20.562,28.375,11.719,43.688l-19.719,56h-128L204.284,48.005z M482.19,451.63
		c7.062-24.125,19.719-91.906-32.188-163.625c-34-47-39-16-98-128h-128c-26.391,50.125-41.953,71.531-54.172,84.188
		c55.438,7.938,102.172,32,102.172,75.813c0,11.469-3.562,22.188-10.625,32.031c7.062,9.812,10.625,20.5,10.625,31.969
		s-3.562,22.188-10.625,32.031c7.062,9.812,10.625,20.5,10.625,31.969c0,30.188-22.859,51.062-54.672,64h291.734
		c1.78-5.031,2.938-10.375,2.938-16C512.003,475.942,499.659,458.786,482.19,451.63z M451.472,442.63l-8.094,27.688
		c0,0-3.375-86.312-57.375-149.312c-51.688-60.281-53.125-129-53.125-129c32,58.344,48.625,74.594,67.969,90.375
		c7.625,6.219,13.625,11.125,23.219,24.375C467.253,366.412,457.628,421.661,451.472,442.63z"/>
</g>
<g>
</g>
<g>
</g>
<g>
</g>
<g>
</g>
<g>
</g>
<g>
</g>
<g>
</g>
<g>
</g>
<g>
</g>
<g>
</g>
<g>
</g>
<g>
</g>
<g>
</g>
<g>
</g>
<g>
</g>
</svg>
