<?xml version="1.0" encoding="iso-8859-1"?>
<!-- Generator: Adobe Illustrator 16.0.0, SVG Export Plug-In . SVG Version: 6.00 Build 0)  -->
<!DOCTYPE svg PUBLIC "-//W3C//DTD SVG 1.1//EN" "http://www.w3.org/Graphics/SVG/1.1/DTD/svg11.dtd">
<svg version="1.1" id="Capa_1" xmlns="http://www.w3.org/2000/svg" xmlns:xlink="http://www.w3.org/1999/xlink" x="0px" y="0px"
	 width="485.211px" height="485.211px" viewBox="0 0 485.211 485.211" style="enable-background:new 0 0 485.211 485.211;"
	 xml:space="preserve">
<g>
	<path d="M0,90.976v303.259h485.211V90.976H0z M454.889,303.256c-33.501,0-60.653,27.157-60.653,60.648H90.978
		c0-33.491-27.155-60.648-60.651-60.648V181.954c33.496,0,60.651-27.155,60.651-60.651h303.258
		c0,33.496,27.152,60.651,60.653,60.651V303.256z M333.586,242.604c0,50.258-40.725,90.979-90.979,90.979
		c-50.255,0-90.978-40.721-90.978-90.979c0-50.255,40.723-90.978,90.978-90.978C292.861,151.627,333.586,192.35,333.586,242.604z"/>
</g>
<g>
</g>
<g>
</g>
<g>
</g>
<g>
</g>
<g>
</g>
<g>
</g>
<g>
</g>
<g>
</g>
<g>
</g>
<g>
</g>
<g>
</g>
<g>
</g>
<g>
</g>
<g>
</g>
<g>
</g>
</svg>
