<?xml version="1.0" encoding="iso-8859-1"?>
<!-- Generator: Adobe Illustrator 19.0.0, SVG Export Plug-In . SVG Version: 6.00 Build 0)  -->
<svg xmlns="http://www.w3.org/2000/svg" xmlns:xlink="http://www.w3.org/1999/xlink" version="1.1" id="Layer_1" x="0px" y="0px" viewBox="0 0 512 512" style="enable-background:new 0 0 512 512;" xml:space="preserve">
<g>
	<g>
		<g>
			<path d="M329.237,213.419c-0.107,0.043-13.781,1.6-23.04-7.637c-9.259-9.259-7.659-22.891-7.637-23.04     c0.789-5.803-3.264-11.157-9.067-11.989c-5.803-0.832-11.221,3.221-12.075,9.045c-0.128,0.981-3.221,24.149,13.696,41.045     c12.203,12.203,27.648,13.995,35.669,13.995c3.115,0,5.099-0.277,5.376-0.299c5.781-0.832,9.792-6.165,9.003-11.989     C340.395,216.768,334.976,212.629,329.237,213.419z"/>
			<path d="M193.024,508.373c53.227-15.104,132.587-76.885,198.869-146.176c-135.467-3.243-209.003-16.021-228.779-19.968     C174.229,420.544,187.456,483.328,193.024,508.373z"/>
			<path d="M0,341.333C0,435.435,76.565,512,170.667,512c0.405,0,0.875-0.085,1.28-0.107     c-10.304-46.549-43.819-209.109-47.573-366.507C55.701,216.256,0,295.765,0,341.333z"/>
			<path d="M341.333,0c-45.568,0-125.099,55.723-195.947,124.395c0.427,66.496,6.699,134.912,14.72,195.84     c0.768,0,1.515-0.128,2.304,0.064c0.789,0.192,81.024,18.24,248.853,21.013C468.608,277.483,512,210.859,512,170.667     C512,76.565,435.435,0,341.333,0z M341.333,298.667c-70.592,0-128-57.408-128-128s57.408-128,128-128s128,57.408,128,128     S411.925,298.667,341.333,298.667z"/>
			<path d="M368.213,171.989c-5.141,2.816-7.019,9.237-4.224,14.4c2.773,5.163,9.259,7.104,14.421,4.352     c3.499-1.856,8.043-2.539,8.725-1.835c0.661,0.661,0,5.227-1.835,8.725c-2.795,5.163-0.896,11.605,4.267,14.421     c1.621,0.896,3.392,1.323,5.12,1.323c3.776,0,7.424-2.005,9.365-5.547c4.224-7.723,8.619-23.573-1.813-34.005     C391.787,163.371,375.936,167.744,368.213,171.989z"/>
			<path d="M304.213,107.989c-5.141,2.816-7.019,9.237-4.224,14.4s9.237,7.083,14.421,4.352c3.499-1.856,8.064-2.517,8.725-1.835     c0.661,0.683,0,5.227-1.835,8.725c-2.795,5.163-0.896,11.605,4.267,14.421c1.621,0.896,3.392,1.323,5.12,1.323     c3.776,0,7.424-2.005,9.365-5.547c4.224-7.723,8.619-23.573-1.813-34.005C327.787,99.371,311.936,103.744,304.213,107.989z"/>
		</g>
	</g>
</g>
<g>
</g>
<g>
</g>
<g>
</g>
<g>
</g>
<g>
</g>
<g>
</g>
<g>
</g>
<g>
</g>
<g>
</g>
<g>
</g>
<g>
</g>
<g>
</g>
<g>
</g>
<g>
</g>
<g>
</g>
</svg>
