<?xml version="1.0" encoding="iso-8859-1"?>
<!-- Generator: Adobe Illustrator 16.0.0, SVG Export Plug-In . SVG Version: 6.00 Build 0)  -->
<!DOCTYPE svg PUBLIC "-//W3C//DTD SVG 1.1//EN" "http://www.w3.org/Graphics/SVG/1.1/DTD/svg11.dtd">
<svg version="1.1" id="Capa_1" xmlns="http://www.w3.org/2000/svg" xmlns:xlink="http://www.w3.org/1999/xlink" x="0px" y="0px"
	 width="485.213px" height="485.212px" viewBox="0 0 485.213 485.212" style="enable-background:new 0 0 485.213 485.212;"
	 xml:space="preserve">
<g>
	<path d="M106.139,168.451v-31.984C106.139,61.215,167.354,0,242.606,0s136.47,61.215,136.47,136.467v31.984
		c-11.225,2.31-21.506,7.105-30.331,13.803v-45.787c0-58.52-47.618-106.141-106.139-106.141S136.465,77.947,136.465,136.467v45.787
		C127.642,175.557,117.379,170.761,106.139,168.451z M394.235,181.955v60.651v90.979c0,83.75-67.878,151.628-151.629,151.628
		S90.978,417.334,90.978,333.584v-90.979v-60.651c33.493,0,60.651,27.158,60.651,60.651h181.958
		C333.586,209.113,360.744,181.955,394.235,181.955z M272.933,333.584c0-16.765-13.562-30.327-30.326-30.327
		c-16.762,0-30.324,13.562-30.324,30.327c0,11.103,6.277,20.404,15.161,25.673v50.139c0,8.382,6.781,15.163,15.164,15.163
		c8.382,0,15.163-6.781,15.163-15.163v-50.139C266.656,353.989,272.933,344.687,272.933,333.584z"/>
</g>
<g>
</g>
<g>
</g>
<g>
</g>
<g>
</g>
<g>
</g>
<g>
</g>
<g>
</g>
<g>
</g>
<g>
</g>
<g>
</g>
<g>
</g>
<g>
</g>
<g>
</g>
<g>
</g>
<g>
</g>
</svg>
