<?xml version="1.0" encoding="iso-8859-1"?>
<!-- Generator: Adobe Illustrator 16.0.0, SVG Export Plug-In . SVG Version: 6.00 Build 0)  -->
<!DOCTYPE svg PUBLIC "-//W3C//DTD SVG 1.1//EN" "http://www.w3.org/Graphics/SVG/1.1/DTD/svg11.dtd">
<svg version="1.1" id="Capa_1" xmlns="http://www.w3.org/2000/svg" xmlns:xlink="http://www.w3.org/1999/xlink" x="0px" y="0px"
	 width="485.213px" height="485.212px" viewBox="0 0 485.213 485.212" style="enable-background:new 0 0 485.213 485.212;"
	 xml:space="preserve">
<g>
	<path d="M318.423,394.237c-8.382,0-15.168-6.785-15.168-15.163c0-8.382,6.786-15.168,15.168-15.168h45.485v-30.321h-45.485
		c-8.382,0-15.168-6.777-15.168-15.169c0-8.377,6.786-15.158,15.168-15.158h45.485V272.93h-45.485
		c-8.382,0-15.168-6.776-15.168-15.158s6.786-15.166,15.168-15.166h45.485v-30.324v-30.327c0-16.762-13.562-30.327-30.322-30.327
		h-15.163V75.816C318.423,34,284.424,0,242.606,0c-41.798,0-75.812,34-75.812,75.816v106.139h-15.166
		c-16.745,0-30.324,13.565-30.324,30.327v242.604c0,16.764,13.579,30.326,30.324,30.326h181.958
		c16.76,0,30.322-13.562,30.322-30.326v-60.649H318.423z M288.097,151.628h-15.164c-16.75,0-30.326,13.565-30.326,30.327h-45.49
		V75.816c0-25.085,20.407-45.49,45.49-45.49c25.081,0,45.49,20.404,45.49,45.49V151.628z"/>
</g>
<g>
</g>
<g>
</g>
<g>
</g>
<g>
</g>
<g>
</g>
<g>
</g>
<g>
</g>
<g>
</g>
<g>
</g>
<g>
</g>
<g>
</g>
<g>
</g>
<g>
</g>
<g>
</g>
<g>
</g>
</svg>
