<?xml version="1.0" encoding="iso-8859-1"?>
<!-- Generator: Adobe Illustrator 16.0.0, SVG Export Plug-In . SVG Version: 6.00 Build 0)  -->
<!DOCTYPE svg PUBLIC "-//W3C//DTD SVG 1.1//EN" "http://www.w3.org/Graphics/SVG/1.1/DTD/svg11.dtd">
<svg version="1.1" id="Capa_1" xmlns="http://www.w3.org/2000/svg" xmlns:xlink="http://www.w3.org/1999/xlink" x="0px" y="0px"
	 width="485.213px" height="485.212px" viewBox="0 0 485.213 485.212" style="enable-background:new 0 0 485.213 485.212;"
	 xml:space="preserve">
<g>
	<path d="M394.235,272.93h30.326c0-33.491-27.162-60.648-60.653-60.648v-90.978C363.908,54.315,309.598,0,242.606,0
		c-66.989,0-121.302,54.315-121.302,121.304v90.978c-33.498,0-60.653,27.158-60.653,60.648h30.327v151.629H60.651
		c0,33.5,27.155,60.653,60.653,60.653h242.604c33.491,0,60.653-27.153,60.653-60.653h-30.326V272.93z M272.933,424.559h-60.65
		l11.311-67.873c-6.751-5.568-11.311-13.684-11.311-23.102c0-16.765,13.562-30.327,30.324-30.327
		c16.764,0,30.326,13.562,30.326,30.327c0,9.418-4.56,17.533-11.312,23.102L272.933,424.559z M303.255,212.282h-121.3v-90.978
		c0-33.465,27.2-60.653,60.651-60.653c33.435,0,60.648,27.188,60.648,60.653V212.282z"/>
</g>
<g>
</g>
<g>
</g>
<g>
</g>
<g>
</g>
<g>
</g>
<g>
</g>
<g>
</g>
<g>
</g>
<g>
</g>
<g>
</g>
<g>
</g>
<g>
</g>
<g>
</g>
<g>
</g>
<g>
</g>
</svg>
