<?xml version="1.0" encoding="iso-8859-1"?>
<!-- Generator: Adobe Illustrator 16.0.0, SVG Export Plug-In . SVG Version: 6.00 Build 0)  -->
<!DOCTYPE svg PUBLIC "-//W3C//DTD SVG 1.1//EN" "http://www.w3.org/Graphics/SVG/1.1/DTD/svg11.dtd">
<svg version="1.1" id="Capa_1" xmlns="http://www.w3.org/2000/svg" xmlns:xlink="http://www.w3.org/1999/xlink" x="0px" y="0px"
	 width="418.188px" height="418.187px" viewBox="0 0 418.188 418.187" style="enable-background:new 0 0 418.188 418.187;"
	 xml:space="preserve">
<g>
	<g>
		<path d="M23.403,372.152c31.188,31.188,81.938,31.22,113.141,0l181.015-181c9.094-9,14.125-21.078,14.156-33.938
			c0.078-25.703-22.406-48.172-48.109-48.109c-12.858,0.031-24.922,5.063-33.983,14.219L91.278,281.652
			c-6.25,6.267-6.25,16.375,0,22.625s16.375,6.25,22.625,0l158.391-158.391c3.078-3.094,7.094-4.766,11.391-4.781
			c8.563,0,16.031,7.469,16.031,16.031c-0.016,4.297-1.688,8.313-4.734,11.328L113.903,349.527c-18.703,18.75-49.156,18.75-67.875,0
			c-18.719-18.688-18.719-49.156,0-67.875L249.669,78.011c31.188-31.188,81.953-31.188,113.141,0
			c31.188,31.188,31.188,81.953,0,113.141L204.418,349.527c-6.25,6.25-6.25,16.375,0,22.625c6.25,6.25,16.375,6.25,22.625,0
			l158.391-158.375c43.672-43.672,43.672-114.733,0-158.391c-43.656-43.672-114.719-43.672-158.391,0L23.403,259.027
			C-7.801,290.23-7.801,340.964,23.403,372.152z"/>
	</g>
</g>
<g>
</g>
<g>
</g>
<g>
</g>
<g>
</g>
<g>
</g>
<g>
</g>
<g>
</g>
<g>
</g>
<g>
</g>
<g>
</g>
<g>
</g>
<g>
</g>
<g>
</g>
<g>
</g>
<g>
</g>
</svg>
