<?xml version="1.0" encoding="iso-8859-1"?>
<!-- Generator: Adobe Illustrator 16.0.0, SVG Export Plug-In . SVG Version: 6.00 Build 0)  -->
<!DOCTYPE svg PUBLIC "-//W3C//DTD SVG 1.1//EN" "http://www.w3.org/Graphics/SVG/1.1/DTD/svg11.dtd">
<svg version="1.1" id="Capa_1" xmlns="http://www.w3.org/2000/svg" xmlns:xlink="http://www.w3.org/1999/xlink" x="0px" y="0px"
	 width="507.363px" height="507.363px" viewBox="0 0 507.363 507.363" style="enable-background:new 0 0 507.363 507.363;"
	 xml:space="preserve">
<g>
	<path d="M379.893,246.676l-46.25-12.688c-12.562-3.375-30.438,1.188-39.625,10.375l-16.719,16.75
		c-60.812-16.437-108.5-64.124-124.937-124.937l16.75-16.75c9.188-9.188,13.75-27.063,10.313-39.563l-12.563-46.281
		c-3.438-12.531-16.313-26.125-28.625-30.219l-5.281-1.781c-12.344-4.094-29.906,0.031-39.094,9.219L68.799,35.864
		c-4.469,4.438-7.313,17.156-7.313,17.25c-0.875,79.438,30.313,156.031,86.5,212.28c56.125,56.095,132.375,87.22,211.656,86.5
		c0.406,0.031,13.47-2.78,17.97-7.219l8.625-8.625l8.219,8.219v-0.03c0.062,0.062,0.062,0.125,0.156,0.188
		c16.469,16.031,23.062,39.844,17.188,62.125c-5.875,22.219-23.375,39.719-45.594,45.594c-22.25,5.875-46.063-0.75-62.281-17.375
		L191.487,322.364c-15.813-17.906-40.125-25.47-63.313-19.75c-23.25,5.719-41.188,23.655-46.906,46.875
		c-5.718,23.219,1.844,47.469,19.031,62.655l90.5,90.531c6.25,6.25,16.375,6.25,22.625,0s6.25-16.375,0-22.625l-91.188-91.188
		c-8.969-7.938-12.75-20.095-9.875-31.72c2.813-11.594,11.844-20.625,23.438-23.469c11.625-2.844,23.813,0.938,32.375,10.594
		l113,113c24.125,24.72,59.781,34.625,93.156,25.813c16.719-4.375,31.625-13.156,43.438-24.969
		c11.844-11.813,20.594-26.72,24.969-43.438c8.781-33.312-1.062-68.938-25.688-93l0.031-0.031l-9.25-9.25
		c5.312-9.53,7.219-22.25,4.062-31.905l-1.75-5.25C405.987,262.925,392.393,250.051,379.893,246.676z"/>
</g>
<g>
</g>
<g>
</g>
<g>
</g>
<g>
</g>
<g>
</g>
<g>
</g>
<g>
</g>
<g>
</g>
<g>
</g>
<g>
</g>
<g>
</g>
<g>
</g>
<g>
</g>
<g>
</g>
<g>
</g>
</svg>
