<?xml version="1.0" encoding="iso-8859-1"?>
<!-- Generator: Adobe Illustrator 16.0.0, SVG Export Plug-In . SVG Version: 6.00 Build 0)  -->
<!DOCTYPE svg PUBLIC "-//W3C//DTD SVG 1.1//EN" "http://www.w3.org/Graphics/SVG/1.1/DTD/svg11.dtd">
<svg version="1.1" id="Capa_1" xmlns="http://www.w3.org/2000/svg" xmlns:xlink="http://www.w3.org/1999/xlink" x="0px" y="0px"
	 width="512.015px" height="512.015px" viewBox="0 0 512.015 512.015" style="enable-background:new 0 0 512.015 512.015;"
	 xml:space="preserve">
<g>
	<path d="M462.504,468.219l-33.938,33.938c-6.062,6.03-23.812,9.843-24.344,9.843c-107.438,0.906-210.875-41.281-286.905-117.312
		C41.099,318.469-1.151,214.625,0.035,106.875c0-0.063,3.875-17.313,9.938-23.313l33.938-33.969
		c12.438-12.438,36.281-18.063,53-12.5l7.156,2.406c16.688,5.563,34.156,24,38.781,40.969l17.094,62.719
		c4.625,17-1.594,41.188-14.031,53.625L123.224,219.5c22.25,82.469,86.906,147.125,169.344,169.406l22.688-22.688
		c12.438-12.438,36.688-18.655,53.688-14.03l62.719,17.125c16.938,4.594,35.375,22.03,40.969,38.75l2.375,7.155
		C480.566,431.938,474.941,455.781,462.504,468.219z M480.004,96V32c0-17.688-14.312-32-32-32h-64c-17.688,0-32,14.313-32,32v64
		c-17.688,0-32,14.313-32,32v96c0,17.688,14.312,32,32,32h128c17.688,0,32-14.313,32-32v-96C512.004,110.313,497.691,96,480.004,96z
		 M384.004,32h64v64h-64V32z"/>
</g>
<g>
</g>
<g>
</g>
<g>
</g>
<g>
</g>
<g>
</g>
<g>
</g>
<g>
</g>
<g>
</g>
<g>
</g>
<g>
</g>
<g>
</g>
<g>
</g>
<g>
</g>
<g>
</g>
<g>
</g>
</svg>
