<?xml version="1.0" encoding="iso-8859-1"?>
<!-- Generator: Adobe Illustrator 16.0.0, SVG Export Plug-In . SVG Version: 6.00 Build 0)  -->
<!DOCTYPE svg PUBLIC "-//W3C//DTD SVG 1.1//EN" "http://www.w3.org/Graphics/SVG/1.1/DTD/svg11.dtd">
<svg version="1.1" id="Capa_1" xmlns="http://www.w3.org/2000/svg" xmlns:xlink="http://www.w3.org/1999/xlink" x="0px" y="0px"
	 width="485.212px" height="485.212px" viewBox="0 0 485.212 485.212" style="enable-background:new 0 0 485.212 485.212;"
	 xml:space="preserve">
<g>
	<path d="M394.234,0H151.627c-33.465,0-60.651,27.158-60.651,60.651H60.649c-16.762,0-30.324,13.565-30.324,30.327v60.651
		c0,16.764,13.562,30.327,30.324,30.327c-16.762,0-30.324,13.565-30.324,30.327v60.648c0,16.77,13.562,30.327,30.324,30.327
		c-16.762,0-30.324,13.562-30.324,30.327v60.652c0,16.76,13.562,30.322,30.324,30.322h30.327c0,33.5,27.188,60.653,60.651,60.653
		h242.607c33.519,0,60.653-27.153,60.653-60.653V60.651C454.887,27.158,427.752,0,394.234,0z M90.976,394.237H60.649v-60.652h30.327
		V394.237z M90.976,272.93H60.649v-60.648h30.327V272.93z M90.976,151.628H60.649V90.978h30.327V151.628z M338.676,300.028
		c-36.132,36.133-85.295,56.149-136.348,55.617c-0.059,0-8.235-1.834-11.075-4.736l-16.113-16.051
		c-5.862-5.922-8.529-17.235-5.923-25.113l1.186-3.439c2.606-7.874,11.374-16.162,19.368-18.355l29.734-8.116
		c8.053-2.189,19.545,0.77,25.409,6.692l10.781,10.721c39.031-10.543,69.651-41.169,80.26-80.225l-10.785-10.75
		c-5.862-5.895-8.821-17.385-6.632-25.44l8.116-29.706c2.193-8.025,10.421-16.762,18.359-19.427l3.375-1.125
		c7.938-2.634,19.251,0.028,25.118,5.923l16.105,16.08c2.848,2.873,4.621,11.285,4.621,11.551
		C394.705,215.036,374.688,264.049,338.676,300.028z"/>
</g>
<g>
</g>
<g>
</g>
<g>
</g>
<g>
</g>
<g>
</g>
<g>
</g>
<g>
</g>
<g>
</g>
<g>
</g>
<g>
</g>
<g>
</g>
<g>
</g>
<g>
</g>
<g>
</g>
<g>
</g>
</svg>
