<?xml version="1.0" encoding="UTF-8" standalone="no"?>
<!-- Generator: Adobe Illustrator 19.0.0, SVG Export Plug-In . SVG Version: 6.00 Build 0)  -->

<svg
   xmlns:dc="http://purl.org/dc/elements/1.1/"
   xmlns:cc="http://creativecommons.org/ns#"
   xmlns:rdf="http://www.w3.org/1999/02/22-rdf-syntax-ns#"
   xmlns:svg="http://www.w3.org/2000/svg"
   xmlns="http://www.w3.org/2000/svg"
   xmlns:sodipodi="http://sodipodi.sourceforge.net/DTD/sodipodi-0.dtd"
   xmlns:inkscape="http://www.inkscape.org/namespaces/inkscape"
   version="1.1"
   id="Layer_1"
   x="0px"
   y="0px"
   viewBox="0 0 503.467 503.467"
   style="enable-background:new 0 0 503.467 503.467;"
   xml:space="preserve"
   sodipodi:docname="power_shatuta.svg"
   inkscape:version="0.92.1 r15371"><metadata
     id="metadata4530"><rdf:RDF><cc:Work
         rdf:about=""><dc:format>image/svg+xml</dc:format><dc:type
           rdf:resource="http://purl.org/dc/dcmitype/StillImage" /><dc:title></dc:title></cc:Work></rdf:RDF></metadata><defs
     id="defs4528" /><sodipodi:namedview
     pagecolor="#ffffff"
     bordercolor="#666666"
     borderopacity="1"
     objecttolerance="10"
     gridtolerance="10"
     guidetolerance="10"
     inkscape:pageopacity="0"
     inkscape:pageshadow="2"
     inkscape:window-width="1920"
     inkscape:window-height="1017"
     id="namedview4526"
     showgrid="false"
     inkscape:zoom="1.6843209"
     inkscape:cx="251.73351"
     inkscape:cy="251.73351"
     inkscape:window-x="-8"
     inkscape:window-y="-8"
     inkscape:window-maximized="1"
     inkscape:current-layer="Layer_1" /><rect
     x="106.667"
     y="482.133"
     style="fill:#F2EDDA;"
     width="290.133"
     height="17.067"
     id="rect4485" /><g
     transform="translate(5 1)"
     id="g4491"><path
       style="fill:#AAB1BA;"
       d="M33.4,139.8H59h145.067V88.6L33.4,139.8z M451.533,139.8h-25.6H280.867V88.6L451.533,139.8z    M451.533,242.2h-25.6H280.867V191L451.533,242.2z M33.4,242.2H59h145.067V191L33.4,242.2z"
       id="path4487" /><path
       style="fill:#F2EDDA;"
       d="M204.067,191v-51.2V88.6l43.52-85.333L289.4,88.6V191l0,0v51.2l9.387,34.133l24.747,85.333   l34.133,119.467H135.8L204.067,242.2V191L204.067,191z"
       id="path4489" /></g><path
     style="fill:#51565F;"
     d="M396.8,503.467c-2.56,0-4.267-1.707-4.267-4.267v-12.8h-29.867l0,0H140.8l0,0h-29.867v12.8  c0,2.56-1.707,4.267-4.267,4.267s-4.267-1.707-4.267-4.267v-17.067c0-2.56,1.707-4.267,4.267-4.267h30.72l33.28-116.053l0,0  l23.893-85.333l0,0l8.533-28.16H68.267v25.6H89.6c2.56,0,4.267,1.707,4.267,4.267s-1.707,4.267-4.267,4.267H38.4  c-2.56,0-4.267-1.707-4.267-4.267s1.707-4.267,4.267-4.267h21.333v-25.6H38.4c-1.707,0-4.267-1.707-4.267-3.413  c0-1.707,0.853-4.267,3.413-5.12l145.067-42.667c2.56-0.853,4.267,0.853,5.12,2.56c0.853,2.56-0.853,4.267-2.56,5.12L68.267,238.933  H204.8v-93.867H68.267v25.6H89.6c2.56,0,4.267,1.707,4.267,4.267c0,2.56-1.707,4.267-4.267,4.267H38.4  c-2.56,0-4.267-1.707-4.267-4.267c0-2.56,1.707-4.267,4.267-4.267h21.333v-25.6H38.4c-1.707,0-4.267-1.707-4.267-3.413  c0-1.707,0.853-4.267,3.413-5.12l145.067-42.667c2.56-0.853,4.267,0.853,5.12,2.56c0.853,2.56-0.853,4.267-2.56,5.12L68.267,135.68  H204.8V89.6v-0.853v-0.853L248.32,2.56c0.853-1.707,1.707-2.56,3.413-2.56c1.707,0,3.413,0.853,3.413,2.56l40.96,83.627  l168.96,50.347c1.707,0.853,3.413,2.56,3.413,5.12c0,1.707-1.707,3.413-4.267,3.413H442.88v25.6h21.333  c2.56,0,4.267,1.707,4.267,4.267c0,2.56-1.707,4.267-4.267,4.267h-51.2c-2.56,0-4.267-1.707-4.267-4.267  c0-2.56,1.707-4.267,4.267-4.267h21.333v-25.6H320c-2.56,0-4.267-1.707-4.267-4.267c0-2.56,1.707-4.267,4.267-4.267h116.053  l-137.387-40.96v93.867l167.253,50.347c1.707,0.853,3.413,2.56,3.413,5.12c0,1.707-1.707,3.413-4.267,3.413h-21.333v25.6h21.333  c2.56,0,4.267,1.707,4.267,4.267c0,2.56-1.707,4.267-4.267,4.267h-51.2c-2.56,0-4.267-1.707-4.267-4.267  c0-2.56,1.707-4.267,4.267-4.267H435.2v-25.6H320c-2.56,0-4.267-1.707-4.267-4.267c0-2.56,1.707-4.267,4.267-4.267h116.053  l-137.387-40.96v45.227L332.8,362.666l0,0l33.28,116.053h30.72c2.56,0,4.267,1.707,4.267,4.267v17.067  C401.067,501.76,399.36,503.467,396.8,503.467z M146.773,477.867H348.16l-96.427-61.44l-68.267,43.52  c-1.707,0.853-4.267,0.853-5.973-1.707c-0.853-1.707-0.853-4.267,1.707-5.973l64.853-41.813l-66.56-41.813L146.773,477.867z   M180.053,360.96L355.84,472.747l-29.867-103.253L279.04,399.36c-1.707,0.853-4.267,0.853-5.973-1.707  c-0.853-1.707-0.853-4.267,1.707-5.973l46.08-29.013l-69.12-45.227l-40.107,26.453c-1.707,1.707-4.267,0.853-5.973-0.853  c-1.707-1.707-0.853-4.267,0.853-5.973l37.547-24.747l-41.813-28.16L180.053,360.96z M254.293,308.053l67.413,44.373L302.08,284.16  l-21.333,14.507c-1.707,1.707-4.267,0.853-5.973-0.853c-1.707-1.707-0.853-4.267,0.853-5.973l23.893-16.213l-8.533-30.72v-0.853  v-51.2l0,0V91.307l-37.547-76.8l-36.693,71.68h44.373c2.56,0,4.267,1.707,4.267,4.267c0,2.56-1.707,4.267-4.267,4.267h-46.933  v42.667h55.467c2.56,0,4.267,1.707,4.267,4.267c0,2.56-1.707,4.267-4.267,4.267h-55.467v42.667h55.467  c2.56,0,4.267,1.707,4.267,4.267s-1.707,4.267-4.267,4.267h-55.467v42.667h55.467c2.56,0,4.267,1.707,4.267,4.267  c0,2.56-1.707,4.267-4.267,4.267h-56.32l-7.68,28.16L254.293,308.053L254.293,308.053z"
     id="path4493" /><g
     id="g4495" /><g
     id="g4497" /><g
     id="g4499" /><g
     id="g4501" /><g
     id="g4503" /><g
     id="g4505" /><g
     id="g4507" /><g
     id="g4509" /><g
     id="g4511" /><g
     id="g4513" /><g
     id="g4515" /><g
     id="g4517" /><g
     id="g4519" /><g
     id="g4521" /><g
     id="g4523" /><path
     style="fill:#e7746f;fill-opacity:1;stroke:#e7746f;stroke-width:1.01645887px;stroke-linecap:butt;stroke-linejoin:miter;stroke-opacity:0.94117647"
     d="M 471.99949,256.49139 35.644126,257.09481 278.86849,476.7439 132.81316,290.88698 Z"
     id="path4544"
     inkscape:connector-curvature="0" /><path
     style="opacity:0;fill:#42291f;fill-opacity:1;stroke:#42291f;stroke-width:3.95292854;stroke-linecap:round;stroke-miterlimit:4;stroke-dasharray:none;stroke-opacity:1"
     d="m 113.63783,330.01431 -51.776292,-46.75475 14.783413,-0.29685 c 13.46257,-0.27033 14.894949,-0.39791 16.031779,-1.42787 1.696831,-1.53732 1.696921,-5.10619 1.68e-4,-6.64364 -1.120667,-1.01545 -2.424876,-1.14978 -12.764789,-1.31472 l -11.516591,-0.18371 v -5.82953 -5.82953 l 57.144692,-0.41436 c 31.42958,-0.2279 60.77589,-0.32722 65.21402,-0.22073 l 8.06932,0.19363 -3.72634,12.67674 c -2.04948,6.9722 -3.8218,12.77219 -3.93847,12.88887 -0.11667,0.11667 -13.8265,1.59192 -30.46628,3.27832 -16.63977,1.6864 -30.35313,3.15447 -30.47413,3.26238 -0.12101,0.1079 0.57573,1.2104 1.5483,2.44999 0.97256,1.23958 10.75647,13.69814 21.74202,27.68567 10.98555,13.98753 19.97373,25.86363 19.97373,26.39132 0,1.43963 -7.2971,26.84352 -7.71062,26.84352 -0.19671,0 -23.65698,-21.03963 -52.13393,-46.75475 z"
     id="path4546"
     inkscape:connector-curvature="0" /><path
     style="opacity:0;fill:#ff0000;fill-opacity:1;stroke:#42291f;stroke-width:3.95292854;stroke-linecap:round;stroke-miterlimit:4;stroke-dasharray:none;stroke-opacity:1"
     d="m 113.63783,330.01431 -51.776292,-46.75475 14.783413,-0.29685 c 13.46257,-0.27033 14.894949,-0.39791 16.031779,-1.42787 1.696831,-1.53732 1.696921,-5.10619 1.68e-4,-6.64364 -1.120667,-1.01545 -2.424876,-1.14978 -12.764789,-1.31472 l -11.516591,-0.18371 v -5.82953 -5.82953 l 57.144692,-0.41436 c 31.42958,-0.2279 60.77589,-0.32722 65.21402,-0.22073 l 8.06932,0.19363 -3.72634,12.67674 c -2.04948,6.9722 -3.8218,12.77219 -3.93847,12.88887 -0.11667,0.11667 -13.8265,1.59192 -30.46628,3.27832 -16.63977,1.6864 -30.35313,3.15447 -30.47413,3.26238 -0.12101,0.1079 0.57573,1.2104 1.5483,2.44999 0.97256,1.23958 10.75647,13.69814 21.74202,27.68567 10.98555,13.98753 19.97373,25.86363 19.97373,26.39132 0,1.43963 -7.2971,26.84352 -7.71062,26.84352 -0.19671,0 -23.65698,-21.03963 -52.13393,-46.75475 z"
     id="path4548"
     inkscape:connector-curvature="0" /><path
     style="opacity:0;fill:#ff0000;fill-opacity:1;stroke:#42291f;stroke-width:3.95292854;stroke-linecap:round;stroke-miterlimit:4;stroke-dasharray:none;stroke-opacity:1"
     d="m 113.63783,330.01431 -51.776292,-46.75475 14.783413,-0.29685 c 13.46257,-0.27033 14.894949,-0.39791 16.031779,-1.42787 1.696831,-1.53732 1.696921,-5.10619 1.68e-4,-6.64364 -1.120667,-1.01545 -2.424876,-1.14978 -12.764789,-1.31472 l -11.516591,-0.18371 v -5.82953 -5.82953 l 57.144692,-0.41436 c 31.42958,-0.2279 60.77589,-0.32722 65.21402,-0.22073 l 8.06932,0.19363 -3.72634,12.67674 c -2.04948,6.9722 -3.8218,12.77219 -3.93847,12.88887 -0.11667,0.11667 -13.8265,1.59192 -30.46628,3.27832 -16.63977,1.6864 -30.35313,3.15447 -30.47413,3.26238 -0.12101,0.1079 0.57573,1.2104 1.5483,2.44999 0.97256,1.23958 10.75647,13.69814 21.74202,27.68567 10.98555,13.98753 19.97373,25.86363 19.97373,26.39132 0,1.43963 -7.2971,26.84352 -7.71062,26.84352 -0.19671,0 -23.65698,-21.03963 -52.13393,-46.75475 z"
     id="path4550"
     inkscape:connector-curvature="0" /><path
     style="opacity:0;fill:#ff0000;fill-opacity:1;stroke:#42291f;stroke-width:3.95292854;stroke-linecap:round;stroke-miterlimit:4;stroke-dasharray:none;stroke-opacity:1"
     d="m 113.63783,330.01431 -51.776292,-46.75475 14.783413,-0.29685 c 13.46257,-0.27033 14.894949,-0.39791 16.031779,-1.42787 1.696831,-1.53732 1.696921,-5.10619 1.68e-4,-6.64364 -1.120667,-1.01545 -2.424876,-1.14978 -12.764789,-1.31472 l -11.516591,-0.18371 v -5.82953 -5.82953 l 57.144692,-0.41436 c 31.42958,-0.2279 60.77589,-0.32722 65.21402,-0.22073 l 8.06932,0.19363 -3.72634,12.67674 c -2.04948,6.9722 -3.8218,12.77219 -3.93847,12.88887 -0.11667,0.11667 -13.8265,1.59192 -30.46628,3.27832 -16.63977,1.6864 -30.35313,3.15447 -30.47413,3.26238 -0.12101,0.1079 0.57573,1.2104 1.5483,2.44999 0.97256,1.23958 10.75647,13.69814 21.74202,27.68567 10.98555,13.98753 19.97373,25.86363 19.97373,26.39132 0,1.43963 -7.2971,26.84352 -7.71062,26.84352 -0.19671,0 -23.65698,-21.03963 -52.13393,-46.75475 z"
     id="path4552"
     inkscape:connector-curvature="0" /><path
     style="opacity:0;fill:#ff0000;fill-opacity:1;stroke:#42291f;stroke-width:3.95292854;stroke-linecap:round;stroke-miterlimit:4;stroke-dasharray:none;stroke-opacity:1"
     d="m 113.63783,330.01431 -51.776292,-46.75475 14.783413,-0.29685 c 13.46257,-0.27033 14.894949,-0.39791 16.031779,-1.42787 1.696831,-1.53732 1.696921,-5.10619 1.68e-4,-6.64364 -1.120667,-1.01545 -2.424876,-1.14978 -12.764789,-1.31472 l -11.516591,-0.18371 v -5.82953 -5.82953 l 57.144692,-0.41436 c 31.42958,-0.2279 60.77589,-0.32722 65.21402,-0.22073 l 8.06932,0.19363 -3.72634,12.67674 c -2.04948,6.9722 -3.8218,12.77219 -3.93847,12.88887 -0.11667,0.11667 -13.8265,1.59192 -30.46628,3.27832 -16.63977,1.6864 -30.35313,3.15447 -30.47413,3.26238 -0.12101,0.1079 0.57573,1.2104 1.5483,2.44999 0.97256,1.23958 10.75647,13.69814 21.74202,27.68567 10.98555,13.98753 19.97373,25.86363 19.97373,26.39132 0,1.43963 -7.2971,26.84352 -7.71062,26.84352 -0.19671,0 -23.65698,-21.03963 -52.13393,-46.75475 z"
     id="path4554"
     inkscape:connector-curvature="0" /><path
     style="opacity:0;fill:#ff0000;fill-opacity:1;stroke:#42291f;stroke-width:3.95292854;stroke-linecap:round;stroke-miterlimit:4;stroke-dasharray:none;stroke-opacity:1"
     d="m 113.63783,330.01431 -51.776292,-46.75475 14.783413,-0.29685 c 13.46257,-0.27033 14.894949,-0.39791 16.031779,-1.42787 1.696831,-1.53732 1.696921,-5.10619 1.68e-4,-6.64364 -1.120667,-1.01545 -2.424876,-1.14978 -12.764789,-1.31472 l -11.516591,-0.18371 v -5.82953 -5.82953 l 57.144692,-0.41436 c 31.42958,-0.2279 60.77589,-0.32722 65.21402,-0.22073 l 8.06932,0.19363 -3.72634,12.67674 c -2.04948,6.9722 -3.8218,12.77219 -3.93847,12.88887 -0.11667,0.11667 -13.8265,1.59192 -30.46628,3.27832 -16.63977,1.6864 -30.35313,3.15447 -30.47413,3.26238 -0.12101,0.1079 0.57573,1.2104 1.5483,2.44999 0.97256,1.23958 10.75647,13.69814 21.74202,27.68567 10.98555,13.98753 19.97373,25.86363 19.97373,26.39132 0,1.43963 -7.2971,26.84352 -7.71062,26.84352 -0.19671,0 -23.65698,-21.03963 -52.13393,-46.75475 z"
     id="path4556"
     inkscape:connector-curvature="0" /><path
     style="opacity:0;fill:#ff0000;fill-opacity:1;stroke:#42291f;stroke-width:3.95292854;stroke-linecap:round;stroke-miterlimit:4;stroke-dasharray:none;stroke-opacity:1"
     d="m 113.63783,330.01431 -51.776292,-46.75475 14.783413,-0.29685 c 13.46257,-0.27033 14.894949,-0.39791 16.031779,-1.42787 1.696831,-1.53732 1.696921,-5.10619 1.68e-4,-6.64364 -1.120667,-1.01545 -2.424876,-1.14978 -12.764789,-1.31472 l -11.516591,-0.18371 v -5.82953 -5.82953 l 57.144692,-0.41436 c 31.42958,-0.2279 60.77589,-0.32722 65.21402,-0.22073 l 8.06932,0.19363 -3.72634,12.67674 c -2.04948,6.9722 -3.8218,12.77219 -3.93847,12.88887 -0.11667,0.11667 -13.8265,1.59192 -30.46628,3.27832 -16.63977,1.6864 -30.35313,3.15447 -30.47413,3.26238 -0.12101,0.1079 0.57573,1.2104 1.5483,2.44999 0.97256,1.23958 10.75647,13.69814 21.74202,27.68567 10.98555,13.98753 19.97373,25.86363 19.97373,26.39132 0,1.43963 -7.2971,26.84352 -7.71062,26.84352 -0.19671,0 -23.65698,-21.03963 -52.13393,-46.75475 z"
     id="path4558"
     inkscape:connector-curvature="0" /><path
     style="opacity:0;fill:#ff0000;fill-opacity:1;stroke:#42291f;stroke-width:7.74160147;stroke-linecap:round;stroke-miterlimit:4;stroke-dasharray:none;stroke-opacity:1"
     d="M 184.3554,380.2086 67.364561,300.84368 100.76834,300.33979 c 30.41928,-0.45888 33.6558,-0.67545 36.22452,-2.42377 3.83406,-2.60956 3.83427,-8.66762 3.8e-4,-11.2774 -2.5322,-1.7237 -5.47912,-1.95172 -28.84261,-2.2317 l -26.022251,-0.31185 v -9.89547 -9.89546 l 129.120971,-0.70337 c 71.01654,-0.38685 137.32583,-0.55545 147.35398,-0.37468 l 18.23299,0.32868 -8.41983,21.51842 c -4.63089,11.83512 -8.63553,21.68045 -8.89915,21.87851 -0.26362,0.19804 -31.24159,2.70224 -68.83992,5.56486 -37.5983,2.86261 -68.58424,5.35462 -68.85765,5.5378 -0.27343,0.18315 1.30089,2.05462 3.49845,4.15879 2.19755,2.10415 24.30473,23.25222 49.12707,46.99567 24.82233,23.74345 45.13153,43.90281 45.13153,44.79855 0,2.44373 -16.48813,45.56614 -17.42249,45.56614 -0.44448,0 -53.454,-35.7142 -117.79893,-79.36491 z"
     id="path4560"
     inkscape:connector-curvature="0" /></svg>