<?xml version="1.0" encoding="iso-8859-1"?>
<!-- Generator: Adobe Illustrator 16.0.0, SVG Export Plug-In . SVG Version: 6.00 Build 0)  -->
<!DOCTYPE svg PUBLIC "-//W3C//DTD SVG 1.1//EN" "http://www.w3.org/Graphics/SVG/1.1/DTD/svg11.dtd">
<svg version="1.1" id="Capa_1" xmlns="http://www.w3.org/2000/svg" xmlns:xlink="http://www.w3.org/1999/xlink" x="0px" y="0px"
	 width="479.219px" height="479.219px" viewBox="0 0 479.219 479.219" style="enable-background:new 0 0 479.219 479.219;"
	 xml:space="preserve">
<g>
	<g>
		<rect x="207.625" width="64" height="192"/>
		<g>
			<path d="M38.281,353.781l56.031-32.344c-7-15.345-11.375-31.938-13.156-49.438h-64.75
				C18.468,301.188,26.093,328.781,38.281,353.781z"/>
			<path d="M80.624,240c4.719-46.688,29.625-87.344,65.781-113.5l-32.344-56C58.842,107.938,21.623,169.531,16.623,240H80.624z"/>
			<path d="M174.5,400.75l-32.688,56.594c25.031,12.125,52.656,19.781,81.813,21.844v-64.812
				C206.187,412.625,189.843,407.625,174.5,400.75z"/>
			<path d="M146.687,385.031c-14-9.969-26.031-22.219-36.125-36.063l-56.25,32.47c16,23.53,36.375,43.78,59.938,59.719
				L146.687,385.031z"/>
		</g>
		<path d="M440.969,353.781c12.156-25.031,19.781-52.625,21.844-81.781H398c-1.75,17.406-6.75,33.781-13.625,49.125L440.969,353.781
			z"/>
		<path d="M368.656,348.969c-9.969,13.969-22.219,26-36.031,36.094l32.438,56.25c23.531-16,43.781-36.375,59.75-59.938
			L368.656,348.969z"/>
		<path d="M305.062,401.312c-15.344,7-31.938,11.375-49.438,13.156v64.75c29.188-2.062,56.781-9.688,81.781-21.875L305.062,401.312z
			"/>
		<path d="M398.625,240h64c-2.094-29.156-9.625-56.688-21.814-81.688l-55.688,32.156C392.156,205.844,396.875,222.438,398.625,240z"
			/>
		<path d="M369.031,162.813l55.906-32.25C408.938,107,388.781,86.5,365.219,70.5l-32.344,56.031
			C346.812,136.594,358.938,148.938,369.031,162.813z"/>
		<rect x="207.625" width="64" height="192"/>
	</g>
</g>
<g>
</g>
<g>
</g>
<g>
</g>
<g>
</g>
<g>
</g>
<g>
</g>
<g>
</g>
<g>
</g>
<g>
</g>
<g>
</g>
<g>
</g>
<g>
</g>
<g>
</g>
<g>
</g>
<g>
</g>
</svg>
