<?xml version="1.0" encoding="iso-8859-1"?>
<!-- Generator: Adobe Illustrator 16.0.0, SVG Export Plug-In . SVG Version: 6.00 Build 0)  -->
<!DOCTYPE svg PUBLIC "-//W3C//DTD SVG 1.1//EN" "http://www.w3.org/Graphics/SVG/1.1/DTD/svg11.dtd">
<svg version="1.1" id="Capa_1" xmlns="http://www.w3.org/2000/svg" xmlns:xlink="http://www.w3.org/1999/xlink" x="0px" y="0px"
	 width="485.229px" height="485.229px" viewBox="0 0 485.229 485.229" style="enable-background:new 0 0 485.229 485.229;"
	 xml:space="preserve">
<g>
	<path d="M242.606,0.008C108.614,0.008,0,108.637,0,242.614C0,376.59,108.614,485.221,242.606,485.221
		c133.996,0,242.622-108.631,242.622-242.606C485.229,108.637,376.603,0.008,242.606,0.008z M242.606,454.895
		c-117.055,0-212.28-95.241-212.28-212.28c0-117.038,95.225-212.279,212.28-212.279c117.05,0,212.296,95.241,212.296,212.279
		C454.902,359.653,359.656,454.895,242.606,454.895z M257.77,212.29h-30.327V90.986h30.327V212.29z M363.927,242.614
		c0,66.934-54.432,121.3-121.32,121.3s-121.305-54.366-121.305-121.3c0-50.698,31.526-93.643,75.814-111.708v33.528
		c-27.083,15.753-45.488,44.657-45.488,78.18c0,50.169,40.811,90.979,90.978,90.979c50.181,0,90.989-40.81,90.989-90.979
		c0-33.465-18.421-62.427-45.49-78.18v-33.528C332.41,148.972,363.927,191.916,363.927,242.614z"/>
</g>
<g>
</g>
<g>
</g>
<g>
</g>
<g>
</g>
<g>
</g>
<g>
</g>
<g>
</g>
<g>
</g>
<g>
</g>
<g>
</g>
<g>
</g>
<g>
</g>
<g>
</g>
<g>
</g>
<g>
</g>
</svg>
