<?xml version="1.0" encoding="iso-8859-1"?>
<!-- Generator: Adobe Illustrator 16.0.0, SVG Export Plug-In . SVG Version: 6.00 Build 0)  -->
<!DOCTYPE svg PUBLIC "-//W3C//DTD SVG 1.1//EN" "http://www.w3.org/Graphics/SVG/1.1/DTD/svg11.dtd">
<svg version="1.1" id="Capa_1" xmlns="http://www.w3.org/2000/svg" xmlns:xlink="http://www.w3.org/1999/xlink" x="0px" y="0px"
	 width="424.56px" height="424.56px" viewBox="0 0 424.56 424.56" style="enable-background:new 0 0 424.56 424.56;"
	 xml:space="preserve">
<g>
	<path d="M409.388,227.445c0,108.687-88.432,197.114-197.1,197.114c-108.689,0-197.117-88.432-197.117-197.114
		c0-56.21,24.105-109.931,66.144-147.305c6.25-5.57,15.859-5.038,21.413,1.241c5.568,6.277,5.003,15.817-1.246,21.382
		C65.9,134.454,45.493,179.881,45.493,227.445c0,91.983,74.825,166.787,166.795,166.787c91.969,0,166.778-74.804,166.778-166.787
		c0-47.564-20.382-92.992-55.917-124.62c-6.277-5.568-6.865-15.164-1.297-21.385c5.623-6.338,15.219-6.87,21.436-1.3
		C385.287,117.515,409.388,171.235,409.388,227.445z M212.288,181.955c8.382,0,15.163-6.753,15.163-15.163V15.163
		C227.451,6.812,220.67,0,212.288,0c-8.382,0-15.166,6.814-15.166,15.163v151.629C197.122,175.202,203.906,181.955,212.288,181.955z
		"/>
</g>
<g>
</g>
<g>
</g>
<g>
</g>
<g>
</g>
<g>
</g>
<g>
</g>
<g>
</g>
<g>
</g>
<g>
</g>
<g>
</g>
<g>
</g>
<g>
</g>
<g>
</g>
<g>
</g>
<g>
</g>
</svg>
