<?xml version="1.0" encoding="iso-8859-1"?>
<!-- Generator: Adobe Illustrator 16.0.0, SVG Export Plug-In . SVG Version: 6.00 Build 0)  -->
<!DOCTYPE svg PUBLIC "-//W3C//DTD SVG 1.1//EN" "http://www.w3.org/Graphics/SVG/1.1/DTD/svg11.dtd">
<svg version="1.1" id="Capa_1" xmlns="http://www.w3.org/2000/svg" xmlns:xlink="http://www.w3.org/1999/xlink" x="0px" y="0px"
	 width="454.886px" height="454.886px" viewBox="0 0 454.886 454.886" style="enable-background:new 0 0 454.886 454.886;"
	 xml:space="preserve">
<g>
	<g>
		<path d="M378.51,227.443h60.658c-1.992-27.631-9.124-53.72-20.68-77.413l-52.771,30.474
			C372.383,195.072,376.854,210.803,378.51,227.443z"/>
		<path d="M350.471,154.293l52.976-30.56c-15.158-22.33-34.266-41.759-56.593-56.92l-30.653,53.098
			C329.413,129.446,340.904,141.146,350.471,154.293z"/>
		<path d="M377.918,257.767c-7.729,76.41-71.663,136.466-150.087,136.466c-83.604,0-151.631-68.022-151.631-151.624
			c0-50.586,25.114-95.125,63.288-122.728l-30.651-53.067C52.569,104.986,15.55,169.459,15.55,242.609
			c0,117.246,95.063,212.277,212.28,212.277c112.126,0,203.723-86.98,211.507-197.119H377.918z"/>
		<rect x="197.505" width="60.65" height="181.956"/>
	</g>
</g>
<g>
</g>
<g>
</g>
<g>
</g>
<g>
</g>
<g>
</g>
<g>
</g>
<g>
</g>
<g>
</g>
<g>
</g>
<g>
</g>
<g>
</g>
<g>
</g>
<g>
</g>
<g>
</g>
<g>
</g>
</svg>
