<?xml version="1.0" encoding="iso-8859-1"?>
<!-- Generator: Adobe Illustrator 16.0.0, SVG Export Plug-In . SVG Version: 6.00 Build 0)  -->
<!DOCTYPE svg PUBLIC "-//W3C//DTD SVG 1.1//EN" "http://www.w3.org/Graphics/SVG/1.1/DTD/svg11.dtd">
<svg version="1.1" id="Capa_1" xmlns="http://www.w3.org/2000/svg" xmlns:xlink="http://www.w3.org/1999/xlink" x="0px" y="0px"
	 width="454.887px" height="454.886px" viewBox="0 0 454.887 454.886" style="enable-background:new 0 0 454.887 454.886;"
	 xml:space="preserve">
<g>
	<path d="M439.731,242.609c0,117.036-95.246,212.277-212.296,212.277c-117.055,0-212.28-95.241-212.28-212.277
		c0-84.462,49.709-157.318,121.302-191.493v70.956c-36.604,27.722-60.651,71.196-60.651,120.537
		c0,83.629,68.025,151.624,151.629,151.624c83.592,0,151.643-67.995,151.643-151.624c0-49.34-24.045-92.814-60.653-120.537V51.116
		C389.976,85.291,439.731,158.146,439.731,242.609z M257.776,0h-60.668v181.956h60.668V0z"/>
</g>
<g>
</g>
<g>
</g>
<g>
</g>
<g>
</g>
<g>
</g>
<g>
</g>
<g>
</g>
<g>
</g>
<g>
</g>
<g>
</g>
<g>
</g>
<g>
</g>
<g>
</g>
<g>
</g>
<g>
</g>
</svg>
