<?xml version="1.0" encoding="iso-8859-1"?>
<!-- Generator: Adobe Illustrator 16.0.0, SVG Export Plug-In . SVG Version: 6.00 Build 0)  -->
<!DOCTYPE svg PUBLIC "-//W3C//DTD SVG 1.1//EN" "http://www.w3.org/Graphics/SVG/1.1/DTD/svg11.dtd">
<svg version="1.1" id="Capa_1" xmlns="http://www.w3.org/2000/svg" xmlns:xlink="http://www.w3.org/1999/xlink" x="0px" y="0px"
	 width="454.144px" height="454.144px" viewBox="0 0 454.144 454.144" style="enable-background:new 0 0 454.144 454.144;"
	 xml:space="preserve">
<g>
	<g>
		<path d="M138.744,119.881l-30.651-53.067c-22.33,15.161-41.313,34.651-56.388,57.036l52.685,30.416
			C113.955,141.086,125.536,129.446,138.744,119.881z"/>
		<path d="M89.079,180.416l-52.479-30.327c-11.458,23.723-18.893,49.756-20.846,77.354h60.648
			C78.065,210.831,82.445,195.016,89.079,180.416z"/>
		<path d="M76.907,257.767h-61.36c1.956,27.662,9.181,53.812,20.731,77.502l53.1-30.653
			C82.741,290.078,78.597,274.359,76.907,257.767z"/>
		<path d="M134.392,433.417c23.718,11.49,49.9,18.743,77.532,20.703v-61.428c-16.528-1.652-32.012-6.398-46.557-12.909
			L134.392,433.417z"/>
		<path d="M104.777,330.709l-53.31,30.774c15.164,22.295,34.473,41.49,56.803,56.593l30.742-53.186
			C125.744,355.44,114.342,343.829,104.777,330.709z"/>
		<path d="M377.178,257.767c-1.661,16.494-6.398,32.017-12.918,46.56l53.639,30.942c11.519-23.723,18.743-49.872,20.698-77.502
			H377.178z"/>
		<path d="M315.218,364.915l30.742,53.308c22.3-15.159,41.49-34.472,56.626-56.804l-53.219-30.709
			C339.916,343.95,328.313,355.351,315.218,364.915z"/>
		<path d="M242.248,392.782v61.362c27.657-1.951,53.807-9.176,77.506-20.727l-30.653-53.102
			C274.559,386.948,258.835,391.097,242.248,392.782z"/>
		<path d="M377.766,227.443h60.654c-1.984-27.629-9.12-53.72-20.676-77.413l-52.775,30.474
			C371.634,195.077,376.104,210.798,377.766,227.443z"/>
		<path d="M349.722,154.293l52.985-30.56c-15.168-22.334-34.271-41.759-56.603-56.925l-30.644,53.103
			C328.668,129.446,340.159,141.146,349.722,154.293z"/>
		<rect x="196.763" width="60.645" height="181.956"/>
	</g>
</g>
<g>
</g>
<g>
</g>
<g>
</g>
<g>
</g>
<g>
</g>
<g>
</g>
<g>
</g>
<g>
</g>
<g>
</g>
<g>
</g>
<g>
</g>
<g>
</g>
<g>
</g>
<g>
</g>
<g>
</g>
</svg>
