<?xml version="1.0" encoding="iso-8859-1"?>
<!-- Generator: Adobe Illustrator 16.0.0, SVG Export Plug-In . SVG Version: 6.00 Build 0)  -->
<!DOCTYPE svg PUBLIC "-//W3C//DTD SVG 1.1//EN" "http://www.w3.org/Graphics/SVG/1.1/DTD/svg11.dtd">
<svg version="1.1" id="Capa_1" xmlns="http://www.w3.org/2000/svg" xmlns:xlink="http://www.w3.org/1999/xlink" x="0px" y="0px"
	 width="485.212px" height="485.212px" viewBox="0 0 485.212 485.212" style="enable-background:new 0 0 485.212 485.212;"
	 xml:space="preserve">
<g>
	<path d="M30.325,0v409.396c0,41.821,33.997,75.816,75.812,75.816c17.061,0,32.814-5.656,45.49-15.195
		c12.676,9.539,28.432,15.195,45.488,15.195c17.061,0,32.814-5.656,45.49-15.195c12.676,9.539,28.432,15.195,45.49,15.195
		c17.053,0,32.813-5.656,45.489-15.195c12.676,9.539,28.428,15.195,45.49,15.195c41.812,0,75.812-33.995,75.812-75.816V0H30.325z
		 M424.56,409.396c0,25.118-20.376,45.49-45.485,45.49c-25.118,0-45.49-20.372-45.49-45.49c0,25.118-20.376,45.49-45.489,45.49
		c-25.114,0-45.49-20.372-45.49-45.49c0,25.118-20.376,45.49-45.49,45.49c-25.113,0-45.488-20.372-45.488-45.49
		c0,25.118-20.376,45.49-45.49,45.49c-25.114,0-45.488-20.372-45.488-45.49V30.327H424.56V409.396z M333.584,121.304H151.627V60.651
		h181.958V121.304z M394.234,212.282H90.976v-30.327h303.258V212.282z M394.234,272.93H90.976v-30.324h303.258V272.93z
		 M394.234,333.584H90.976v-30.327h303.258V333.584z"/>
</g>
<g>
</g>
<g>
</g>
<g>
</g>
<g>
</g>
<g>
</g>
<g>
</g>
<g>
</g>
<g>
</g>
<g>
</g>
<g>
</g>
<g>
</g>
<g>
</g>
<g>
</g>
<g>
</g>
<g>
</g>
</svg>
