<?xml version="1.0" encoding="iso-8859-1"?>
<!-- Generator: Adobe Illustrator 16.0.0, SVG Export Plug-In . SVG Version: 6.00 Build 0)  -->
<!DOCTYPE svg PUBLIC "-//W3C//DTD SVG 1.1//EN" "http://www.w3.org/Graphics/SVG/1.1/DTD/svg11.dtd">
<svg version="1.1" id="Capa_1" xmlns="http://www.w3.org/2000/svg" xmlns:xlink="http://www.w3.org/1999/xlink" x="0px" y="0px"
	 width="485.213px" height="485.212px" viewBox="0 0 485.213 485.212" style="enable-background:new 0 0 485.213 485.212;"
	 xml:space="preserve">
<g>
	<path d="M379.07,0v60.651h-30.321V0h-90.98v60.651h-30.327V0h-90.976v60.651H106.14V0H15.162v485.212h90.978v-60.653h30.327v60.653
		h90.976v-60.653h30.327v60.653h90.98v-60.653h30.321v60.653h90.98V0H379.07z M439.724,454.886h-30.331v-60.649h-90.976v60.649
		h-30.322v-60.649h-90.979v60.649h-30.327v-60.649H75.811v60.649H45.489V30.327h30.322v60.651h90.978V30.327h30.327v60.651h90.979
		V30.327h30.322v60.651h90.976V30.327h30.331V454.886z M106.14,151.628h303.253v30.327H106.14V151.628z M106.14,212.282h303.253
		v30.324H106.14V212.282z M106.14,272.93h151.629v30.327H106.14V272.93z"/>
</g>
<g>
</g>
<g>
</g>
<g>
</g>
<g>
</g>
<g>
</g>
<g>
</g>
<g>
</g>
<g>
</g>
<g>
</g>
<g>
</g>
<g>
</g>
<g>
</g>
<g>
</g>
<g>
</g>
<g>
</g>
</svg>
