<?xml version="1.0" encoding="iso-8859-1"?>
<!-- Generator: Adobe Illustrator 16.0.0, SVG Export Plug-In . SVG Version: 6.00 Build 0)  -->
<!DOCTYPE svg PUBLIC "-//W3C//DTD SVG 1.1//EN" "http://www.w3.org/Graphics/SVG/1.1/DTD/svg11.dtd">
<svg version="1.1" id="Capa_1" xmlns="http://www.w3.org/2000/svg" xmlns:xlink="http://www.w3.org/1999/xlink" x="0px" y="0px"
	 width="485.213px" height="485.212px" viewBox="0 0 485.213 485.212" style="enable-background:new 0 0 485.213 485.212;"
	 xml:space="preserve">
<g>
	<path d="M166.793,212.282h151.628v30.324H166.793V212.282z M166.793,303.257h151.628V272.93H166.793V303.257z M166.793,181.955
		h151.628v-30.327H166.793V181.955z M409.397,0v485.212h-90.976v-60.653H288.1v60.653H197.12v-60.653h-30.327v60.653H75.815V0
		h90.978v60.651h30.327V0H288.1v60.651h30.322V0H409.397z M379.075,30.327h-30.321v60.651h-90.98V30.327h-30.327v60.651h-90.976
		V30.327h-30.327v424.56h30.327v-60.649h90.976v60.649h30.327v-60.649h90.98v60.649h30.321V30.327z"/>
</g>
<g>
</g>
<g>
</g>
<g>
</g>
<g>
</g>
<g>
</g>
<g>
</g>
<g>
</g>
<g>
</g>
<g>
</g>
<g>
</g>
<g>
</g>
<g>
</g>
<g>
</g>
<g>
</g>
<g>
</g>
</svg>
