<?xml version="1.0" encoding="iso-8859-1"?>
<!-- Generator: Adobe Illustrator 19.1.0, SVG Export Plug-In . SVG Version: 6.00 Build 0)  -->
<svg version="1.1" id="Capa_1" xmlns="http://www.w3.org/2000/svg" xmlns:xlink="http://www.w3.org/1999/xlink" x="0px" y="0px"
	 viewBox="0 0 399.109 399.109" style="enable-background:new 0 0 399.109 399.109;" xml:space="preserve">
<g>
	<g>
		<path style="fill:#222222;" d="M349.555,229h-37.5c-5.522,0-10.5,4.29-10.5,9.812v0.297c0,56.519-45.731,102.5-102.25,102.5
			S96.93,295.628,96.93,239.109c0-46.017,31.017-86.663,75.337-98.842c1.671-0.459,3.227-1.346,4.453-2.571l19.828-19.812
			c3.904-3.904,3.913-10.234,0.011-14.14l-18.887-18.906c-2.354-2.355-5.722-3.386-8.992-2.746
			C93.859,96.724,39.554,162.76,39.554,239.109c0,88.225,71.776,160,160,160c88.225,0,160-71.775,160-160v-0.297
			C359.555,233.29,355.078,229,349.555,229z"/>
		<path style="fill:#222222;" d="M226.819,110.812l-63.491,63.491c-3.904,3.905-3.905,10.235-0.001,14.141l30.234,30.25
			c1.875,1.876,4.419,2.931,7.072,2.931c0,0,0,0,0.001,0c2.652,0,5.196-1.054,7.071-2.93l100.797-100.812
			c3.905-3.905,3.905-10.236,0-14.141L207.705,2.93C205.83,1.054,203.285,0,200.632,0s-5.197,1.055-7.072,2.931l-30.234,30.25
			c-3.904,3.906-3.903,10.236,0.001,14.141L226.819,110.812z"/>
	</g>
	<g>
	</g>
	<g>
	</g>
	<g>
	</g>
	<g>
	</g>
	<g>
	</g>
	<g>
	</g>
	<g>
	</g>
	<g>
	</g>
	<g>
	</g>
	<g>
	</g>
	<g>
	</g>
	<g>
	</g>
	<g>
	</g>
	<g>
	</g>
	<g>
	</g>
</g>
<g>
</g>
<g>
</g>
<g>
</g>
<g>
</g>
<g>
</g>
<g>
</g>
<g>
</g>
<g>
</g>
<g>
</g>
<g>
</g>
<g>
</g>
<g>
</g>
<g>
</g>
<g>
</g>
<g>
</g>
</svg>
