<?xml version="1.0" encoding="iso-8859-1"?>
<!-- Generator: Adobe Illustrator 16.0.0, SVG Export Plug-In . SVG Version: 6.00 Build 0)  -->
<!DOCTYPE svg PUBLIC "-//W3C//DTD SVG 1.1//EN" "http://www.w3.org/Graphics/SVG/1.1/DTD/svg11.dtd">
<svg version="1.1" id="Capa_1" xmlns="http://www.w3.org/2000/svg" xmlns:xlink="http://www.w3.org/1999/xlink" x="0px" y="0px"
	 width="485.213px" height="485.212px" viewBox="0 0 485.213 485.212" style="enable-background:new 0 0 485.213 485.212;"
	 xml:space="preserve">
<g>
	<path d="M181.956,181.955h-60.651L242.607,60.651l121.302,121.304h-60.653v121.302h-121.3V181.955z M485.212,303.257v181.955H0.001
		V303.257l60.651-121.302V0h272.935l90.976,90.978v90.978L485.212,303.257z M424.562,303.257h26.742l-26.742-53.48V303.257z
		 M90.979,303.257h30.311l60.667,90.979h121.3l60.653-90.979h30.327v-90.976V103.537l-73.213-73.21H90.979v181.955V303.257z
		 M33.91,303.257h26.742v-53.48L33.91,303.257z M454.89,333.584h-74.748l-60.653,90.975H165.727l-60.667-90.975H30.328v121.302
		H454.89V333.584z"/>
</g>
<g>
</g>
<g>
</g>
<g>
</g>
<g>
</g>
<g>
</g>
<g>
</g>
<g>
</g>
<g>
</g>
<g>
</g>
<g>
</g>
<g>
</g>
<g>
</g>
<g>
</g>
<g>
</g>
<g>
</g>
</svg>
