<?xml version="1.0" encoding="iso-8859-1"?>
<!-- Generator: Adobe Illustrator 16.0.0, SVG Export Plug-In . SVG Version: 6.00 Build 0)  -->
<!DOCTYPE svg PUBLIC "-//W3C//DTD SVG 1.1//EN" "http://www.w3.org/Graphics/SVG/1.1/DTD/svg11.dtd">
<svg version="1.1" id="Capa_1" xmlns="http://www.w3.org/2000/svg" xmlns:xlink="http://www.w3.org/1999/xlink" x="0px" y="0px"
	 width="485.212px" height="485.212px" viewBox="0 0 485.212 485.212" style="enable-background:new 0 0 485.212 485.212;"
	 xml:space="preserve">
<g>
	<g>
		<polygon points="85.744,90.978 0.008,90.978 0.008,121.304 65.9,121.304 172.055,363.906 424.551,363.906 424.551,333.584 
			191.899,333.584 		"/>
		<path d="M227.437,394.237c-25.113,0-45.49,20.372-45.49,45.49c0,25.109,20.376,45.485,45.49,45.485
			c25.114,0,45.49-20.376,45.49-45.485C272.927,414.609,252.551,394.237,227.437,394.237z"/>
		<path d="M379.065,394.237c-25.113,0-45.49,20.372-45.49,45.49c0,25.109,20.377,45.485,45.49,45.485s45.485-20.376,45.485-45.485
			C424.551,414.609,404.179,394.237,379.065,394.237z"/>
		<polygon points="454.882,151.628 404.002,272.93 232.797,272.93 181.947,151.628 151.623,151.628 212.257,303.257 
			424.551,303.257 485.204,151.628 		"/>
		<path d="M297.742,225.163c-16.078-80.405,64.326-128.676,64.326-128.676l32.16,32.163V0H265.581l32.165,32.166
			C244.467,85.442,244.435,171.886,297.742,225.163z"/>
	</g>
</g>
<g>
</g>
<g>
</g>
<g>
</g>
<g>
</g>
<g>
</g>
<g>
</g>
<g>
</g>
<g>
</g>
<g>
</g>
<g>
</g>
<g>
</g>
<g>
</g>
<g>
</g>
<g>
</g>
<g>
</g>
</svg>
