<?xml version="1.0" encoding="iso-8859-1"?>
<!-- Generator: Adobe Illustrator 16.0.0, SVG Export Plug-In . SVG Version: 6.00 Build 0)  -->
<!DOCTYPE svg PUBLIC "-//W3C//DTD SVG 1.1//EN" "http://www.w3.org/Graphics/SVG/1.1/DTD/svg11.dtd">
<svg version="1.1" id="Capa_1" xmlns="http://www.w3.org/2000/svg" xmlns:xlink="http://www.w3.org/1999/xlink" x="0px" y="0px"
	 width="485.213px" height="485.212px" viewBox="0 0 485.213 485.212" style="enable-background:new 0 0 485.213 485.212;"
	 xml:space="preserve">
<g>
	<g>
		<path d="M166.803,394.237c-25.114,0-45.49,20.349-45.49,45.49s20.376,45.485,45.49,45.485c25.113,0,45.488-20.344,45.488-45.485
			S191.917,394.237,166.803,394.237z"/>
		<path d="M288.087,394.237c-25.128,0-45.472,20.349-45.472,45.49s20.349,45.485,45.472,45.485
			c25.174,0,45.489-20.344,45.489-45.485S313.261,394.237,288.087,394.237z"/>
		<path d="M470.042,0h-75.812c-7.285,0-13.562,5.243-14.925,12.438l-8.765,48.213H15.17c-5.064,0-9.801,2.55-12.615,6.753
			c-2.812,4.205-3.333,9.565-1.377,14.246l75.814,181.956c2.354,5.656,7.878,9.324,13.994,9.324H331.98l-11.02,60.654H121.313
			c-8.384,0-15.166,6.785-15.166,15.163c0,8.382,6.781,15.158,15.166,15.158h212.263c7.347,0,13.624-5.236,14.926-12.433
			l58.403-321.146h63.137c8.414,0,15.163-6.781,15.163-15.164C485.205,6.781,478.456,0,470.042,0z M337.482,242.606H101.1
			L37.915,90.978h327.114L337.482,242.606z"/>
	</g>
</g>
<g>
</g>
<g>
</g>
<g>
</g>
<g>
</g>
<g>
</g>
<g>
</g>
<g>
</g>
<g>
</g>
<g>
</g>
<g>
</g>
<g>
</g>
<g>
</g>
<g>
</g>
<g>
</g>
<g>
</g>
</svg>
