<?xml version="1.0" encoding="iso-8859-1"?>
<!-- Generator: Adobe Illustrator 16.0.0, SVG Export Plug-In . SVG Version: 6.00 Build 0)  -->
<!DOCTYPE svg PUBLIC "-//W3C//DTD SVG 1.1//EN" "http://www.w3.org/Graphics/SVG/1.1/DTD/svg11.dtd">
<svg version="1.1" id="Capa_1" xmlns="http://www.w3.org/2000/svg" xmlns:xlink="http://www.w3.org/1999/xlink" x="0px" y="0px"
	 width="485.213px" height="485.212px" viewBox="0 0 485.213 485.212" style="enable-background:new 0 0 485.213 485.212;"
	 xml:space="preserve">
<g>
	<g>
		<path d="M60.651,181.955v303.257h363.911V181.955H60.651z M166.794,272.93c-8.384,0-15.166-6.776-15.166-15.158
			s6.782-15.166,15.166-15.166c8.379,0,15.161,6.784,15.161,15.166S175.174,272.93,166.794,272.93z M318.423,272.93
			c-8.382,0-15.168-6.776-15.168-15.158s6.786-15.166,15.168-15.166c8.378,0,15.163,6.784,15.163,15.166
			S326.801,272.93,318.423,272.93z"/>
		<path d="M183.315,151.628c6.338-71.133,34.119-121.302,59.293-121.302c25.172,0,52.918,50.168,59.261,121.302h30.471
			C325.498,63.407,289.249,0,242.606,0c-46.673,0-82.892,63.407-89.734,151.628H183.315z"/>
	</g>
</g>
<g>
</g>
<g>
</g>
<g>
</g>
<g>
</g>
<g>
</g>
<g>
</g>
<g>
</g>
<g>
</g>
<g>
</g>
<g>
</g>
<g>
</g>
<g>
</g>
<g>
</g>
<g>
</g>
<g>
</g>
</svg>
