<?xml version="1.0" encoding="iso-8859-1"?>
<!-- Generator: Adobe Illustrator 16.0.0, SVG Export Plug-In . SVG Version: 6.00 Build 0)  -->
<!DOCTYPE svg PUBLIC "-//W3C//DTD SVG 1.1//EN" "http://www.w3.org/Graphics/SVG/1.1/DTD/svg11.dtd">
<svg version="1.1" id="Capa_1" xmlns="http://www.w3.org/2000/svg" xmlns:xlink="http://www.w3.org/1999/xlink" x="0px" y="0px"
	 width="485.213px" height="485.212px" viewBox="0 0 485.213 485.212" style="enable-background:new 0 0 485.213 485.212;"
	 xml:space="preserve">
<g>
	<path d="M60.652,485.212h363.911l47.175-212.282H13.477L60.652,485.212z M363.909,348.748c0-8.378,6.781-15.163,15.168-15.163
		c8.378,0,15.159,6.785,15.159,15.163v90.979c0,8.378-6.781,15.159-15.159,15.159c-8.387,0-15.168-6.781-15.168-15.159V348.748z
		 M272.934,348.748c0-8.378,6.786-15.163,15.164-15.163c8.382,0,15.158,6.785,15.158,15.163v90.979
		c0,8.378-6.776,15.159-15.158,15.159c-8.378,0-15.164-6.781-15.164-15.159V348.748z M181.956,348.748
		c0-8.378,6.781-15.163,15.161-15.163c8.382,0,15.166,6.785,15.166,15.163v90.979c0,8.378-6.784,15.159-15.166,15.159
		c-8.38,0-15.161-6.781-15.161-15.159V348.748z M90.979,348.748c0-8.378,6.781-15.163,15.161-15.163
		c8.384,0,15.166,6.785,15.166,15.163v90.979c0,8.378-6.781,15.159-15.166,15.159c-8.38,0-15.161-6.781-15.161-15.159V348.748z
		 M445.112,212.282l0.863-0.95L284.48,63.29c2.314-5.479,3.617-11.462,3.617-17.8c0-25.113-20.377-45.49-45.49-45.49
		c-25.13,0-45.49,20.376-45.49,45.49c0,6.338,1.305,12.321,3.631,17.8L39.228,211.332l0.859,0.95H0.001l6.737,30.324h471.72
		l6.754-30.324H445.112z M83.101,212.282L221.402,85.499c6.352,3.409,13.504,5.479,21.205,5.479c7.7,0,14.837-2.103,21.202-5.479
		l138.305,126.783H83.101z"/>
</g>
<g>
</g>
<g>
</g>
<g>
</g>
<g>
</g>
<g>
</g>
<g>
</g>
<g>
</g>
<g>
</g>
<g>
</g>
<g>
</g>
<g>
</g>
<g>
</g>
<g>
</g>
<g>
</g>
<g>
</g>
</svg>
