<?xml version="1.0" encoding="iso-8859-1"?>
<!-- Generator: Adobe Illustrator 16.0.0, SVG Export Plug-In . SVG Version: 6.00 Build 0)  -->
<!DOCTYPE svg PUBLIC "-//W3C//DTD SVG 1.1//EN" "http://www.w3.org/Graphics/SVG/1.1/DTD/svg11.dtd">
<svg version="1.1" id="Capa_1" xmlns="http://www.w3.org/2000/svg" xmlns:xlink="http://www.w3.org/1999/xlink" x="0px" y="0px"
	 width="512px" height="512px" viewBox="0 0 512 512" style="enable-background:new 0 0 512 512;" xml:space="preserve">
<g>
	<g>
		<path d="M479.999,0h-64C400.53,0,387.28,11.063,384.53,26.281L377.655,64H31.999c-11.094,0-21.391,5.75-27.219,15.188
			c-5.828,9.438-6.359,21.188-1.406,31.125l96,192c5.422,10.845,16.5,17.688,28.625,17.688h203.094l-5.812,32H159.999
			c-17.672,0-32,14.313-32,32s14.328,32,32,32h192c15.469,0,28.719-11.063,31.469-26.281L442.718,64h37.281
			c17.688,0,32-14.313,32-32S497.688,0,479.999,0z M147.779,256l-64-128H366.03l-23.281,128H147.779z"/>
		<path d="M191.999,448c-17.672,0-32,14.312-32,32s14.328,32,32,32s32-14.312,32-32S209.669,448,191.999,448z"/>
		<path d="M319.999,448c-17.688,0-32,14.312-32,32s14.312,32,32,32c17.687,0,32-14.312,32-32S337.688,448,319.999,448z"/>
	</g>
</g>
<g>
</g>
<g>
</g>
<g>
</g>
<g>
</g>
<g>
</g>
<g>
</g>
<g>
</g>
<g>
</g>
<g>
</g>
<g>
</g>
<g>
</g>
<g>
</g>
<g>
</g>
<g>
</g>
<g>
</g>
</svg>
