<?xml version="1.0" encoding="iso-8859-1"?>
<!-- Generator: Adobe Illustrator 16.0.0, SVG Export Plug-In . SVG Version: 6.00 Build 0)  -->
<!DOCTYPE svg PUBLIC "-//W3C//DTD SVG 1.1//EN" "http://www.w3.org/Graphics/SVG/1.1/DTD/svg11.dtd">
<svg version="1.1" id="Capa_1" xmlns="http://www.w3.org/2000/svg" xmlns:xlink="http://www.w3.org/1999/xlink" x="0px" y="0px"
	 width="485.22px" height="485.22px" viewBox="0 0 485.22 485.22" style="enable-background:new 0 0 485.22 485.22;"
	 xml:space="preserve">
<g>
	<g>
		<path d="M454.898,0.004h-60.653c-14.659,0-27.214,10.484-29.818,24.908L324.832,242.61h-184.77L57.466,77.419
			c-7.479-14.986-25.662-21.056-40.694-13.565C1.788,71.347-4.282,89.56,3.209,104.546l90.978,181.955
			c5.138,10.277,15.637,16.76,27.127,16.76H313.78l-5.503,30.327H151.641c-16.748,0-30.327,13.566-30.327,30.331
			c0,16.759,13.579,30.321,30.327,30.321h181.956c14.659,0,27.214-10.481,29.822-24.908l56.149-308.678h35.33
			c16.76,0,30.322-13.562,30.322-30.324C485.22,13.571,471.658,0.004,454.898,0.004z"/>
		<path d="M181.965,424.563c-16.746,0-30.324,13.562-30.324,30.327c0,16.764,13.579,30.326,30.324,30.326
			c16.748,0,30.327-13.562,30.327-30.326C212.292,438.125,198.713,424.563,181.965,424.563z"/>
		<path d="M303.264,424.563c-16.759,0-30.321,13.562-30.321,30.327c0,16.764,13.562,30.326,30.321,30.326
			c16.77,0,30.332-13.562,30.332-30.326C333.596,438.125,320.034,424.563,303.264,424.563z"/>
	</g>
</g>
<g>
</g>
<g>
</g>
<g>
</g>
<g>
</g>
<g>
</g>
<g>
</g>
<g>
</g>
<g>
</g>
<g>
</g>
<g>
</g>
<g>
</g>
<g>
</g>
<g>
</g>
<g>
</g>
<g>
</g>
</svg>
