<?xml version="1.0" encoding="iso-8859-1"?>
<!-- Generator: Adobe Illustrator 16.0.0, SVG Export Plug-In . SVG Version: 6.00 Build 0)  -->
<!DOCTYPE svg PUBLIC "-//W3C//DTD SVG 1.1//EN" "http://www.w3.org/Graphics/SVG/1.1/DTD/svg11.dtd">
<svg version="1.1" id="Capa_1" xmlns="http://www.w3.org/2000/svg" xmlns:xlink="http://www.w3.org/1999/xlink" x="0px" y="0px"
	 width="485.213px" height="485.212px" viewBox="0 0 485.213 485.212" style="enable-background:new 0 0 485.213 485.212;"
	 xml:space="preserve">
<g>
	<path d="M394.236,0H90.979L0.001,90.978v50.227c0,28.224,19.368,51.737,45.49,58.518v285.49h394.231v-285.49
		c26.126-6.781,45.49-30.294,45.49-58.518V90.978L394.236,0z M394.236,454.886v-212.28H272.934v212.28H75.817V199.723
		c26.12-6.781,45.488-30.294,45.488-58.518c0,33.493,27.158,60.651,60.651,60.651c33.494,0,60.651-27.158,60.651-60.651
		c0,33.493,27.157,60.651,60.648,60.651c33.5,0,60.653-27.158,60.653-60.651c0,28.224,19.368,51.737,45.49,58.518v255.164H394.236z
		 M303.256,333.584V272.93h60.653v60.654H303.256z M90.979,333.584h121.305v-90.979H90.979V333.584z M121.305,272.93h60.651v30.327
		h-60.651V272.93z"/>
</g>
<g>
</g>
<g>
</g>
<g>
</g>
<g>
</g>
<g>
</g>
<g>
</g>
<g>
</g>
<g>
</g>
<g>
</g>
<g>
</g>
<g>
</g>
<g>
</g>
<g>
</g>
<g>
</g>
<g>
</g>
</svg>
