<?xml version="1.0" encoding="iso-8859-1"?>
<!-- Generator: Adobe Illustrator 16.0.0, SVG Export Plug-In . SVG Version: 6.00 Build 0)  -->
<!DOCTYPE svg PUBLIC "-//W3C//DTD SVG 1.1//EN" "http://www.w3.org/Graphics/SVG/1.1/DTD/svg11.dtd">
<svg version="1.1" id="Capa_1" xmlns="http://www.w3.org/2000/svg" xmlns:xlink="http://www.w3.org/1999/xlink" x="0px" y="0px"
	 width="485.225px" height="485.226px" viewBox="0 0 485.225 485.226" style="enable-background:new 0 0 485.225 485.226;"
	 xml:space="preserve">
<g>
	<g>
		<path d="M454.903,0.006H394.25c-14.692,0-27.247,10.484-29.851,24.908l-6.521,35.743H30.324c-10.515,0-20.273,5.451-25.797,14.396
			c-5.521,8.944-6.025,20.078-1.33,29.496l90.978,181.955c5.136,10.277,15.637,16.76,27.127,16.76h192.449l-5.503,30.327H151.626
			c-16.75,0-30.324,13.566-30.324,30.331c0,16.759,13.574,30.321,30.324,30.321h181.965c14.636,0,27.19-10.481,29.799-24.908
			l56.15-308.678h35.362c16.76,0,30.322-13.562,30.322-30.324C485.225,13.573,471.663,0.006,454.903,0.006z M346.865,121.311
			l-5.513,30.324H94.557l-15.161-30.324H346.865z M140.047,242.612l-15.163-30.324h205.454l-5.512,30.324H140.047z"/>
		<path d="M181.953,424.565c-16.75,0-30.327,13.562-30.327,30.327c0,16.764,13.577,30.326,30.327,30.326
			c16.746,0,30.324-13.562,30.324-30.326C212.277,438.128,198.699,424.565,181.953,424.565z"/>
		<path d="M303.269,424.565c-16.759,0-30.322,13.562-30.322,30.327c0,16.764,13.563,30.326,30.322,30.326
			c16.765,0,30.322-13.562,30.322-30.326C333.591,438.128,320.034,424.565,303.269,424.565z"/>
	</g>
</g>
<g>
</g>
<g>
</g>
<g>
</g>
<g>
</g>
<g>
</g>
<g>
</g>
<g>
</g>
<g>
</g>
<g>
</g>
<g>
</g>
<g>
</g>
<g>
</g>
<g>
</g>
<g>
</g>
<g>
</g>
</svg>
