<?xml version="1.0" encoding="iso-8859-1"?>
<!-- Generator: Adobe Illustrator 16.0.0, SVG Export Plug-In . SVG Version: 6.00 Build 0)  -->
<!DOCTYPE svg PUBLIC "-//W3C//DTD SVG 1.1//EN" "http://www.w3.org/Graphics/SVG/1.1/DTD/svg11.dtd">
<svg version="1.1" id="Capa_1" xmlns="http://www.w3.org/2000/svg" xmlns:xlink="http://www.w3.org/1999/xlink" x="0px" y="0px"
	 width="485.223px" height="485.223px" viewBox="0 0 485.223 485.223" style="enable-background:new 0 0 485.223 485.223;"
	 xml:space="preserve">
<g>
	<path d="M60.666,424.564c-33.498,0-60.656,27.158-60.656,60.653H485.22c0-33.495-27.153-60.653-60.645-60.653h-0.42V153.681
		l1.335,5.299c3.436,13.803,15.779,22.98,29.375,22.98c2.432,0,4.914-0.298,7.374-0.889c16.26-4.086,26.149-20.554,22.061-36.783
		L424.576,0.005H60.666L0.901,144.292c-4.03,16.225,5.834,32.693,22.092,36.781c2.459,0.593,4.919,0.887,7.376,0.887
		c13.591,0,25.94-9.178,29.405-22.978l1.304-5.274v270.856H60.666z M90.987,181.96c16.764,0,30.327-13.565,30.327-30.327
		c0,16.764,13.567,30.327,30.327,30.327c16.762,0,30.324-13.565,30.324-30.327c0,16.764,13.565,30.327,30.327,30.327
		s30.327-13.565,30.327-30.327c0,16.764,13.565,30.327,30.325,30.327c16.759,0,30.321-13.565,30.321-30.327
		c0,16.764,13.572,30.327,30.332,30.327s30.322-13.565,30.322-30.327c0,16.764,13.562,30.327,30.326,30.327v242.604h-90.98V272.936
		c0-33.491-27.152-60.648-60.646-60.648c-33.496,0-60.653,27.158-60.653,60.648v151.629H90.987V181.96z M212.292,318.421
		c0-8.377,6.781-15.158,15.164-15.158c8.379,0,15.163,6.781,15.163,15.158c0,8.392-6.784,15.169-15.163,15.169
		C219.073,333.59,212.292,326.812,212.292,318.421z"/>
</g>
<g>
</g>
<g>
</g>
<g>
</g>
<g>
</g>
<g>
</g>
<g>
</g>
<g>
</g>
<g>
</g>
<g>
</g>
<g>
</g>
<g>
</g>
<g>
</g>
<g>
</g>
<g>
</g>
<g>
</g>
</svg>
