<?xml version="1.0" encoding="iso-8859-1"?>
<!-- Generator: Adobe Illustrator 16.0.0, SVG Export Plug-In . SVG Version: 6.00 Build 0)  -->
<!DOCTYPE svg PUBLIC "-//W3C//DTD SVG 1.1//EN" "http://www.w3.org/Graphics/SVG/1.1/DTD/svg11.dtd">
<svg version="1.1" id="Capa_1" xmlns="http://www.w3.org/2000/svg" xmlns:xlink="http://www.w3.org/1999/xlink" x="0px" y="0px"
	 width="485.213px" height="485.212px" viewBox="0 0 485.213 485.212" style="enable-background:new 0 0 485.213 485.212;"
	 xml:space="preserve">
<g>
	<path d="M272.934,242.606c0,16.762-13.562,30.324-30.326,30.324l0,0c-16.762,0-30.324-13.562-30.324-30.324V30.327
		C212.283,13.562,225.846,0,242.607,0l0,0c16.764,0,30.326,13.567,30.326,30.327V242.606z M485.212,242.606
		c0,16.762-13.563,30.324-30.322,30.324h-30.327v181.956c0,16.764-13.567,30.326-30.326,30.326H90.979
		c-16.762,0-30.327-13.562-30.327-30.326V272.93H30.328c-16.764,0-30.327-13.562-30.327-30.324s13.564-30.324,30.327-30.324h166.79
		v30.324c0,25.084,20.407,45.488,45.49,45.488c25.081,0,45.49-20.404,45.49-45.488v-30.324H454.89
		C471.648,212.282,485.212,225.844,485.212,242.606z M166.795,318.416c0-8.377-6.786-15.158-15.166-15.158
		c-8.382,0-15.163,6.781-15.163,15.158v90.98c0,8.382,6.781,15.163,15.163,15.163c8.38,0,15.166-6.781,15.166-15.163V318.416z
		 M227.444,318.416c0-8.377-6.781-15.158-15.161-15.158c-8.385,0-15.166,6.781-15.166,15.158v90.98
		c0,8.382,6.781,15.163,15.166,15.163c8.379,0,15.161-6.781,15.161-15.163V318.416z M288.098,318.416
		c0-8.377-6.781-15.158-15.164-15.158c-8.382,0-15.163,6.781-15.163,15.158v90.98c0,8.382,6.781,15.163,15.163,15.163
		c8.383,0,15.164-6.781,15.164-15.163V318.416z M348.746,318.416c0-8.377-6.776-15.158-15.159-15.158
		c-8.382,0-15.163,6.781-15.163,15.158v90.98c0,8.382,6.781,15.163,15.163,15.163c8.383,0,15.159-6.781,15.159-15.163V318.416z"/>
</g>
<g>
</g>
<g>
</g>
<g>
</g>
<g>
</g>
<g>
</g>
<g>
</g>
<g>
</g>
<g>
</g>
<g>
</g>
<g>
</g>
<g>
</g>
<g>
</g>
<g>
</g>
<g>
</g>
<g>
</g>
</svg>
