<?xml version="1.0" encoding="iso-8859-1"?>
<!-- Generator: Adobe Illustrator 16.0.0, SVG Export Plug-In . SVG Version: 6.00 Build 0)  -->
<!DOCTYPE svg PUBLIC "-//W3C//DTD SVG 1.1//EN" "http://www.w3.org/Graphics/SVG/1.1/DTD/svg11.dtd">
<svg version="1.1" id="Capa_1" xmlns="http://www.w3.org/2000/svg" xmlns:xlink="http://www.w3.org/1999/xlink" x="0px" y="0px"
	 width="485.213px" height="485.212px" viewBox="0 0 485.213 485.212" style="enable-background:new 0 0 485.213 485.212;"
	 xml:space="preserve">
<g>
	<g>
		<path d="M287.505,186.19C283.561,89.911,257.948,0,212.283,0C166.613,0,141,89.911,137.059,186.19
			c-9.239,5.181-15.754,14.718-15.754,26.091c0,16.762,13.562,30.324,30.324,30.324c16.762,0,30.327-13.562,30.327-30.324
			c0-10.748-5.922-19.753-14.335-25.144c3.972-97.61,29.884-156.812,44.662-156.812c14.776,0,40.689,59.229,44.685,156.842
			c-8.438,5.36-14.36,14.365-14.36,25.113c0,16.762,13.562,30.324,30.326,30.324c16.76,0,30.322-13.562,30.322-30.324
			C303.256,200.908,296.745,191.371,287.505,186.19z"/>
		<g>
			<polygon points="353.395,242.606 384.137,242.606 363.909,121.304 303.256,121.304 303.256,151.628 338.235,151.628 			"/>
			<polygon points="35.804,454.886 86.358,151.628 121.305,151.628 121.305,121.304 60.652,121.304 0.001,485.212 272.934,485.212 
				272.934,454.886 			"/>
		</g>
		<path d="M454.89,363.906v-30.321c0-33.436-27.19-60.654-60.653-60.654c-33.468,0-60.649,27.219-60.649,60.654v30.321
			c-16.769,0-30.331,13.572-30.331,30.331v60.649c0,16.764,13.562,30.326,30.331,30.326H454.89
			c16.759,0,30.322-13.562,30.322-30.326v-60.649C485.212,377.478,471.648,363.906,454.89,363.906z M409.399,433.683v13.624h-30.322
			v-13.624c-4.592-4.177-7.584-10.011-7.584-16.703c0-12.56,10.188-22.743,22.743-22.743c12.559,0,22.747,10.184,22.747,22.743
			C416.983,423.672,413.992,429.506,409.399,433.683z M424.562,363.906h-60.653v-30.321c0-16.732,13.619-30.327,30.327-30.327
			c16.703,0,30.326,13.595,30.326,30.327V363.906z"/>
	</g>
</g>
<g>
</g>
<g>
</g>
<g>
</g>
<g>
</g>
<g>
</g>
<g>
</g>
<g>
</g>
<g>
</g>
<g>
</g>
<g>
</g>
<g>
</g>
<g>
</g>
<g>
</g>
<g>
</g>
<g>
</g>
</svg>
