<?xml version="1.0" encoding="iso-8859-1"?>
<!-- Generator: Adobe Illustrator 16.0.0, SVG Export Plug-In . SVG Version: 6.00 Build 0)  -->
<!DOCTYPE svg PUBLIC "-//W3C//DTD SVG 1.1//EN" "http://www.w3.org/Graphics/SVG/1.1/DTD/svg11.dtd">
<svg version="1.1" id="Capa_1" xmlns="http://www.w3.org/2000/svg" xmlns:xlink="http://www.w3.org/1999/xlink" x="0px" y="0px"
	 width="512px" height="512px" viewBox="0 0 512 512" style="enable-background:new 0 0 512 512;" xml:space="preserve">
<g>
	<g>
		<path d="M303.375,196.469C299.219,94.875,272.188,0,224,0c-48.188,0-75.219,94.875-79.375,196.469
			C134.875,201.938,128,212,128,224c0,17.688,14.313,32,32,32s32-14.313,32-32c0-11.344-6.25-20.844-15.125-26.531
			C181.063,94.469,208.406,32,224,32s42.938,62.5,47.156,165.5C262.25,203.156,256,212.656,256,224c0,17.688,14.312,32,32,32
			s32-14.313,32-32C320,212,313.125,201.938,303.375,196.469z"/>
		<g>
			<polygon points="372.906,256 405.344,256 384,128 320,128 320,160 356.906,160 			"/>
			<polygon points="37.781,480 91.125,160 128,160 128,128 64,128 0,512 288,512 288,480 			"/>
		</g>
		<path d="M400,288c-61.875,0-112,50.125-112,112s50.125,112,112,112s112-50.125,112-112S461.875,288,400,288z M467.875,445.25
			l-22.625,22.625L400,422.625l-45.25,45.25l-22.625-22.625l45.25-45.25l-45.25-45.25l22.625-22.625l45.25,45.25l45.25-45.25
			l22.625,22.625L422.625,400L467.875,445.25z"/>
	</g>
</g>
<g>
</g>
<g>
</g>
<g>
</g>
<g>
</g>
<g>
</g>
<g>
</g>
<g>
</g>
<g>
</g>
<g>
</g>
<g>
</g>
<g>
</g>
<g>
</g>
<g>
</g>
<g>
</g>
<g>
</g>
</svg>
