<?xml version="1.0" encoding="iso-8859-1"?>
<!-- Generator: Adobe Illustrator 16.0.0, SVG Export Plug-In . SVG Version: 6.00 Build 0)  -->
<!DOCTYPE svg PUBLIC "-//W3C//DTD SVG 1.1//EN" "http://www.w3.org/Graphics/SVG/1.1/DTD/svg11.dtd">
<svg version="1.1" id="Capa_1" xmlns="http://www.w3.org/2000/svg" xmlns:xlink="http://www.w3.org/1999/xlink" x="0px" y="0px"
	 width="485.212px" height="485.212px" viewBox="0 0 485.212 485.212" style="enable-background:new 0 0 485.212 485.212;"
	 xml:space="preserve">
<g>
	<path d="M288.093,166.794c0-25.114-20.371-45.49-45.489-45.49c-25.114,0-45.49,20.376-45.49,45.49
		c0,18.626,11.227,34.59,27.246,41.637c-11.401,101.551-52.299,197.884-118.222,276.781c43.238-20.222,89.853-30.326,136.466-30.326
		c46.614,0,93.225,10.104,136.465,30.326c-65.922-78.896-106.819-175.229-118.222-276.781
		C276.87,201.384,288.093,185.42,288.093,166.794z M242.604,424.532c-20.255,0-40.602,1.811-60.651,5.329
		c27.421-46.903,47.919-97.695,60.651-150.504c12.765,52.775,33.229,103.601,60.653,150.504
		C283.208,426.342,262.864,424.532,242.604,424.532z M303.257,212.282c23.452-31.274,19.274-75.282-9.629-101.581
		c-28.931-26.297-73.116-26.297-102.022,0c-28.934,26.301-33.108,70.307-9.654,101.581c-26.061-24.819-34.352-62.963-20.995-96.368
		c13.352-33.344,45.693-55.263,81.646-55.263c35.955,0,68.293,21.919,81.646,55.263
		C337.612,149.318,329.286,187.462,303.257,212.282z M151.626,242.606c-43.474-37.906-58.817-98.825-38.559-152.812
		C133.324,35.775,184.914,0,242.604,0c57.661,0,109.308,35.775,129.567,89.794c20.227,53.986,4.854,114.906-38.592,152.812
		c47.296-49.665,46.021-128.113-2.871-176.21c-48.892-48.094-127.315-48.094-176.238,0
		C105.606,114.493,104.299,192.941,151.626,242.606z"/>
</g>
<g>
</g>
<g>
</g>
<g>
</g>
<g>
</g>
<g>
</g>
<g>
</g>
<g>
</g>
<g>
</g>
<g>
</g>
<g>
</g>
<g>
</g>
<g>
</g>
<g>
</g>
<g>
</g>
<g>
</g>
</svg>
