<?xml version="1.0" encoding="iso-8859-1"?>
<!-- Generator: Adobe Illustrator 16.0.0, SVG Export Plug-In . SVG Version: 6.00 Build 0)  -->
<!DOCTYPE svg PUBLIC "-//W3C//DTD SVG 1.1//EN" "http://www.w3.org/Graphics/SVG/1.1/DTD/svg11.dtd">
<svg version="1.1" id="Capa_1" xmlns="http://www.w3.org/2000/svg" xmlns:xlink="http://www.w3.org/1999/xlink" x="0px" y="0px"
	 width="447.805px" height="447.804px" viewBox="0 0 447.805 447.804" style="enable-background:new 0 0 447.805 447.804;"
	 xml:space="preserve">
<g>
	<path d="M246.516,201.277c12.5,12.5,12.5,32.781,0,45.25c-12.5,12.5-32.75,12.5-45.25,0c-12.5-12.469-12.5-32.75,0-45.25
		S234.016,188.777,246.516,201.277z M291.766,156.027l-22.625,22.625c12.094,12.063,18.75,28.156,18.75,45.25
		s-6.656,33.156-18.75,45.25l22.625,22.625c18.125-18.125,28.125-42.219,28.125-67.875S309.891,174.152,291.766,156.027z
		 M337.047,110.746l-22.625,22.625c49.906,49.906,49.906,131.125,0,181.031l22.625,22.625
		C399.422,274.652,399.422,173.152,337.047,110.746z M382.297,65.496l-22.625,22.625c74.844,74.844,74.844,196.688,0,271.563
		l22.625,22.625C469.641,294.933,469.641,152.84,382.297,65.496z M156.016,156.027c-18.125,18.125-28.125,42.219-28.125,67.875
		s10,49.75,28.125,67.875l22.625-22.625c-12.094-12.094-18.75-28.156-18.75-45.25s6.656-33.188,18.75-45.25L156.016,156.027z
		 M133.36,133.371l-22.625-22.625c-62.375,62.406-62.375,163.906,0,226.281l22.625-22.625
		C83.454,264.496,83.454,183.277,133.36,133.371z M88.11,88.121L65.485,65.496c-87.313,87.344-87.313,229.438,0,316.813
		l22.625-22.625C13.266,284.808,13.266,162.965,88.11,88.121z"/>
</g>
<g>
</g>
<g>
</g>
<g>
</g>
<g>
</g>
<g>
</g>
<g>
</g>
<g>
</g>
<g>
</g>
<g>
</g>
<g>
</g>
<g>
</g>
<g>
</g>
<g>
</g>
<g>
</g>
<g>
</g>
</svg>
