<?xml version="1.0" encoding="iso-8859-1"?>
<!-- Generator: Adobe Illustrator 16.0.0, SVG Export Plug-In . SVG Version: 6.00 Build 0)  -->
<!DOCTYPE svg PUBLIC "-//W3C//DTD SVG 1.1//EN" "http://www.w3.org/Graphics/SVG/1.1/DTD/svg11.dtd">
<svg version="1.1" id="Capa_1" xmlns="http://www.w3.org/2000/svg" xmlns:xlink="http://www.w3.org/1999/xlink" x="0px" y="0px"
	 width="485.211px" height="485.21px" viewBox="0 0 485.211 485.21" style="enable-background:new 0 0 485.211 485.21;"
	 xml:space="preserve">
<g>
	<path d="M151.628,409.393c0,16.769-13.562,30.331-30.324,30.331H90.978c-16.762,0-30.327-13.562-30.327-30.331V75.813
		c0-16.764,13.565-30.327,30.327-30.327h30.327c16.762,0,30.324,13.565,30.324,30.327V409.393z M30.327,75.813
		C13.564,75.813,0,89.376,0,106.138v272.933c0,16.76,13.564,30.322,30.327,30.322V75.813z M485.211,106.138v272.933
		c0,16.76-13.563,30.322-30.322,30.322H181.955V75.813h272.934C471.647,75.813,485.211,89.376,485.211,106.138z M272.933,318.179
		h-60.65v30.799h60.65V318.179z M272.933,257.526h-60.65v30.808h60.65V257.526z M272.933,196.88h-60.65v30.798h60.65V196.88z
		 M363.908,318.413h-60.653v30.332h60.653V318.413z M363.908,257.769h-60.653v30.322h60.653V257.769z M363.908,197.116h-60.653
		v30.327h60.653V197.116z M454.889,318.413h-60.653v30.332h60.653V318.413z M454.889,257.769h-60.653v30.322h60.653V257.769z
		 M454.889,197.116h-60.653v30.327h60.653V197.116z M454.889,106.138H213.229v60.653h241.659V106.138z"/>
</g>
<g>
</g>
<g>
</g>
<g>
</g>
<g>
</g>
<g>
</g>
<g>
</g>
<g>
</g>
<g>
</g>
<g>
</g>
<g>
</g>
<g>
</g>
<g>
</g>
<g>
</g>
<g>
</g>
<g>
</g>
</svg>
