<?xml version="1.0" encoding="iso-8859-1"?>
<!-- Generator: Adobe Illustrator 16.0.0, SVG Export Plug-In . SVG Version: 6.00 Build 0)  -->
<!DOCTYPE svg PUBLIC "-//W3C//DTD SVG 1.1//EN" "http://www.w3.org/Graphics/SVG/1.1/DTD/svg11.dtd">
<svg version="1.1" id="Capa_1" xmlns="http://www.w3.org/2000/svg" xmlns:xlink="http://www.w3.org/1999/xlink" x="0px" y="0px"
	 width="485.212px" height="485.212px" viewBox="0 0 485.212 485.212" style="enable-background:new 0 0 485.212 485.212;"
	 xml:space="preserve">
<g>
	<path d="M318.364,485.212H166.735c0-16.759,13.565-30.326,30.327-30.326v-30.327h90.975v30.327
		C304.801,454.886,318.364,468.454,318.364,485.212z M242.549,142.036c16.762,0,30.324-13.596,30.324-30.327
		c0-16.762-13.562-30.324-30.324-30.324c-16.76,0-30.327,13.562-30.327,30.324C212.223,128.44,225.785,142.036,242.549,142.036z
		 M179.173,155.894c-14.748-19.515-16.375-45.786-4.147-66.958l7.584-13.119l-26.299-15.166l-7.582,13.122
		c-18.304,31.746-15.875,71.164,6.219,100.363l9.152,12.116l24.194-18.274L179.173,155.894z M122.491,58.609l7.58-13.119
		l-26.238-15.163L96.25,43.446c-28.784,49.784-27.069,110.612,4.382,158.825l8.293,12.676l25.379-16.584l-8.293-12.676
		C100.838,147.127,99.508,98.44,122.491,58.609z M69.952,28.312l7.582-13.149L51.297,0l-7.584,13.152
		C4.208,81.501,5.807,165.52,47.86,232.36l8.083,12.853l25.676-16.139l-8.053-12.823C37.494,158.916,36.131,86.892,69.952,28.312z
		 M328.902,60.651L302.64,75.816l7.575,13.119c12.209,21.172,10.575,47.413-4.173,66.958l-9.124,12.083l24.198,18.274l9.157-12.116
		c22.057-29.228,24.521-68.648,6.188-100.363L328.902,60.651z M388.967,43.446l-7.579-13.119L355.15,45.49l7.574,13.119
		c22.98,39.831,21.65,88.519-3.523,127.078l-8.289,12.676l25.408,16.584l8.288-12.676C416.06,154.058,417.721,93.229,388.967,43.446
		z M441.5,13.152L433.92,0l-26.238,15.163l7.579,13.149c33.855,58.607,32.46,130.604-3.584,187.939l-8.083,12.792l25.673,16.169
		l8.061-12.853C479.406,165.548,481.011,81.501,441.5,13.152z M242.549,181.955c-6.457,0-12.529-1.274-18.363-3.138l-7.519,63.789
		h51.767l-7.527-63.789C255.074,180.681,249.006,181.955,242.549,181.955z M280.901,348.748h-76.703l-7.139,60.648h90.978
		L280.901,348.748z M270.208,257.772h-55.321l-8.914,75.812h73.154L270.208,257.772z"/>
</g>
<g>
</g>
<g>
</g>
<g>
</g>
<g>
</g>
<g>
</g>
<g>
</g>
<g>
</g>
<g>
</g>
<g>
</g>
<g>
</g>
<g>
</g>
<g>
</g>
<g>
</g>
<g>
</g>
<g>
</g>
</svg>
