<?xml version="1.0" encoding="iso-8859-1"?>
<!-- Generator: Adobe Illustrator 16.0.0, SVG Export Plug-In . SVG Version: 6.00 Build 0)  -->
<!DOCTYPE svg PUBLIC "-//W3C//DTD SVG 1.1//EN" "http://www.w3.org/Graphics/SVG/1.1/DTD/svg11.dtd">
<svg version="1.1" id="Capa_1" xmlns="http://www.w3.org/2000/svg" xmlns:xlink="http://www.w3.org/1999/xlink" x="0px" y="0px"
	 width="500.066px" height="500.065px" viewBox="0 0 500.066 500.065" style="enable-background:new 0 0 500.066 500.065;"
	 xml:space="preserve">
<g>
	<path d="M298.033,164.064c0-26.5-21.5-48-48-48s-48,21.5-48,48c0,19.656,11.844,36.5,28.75,43.938
		c-12.031,107.156-55.188,208.813-124.75,292.063c45.625-21.345,94.813-32,144-32c49.188,0,98.375,10.655,144,32
		c-69.562-83.25-112.719-184.906-124.75-292.063C286.189,200.564,298.033,183.721,298.033,164.064z M314.033,441.658
		c-21.156-3.719-42.625-5.625-64-5.625s-42.844,1.906-64,5.625c28.938-49.5,50.563-103.094,64-158.812
		C263.501,338.533,285.095,392.158,314.033,441.658z M145.845,67.877l33.938,33.938c-34.281,34.312-34.281,90.156,0,124.5
		l-33.938,33.938C92.845,207.189,92.845,120.908,145.845,67.877z M111.908,294.158L77.97,328.096
		c-43.812-43.812-67.937-102.062-67.937-164.031c0-61.969,24.125-120.25,67.937-164.062l33.938,33.938
		c-34.75,34.75-53.875,80.969-53.875,130.125C58.033,213.189,77.158,259.408,111.908,294.158z M320.251,226.314
		c16.625-16.625,25.781-38.75,25.781-62.25s-9.156-45.625-25.781-62.25l33.938-33.938c25.688,25.688,39.844,59.844,39.844,96.188
		c0,36.312-14.156,70.5-39.844,96.188L320.251,226.314z M490.033,164.064c0,61.969-24.125,120.219-67.969,164.031l-33.938-33.938
		c34.75-34.75,53.906-80.969,53.906-130.094c0-49.156-19.156-95.375-53.906-130.125L422.064,0
		C465.908,43.814,490.033,102.064,490.033,164.064z"/>
</g>
<g>
</g>
<g>
</g>
<g>
</g>
<g>
</g>
<g>
</g>
<g>
</g>
<g>
</g>
<g>
</g>
<g>
</g>
<g>
</g>
<g>
</g>
<g>
</g>
<g>
</g>
<g>
</g>
<g>
</g>
</svg>
