<?xml version="1.0" encoding="iso-8859-1"?>
<!-- Generator: Adobe Illustrator 16.0.0, SVG Export Plug-In . SVG Version: 6.00 Build 0)  -->
<!DOCTYPE svg PUBLIC "-//W3C//DTD SVG 1.1//EN" "http://www.w3.org/Graphics/SVG/1.1/DTD/svg11.dtd">
<svg version="1.1" id="Capa_1" xmlns="http://www.w3.org/2000/svg" xmlns:xlink="http://www.w3.org/1999/xlink" x="0px" y="0px"
	 width="394.242px" height="394.242px" viewBox="0 0 394.242 394.242" style="enable-background:new 0 0 394.242 394.242;"
	 xml:space="preserve">
<g>
	<path d="M303.262,181.955h-15.168V90.978C288.094,40.807,247.29,0,197.119,0c-50.167,0-90.978,40.811-90.978,90.978v30.324h30.327
		V90.978c0-33.493,27.155-60.653,60.651-60.653c33.495,0,60.653,27.16,60.653,60.653v90.978H90.979
		c-41.049,54.731-33.748,131.729,16.865,177.746c50.61,46.055,127.922,46.055,178.561,0
		C337.019,313.684,344.304,236.687,303.262,181.955z M212.282,298.604v37.817c0,8.382-6.781,15.168-15.163,15.168
		c-8.382,0-15.164-6.786-15.164-15.168v-37.817c-8.9-5.302-15.164-14.566-15.164-25.674c0-16.76,13.577-30.322,30.327-30.322
		c16.75,0,30.321,13.562,30.321,30.322C227.44,284.038,221.182,293.303,212.282,298.604z"/>
</g>
<g>
</g>
<g>
</g>
<g>
</g>
<g>
</g>
<g>
</g>
<g>
</g>
<g>
</g>
<g>
</g>
<g>
</g>
<g>
</g>
<g>
</g>
<g>
</g>
<g>
</g>
<g>
</g>
<g>
</g>
</svg>
