<?xml version="1.0" encoding="iso-8859-1"?>
<!-- Generator: Adobe Illustrator 16.0.0, SVG Export Plug-In . SVG Version: 6.00 Build 0)  -->
<!DOCTYPE svg PUBLIC "-//W3C//DTD SVG 1.1//EN" "http://www.w3.org/Graphics/SVG/1.1/DTD/svg11.dtd">
<svg version="1.1" id="Capa_1" xmlns="http://www.w3.org/2000/svg" xmlns:xlink="http://www.w3.org/1999/xlink" x="0px" y="0px"
	 width="485.213px" height="485.212px" viewBox="0 0 485.213 485.212" style="enable-background:new 0 0 485.213 485.212;"
	 xml:space="preserve">
<g>
	<g>
		<path d="M441.616,485.212H43.596c-24.049,0-43.595-19.546-43.595-43.595l1.481-63.374c36.308-76.466,92.579-92.726,94.947-93.402
			l4.025-0.532h28.43c22.39,0,40.75-17.772,41.67-39.938c-25.263-32.119-42.618-78.75-42.618-115.487
			C127.937,43.357,166.497,0,242.607,0c76.083,0,114.67,43.357,114.67,128.883c0,36.77-17.324,83.398-42.62,115.499
			c0.952,22.154,19.285,39.927,41.673,39.927l32.455,0.532c2.37,0.681,58.642,16.937,94.946,93.402l1.48,6.515v56.859
			C485.212,465.667,465.67,485.212,441.616,485.212z M30.328,388.226v53.392c0,7.317,5.953,13.269,13.269,13.269h398.02
			c7.318,0,13.273-5.951,13.273-13.269v-53.392c-27.037-54.642-64.299-70.632-72.531-73.595H356.33
			c-39.712,0-72.027-32.315-72.027-72.025v-9.149l3.585-4.235c22.63-26.698,39.059-68.898,39.059-100.338
			c0-69.075-25.23-98.557-84.339-98.557c-59.113,0-84.344,29.482-84.344,98.557c0,31.424,16.407,73.609,39.036,100.321l3.61,4.252
			v9.149c0,39.71-32.31,72.025-72.022,72.025h-26.03C94.533,317.623,57.336,333.584,30.328,388.226z"/>
	</g>
</g>
<g>
</g>
<g>
</g>
<g>
</g>
<g>
</g>
<g>
</g>
<g>
</g>
<g>
</g>
<g>
</g>
<g>
</g>
<g>
</g>
<g>
</g>
<g>
</g>
<g>
</g>
<g>
</g>
<g>
</g>
</svg>
