<?xml version="1.0" encoding="iso-8859-1"?>
<!-- Generator: Adobe Illustrator 16.0.0, SVG Export Plug-In . SVG Version: 6.00 Build 0)  -->
<!DOCTYPE svg PUBLIC "-//W3C//DTD SVG 1.1//EN" "http://www.w3.org/Graphics/SVG/1.1/DTD/svg11.dtd">
<svg version="1.1" id="Capa_1" xmlns="http://www.w3.org/2000/svg" xmlns:xlink="http://www.w3.org/1999/xlink" x="0px" y="0px"
	 width="511.966px" height="511.966px" viewBox="0 0 511.966 511.966" style="enable-background:new 0 0 511.966 511.966;"
	 xml:space="preserve">
<g>
	<path d="M301.17,402.716c25,24.969,25,65.5,0,90.5c-24.969,25-65.5,25-90.5,0s-25-65.531,0-90.5
		C235.671,377.715,276.202,377.715,301.17,402.716z M335.045,308.84c-48.905-27.812-109.655-27.75-158.53,0.188
		c-15.344,8.781-20.656,28.344-11.875,43.688c5.906,10.313,16.688,16.095,27.813,16.095c5.375,0,10.844-1.345,15.844-4.22
		c29.344-16.75,65.75-16.875,95.063-0.125c15.344,8.72,34.906,3.375,43.656-11.969C355.764,337.122,350.389,317.59,335.045,308.84z
		 M383.077,225.653c-78.438-44.875-175.844-44.875-254.219,0c-15.344,8.75-20.656,28.313-11.875,43.657
		c8.781,15.343,28.344,20.688,43.656,11.875c58.75-33.595,131.812-33.657,190.625,0.03c5.031,2.875,10.5,4.22,15.875,4.22
		c11.094,0,21.906-5.781,27.812-16.095C403.733,253.997,398.389,234.434,383.077,225.653z M430.577,142.215
		C322.795,80.59,188.921,80.59,81.202,142.278c-15.344,8.75-20.656,28.313-11.875,43.656c5.906,10.344,16.688,16.094,27.781,16.094
		c5.406,0,10.875-1.344,15.875-4.219c88.156-50.438,197.594-50.469,285.781-0.031c15.406,8.75,34.906,3.438,43.688-11.875
		C451.233,170.559,445.889,151.028,430.577,142.215z M478.358,58.965C341.17-19.629,170.795-19.66,33.608,58.902
		c-15.344,8.75-20.656,28.313-11.875,43.656c8.75,15.344,28.375,20.719,43.656,11.875c117.563-67.313,263.625-67.281,381.157,0.031
		c5.03,2.875,10.469,4.25,15.875,4.25c11.094,0,21.875-5.781,27.812-16.094C499.014,87.278,493.702,67.715,478.358,58.965z"/>
</g>
<g>
</g>
<g>
</g>
<g>
</g>
<g>
</g>
<g>
</g>
<g>
</g>
<g>
</g>
<g>
</g>
<g>
</g>
<g>
</g>
<g>
</g>
<g>
</g>
<g>
</g>
<g>
</g>
<g>
</g>
</svg>
