<?xml version="1.0" encoding="iso-8859-1"?>
<!-- Generator: Adobe Illustrator 16.0.0, SVG Export Plug-In . SVG Version: 6.00 Build 0)  -->
<!DOCTYPE svg PUBLIC "-//W3C//DTD SVG 1.1//EN" "http://www.w3.org/Graphics/SVG/1.1/DTD/svg11.dtd">
<svg version="1.1" id="Capa_1" xmlns="http://www.w3.org/2000/svg" xmlns:xlink="http://www.w3.org/1999/xlink" x="0px" y="0px"
	 width="303.229px" height="303.229px" viewBox="0 0 303.229 303.229" style="enable-background:new 0 0 303.229 303.229;"
	 xml:space="preserve">
<g>
	<path d="M194.455,199.69c23.695,23.667,23.695,62.077,0,85.771c-23.662,23.69-62.07,23.69-85.765,0
		c-23.692-23.694-23.692-62.104,0-85.771C132.385,176,170.792,176,194.455,199.69z M226.56,110.729
		c-46.35-26.357-103.918-26.296-150.236,0.178c-14.542,8.321-19.578,26.864-11.254,41.404c5.598,9.773,15.814,15.252,26.355,15.252
		c5.096,0,10.279-1.274,15.016-4c27.809-15.873,62.313-15.992,90.086-0.121c14.547,8.27,33.08,3.201,41.378-11.341
		C246.194,137.532,241.097,119.022,226.56,110.729z M272.073,31.893c-74.328-42.524-166.638-42.524-240.915,0
		c-14.542,8.291-19.574,26.833-11.254,41.374c8.323,14.538,26.861,19.606,41.376,11.255c55.673-31.839,124.909-31.895,180.648,0.028
		c4.77,2.723,9.95,4,15.047,4c10.515,0,20.754-5.479,26.354-15.252C291.656,58.754,286.587,40.216,272.073,31.893z"/>
</g>
<g>
</g>
<g>
</g>
<g>
</g>
<g>
</g>
<g>
</g>
<g>
</g>
<g>
</g>
<g>
</g>
<g>
</g>
<g>
</g>
<g>
</g>
<g>
</g>
<g>
</g>
<g>
</g>
<g>
</g>
</svg>
