<?xml version="1.0" encoding="iso-8859-1"?>
<!-- Generator: Adobe Illustrator 16.0.0, SVG Export Plug-In . SVG Version: 6.00 Build 0)  -->
<!DOCTYPE svg PUBLIC "-//W3C//DTD SVG 1.1//EN" "http://www.w3.org/Graphics/SVG/1.1/DTD/svg11.dtd">
<svg version="1.1" id="Capa_1" xmlns="http://www.w3.org/2000/svg" xmlns:xlink="http://www.w3.org/1999/xlink" x="0px" y="0px"
	 width="242.125px" height="242.125px" viewBox="0 0 242.125 242.125" style="enable-background:new 0 0 242.125 242.125;"
	 xml:space="preserve">
<g>
	<path d="M151.93,211.798c0,16.731-13.595,30.327-30.345,30.327c-16.748,0-30.325-13.596-30.325-30.327
		c0-16.727,13.577-30.321,30.325-30.321C138.335,181.477,151.93,195.071,151.93,211.798z M164.541,131.571
		c-26.116-14.036-59.391-14.095-85.675-0.089c-7.386,3.939-10.203,13.119-6.261,20.493c3.909,7.439,13.089,10.249,20.507,6.277
		c17.637-9.357,39.595-9.386,57.102,0.032c2.277,1.214,4.737,1.807,7.164,1.807c5.39,0,10.636-2.903,13.356-7.995
		C174.702,144.723,171.916,135.543,164.541,131.571z M193.123,78.089c-43.685-23.424-99.197-23.424-142.848-0.061
		c-7.39,3.937-10.174,13.119-6.221,20.525c3.956,7.372,13.122,10.247,20.523,6.188c34.856-18.659,79.326-18.659,114.208,0.061
		c2.282,1.241,4.742,1.804,7.169,1.804c5.391,0,10.632-2.903,13.357-7.997C203.278,91.236,200.497,82.025,193.123,78.089z
		 M221.554,24.455C159.981-8.416,81.682-8.122,20.466,25.167c-7.36,4.025-10.083,13.208-6.088,20.582
		c2.756,5.036,7.967,7.909,13.341,7.909c2.445,0,4.933-0.593,7.229-1.836c52.418-28.579,119.526-28.784,172.325-0.593
		c7.351,3.939,16.526,1.186,20.525-6.25C231.738,37.604,228.957,28.424,221.554,24.455z"/>
</g>
<g>
</g>
<g>
</g>
<g>
</g>
<g>
</g>
<g>
</g>
<g>
</g>
<g>
</g>
<g>
</g>
<g>
</g>
<g>
</g>
<g>
</g>
<g>
</g>
<g>
</g>
<g>
</g>
<g>
</g>
</svg>
