<?xml version="1.0" encoding="iso-8859-1"?>
<!-- Generator: Adobe Illustrator 16.0.0, SVG Export Plug-In . SVG Version: 6.00 Build 0)  -->
<!DOCTYPE svg PUBLIC "-//W3C//DTD SVG 1.1//EN" "http://www.w3.org/Graphics/SVG/1.1/DTD/svg11.dtd">
<svg version="1.1" id="Capa_1" xmlns="http://www.w3.org/2000/svg" xmlns:xlink="http://www.w3.org/1999/xlink" x="0px" y="0px"
	 width="507.609px" height="507.609px" viewBox="0 0 507.609 507.609" style="enable-background:new 0 0 507.609 507.609;"
	 xml:space="preserve">
<g>
	<path d="M285.797,413.805c0,17.688-14.312,32-32,32c-17.672,0-32-14.312-32-32s14.328-32,32-32
		C271.484,381.805,285.797,396.117,285.797,413.805z M180.156,352.211l24.531,20.562c24.469-29.219,73.828-29.219,98.266,0.031
		l24.562-20.5c-18.344-21.938-45.203-34.5-73.719-34.5C225.297,317.805,198.453,330.336,180.156,352.211z M135.203,306.367
		l23.719,21.5c24.219-26.75,58.797-42.062,94.875-42.062c36.062,0,70.625,15.312,94.844,42l23.688-21.5
		c-30.282-33.375-73.47-52.5-118.532-52.5C208.703,253.805,165.485,272.992,135.203,306.367z M90.094,260.898l23.375,21.844
		c36.187-38.719,87.328-60.938,140.328-60.938c53.781,0,103.594,21.625,140.281,60.875l23.375-21.875
		c-42.188-45.125-101.844-71-163.656-71C191.969,189.805,132.297,215.711,90.094,260.898z M44.875,215.523l23.219,22.031
		c48.828-51.437,114.781-79.75,185.703-79.75c70.906,0,136.812,28.281,185.625,79.625l23.188-22.031
		c-54.906-57.781-129.062-89.594-208.812-89.594C174.016,125.805,99.828,157.68,44.875,215.523z M253.797,61.805
		C157.344,61.805,67.219,100.43,0,170.493l23.094,22.188c61.125-63.751,143.062-98.876,230.703-98.876
		c87.656,0,169.594,35.125,230.688,98.844l23.125-22.156C440.391,100.398,350.266,61.805,253.797,61.805z"/>
</g>
<g>
</g>
<g>
</g>
<g>
</g>
<g>
</g>
<g>
</g>
<g>
</g>
<g>
</g>
<g>
</g>
<g>
</g>
<g>
</g>
<g>
</g>
<g>
</g>
<g>
</g>
<g>
</g>
<g>
</g>
</svg>
