<?xml version="1.0" encoding="iso-8859-1"?>
<!-- Generator: Adobe Illustrator 16.0.0, SVG Export Plug-In . SVG Version: 6.00 Build 0)  -->
<!DOCTYPE svg PUBLIC "-//W3C//DTD SVG 1.1//EN" "http://www.w3.org/Graphics/SVG/1.1/DTD/svg11.dtd">
<svg version="1.1" id="Capa_1" xmlns="http://www.w3.org/2000/svg" xmlns:xlink="http://www.w3.org/1999/xlink" x="0px" y="0px"
	 width="512px" height="512px" viewBox="0 0 512 512" style="enable-background:new 0 0 512 512;" xml:space="preserve">
<g>
	<path d="M369.125,270.781l-45.25,45.25c-37.438-37.438-98.375-37.406-135.781,0.031l-45.25-45.313
		C205.25,208.438,306.75,208.406,369.125,270.781z M74.969,202.906l45.25,45.25c74.875-74.844,196.688-74.844,271.563,0l45.25-45.25
		C337.25,103.125,174.813,103.125,74.969,202.906z M210.75,338.688l45.25,45.25l45.25-45.25
		C276.25,313.688,235.75,313.688,210.75,338.688z M512,256c0,141.375-114.625,256-256,256S0,397.375,0,256S114.625,0,256,0
		S512,114.625,512,256z M480,256c0-123.5-100.5-224-224-224S32,132.5,32,256s100.5,224,224,224S480,379.5,480,256z"/>
</g>
<g>
</g>
<g>
</g>
<g>
</g>
<g>
</g>
<g>
</g>
<g>
</g>
<g>
</g>
<g>
</g>
<g>
</g>
<g>
</g>
<g>
</g>
<g>
</g>
<g>
</g>
<g>
</g>
<g>
</g>
</svg>
