<?xml version="1.0" encoding="iso-8859-1"?>
<!-- Generator: Adobe Illustrator 16.0.0, SVG Export Plug-In . SVG Version: 6.00 Build 0)  -->
<!DOCTYPE svg PUBLIC "-//W3C//DTD SVG 1.1//EN" "http://www.w3.org/Graphics/SVG/1.1/DTD/svg11.dtd">
<svg version="1.1" id="Capa_1" xmlns="http://www.w3.org/2000/svg" xmlns:xlink="http://www.w3.org/1999/xlink" x="0px" y="0px"
	 width="484.218px" height="484.218px" viewBox="0 0 484.218 484.218" style="enable-background:new 0 0 484.218 484.218;"
	 xml:space="preserve">
<g>
	<path d="M272.345,453.891c0,16.731-13.591,30.327-30.338,30.327s-30.327-13.596-30.327-30.327
		c0-16.736,13.579-30.322,30.327-30.322S272.345,437.155,272.345,453.891z M284.965,373.664
		c-26.122-14.038-59.396-14.094-85.679-0.088c-7.388,3.938-10.202,13.119-6.261,20.493c3.909,7.435,13.089,10.249,20.507,6.276
		c17.637-9.357,39.593-9.39,57.099,0.033c2.277,1.213,4.737,1.807,7.169,1.807c5.391,0,10.632-2.903,13.353-7.995
		C295.121,386.816,292.339,377.631,284.965,373.664z M313.542,320.179c-43.684-23.424-99.194-23.424-142.845-0.061
		c-7.39,3.939-10.174,13.119-6.221,20.525c3.953,7.37,13.119,10.249,20.521,6.189c34.858-18.659,79.327-18.659,114.208,0.061
		c2.282,1.241,4.741,1.806,7.173,1.806c5.391,0,10.627-2.907,13.353-7.999C323.702,333.327,320.916,324.114,313.542,320.179z
		 M341.969,266.545c-61.563-32.873-139.871-32.574-201.084,0.709c-7.36,4.028-10.085,13.208-6.083,20.582
		c2.751,5.036,7.964,7.911,13.341,7.911c2.441,0,4.931-0.593,7.225-1.835c52.421-28.581,119.526-28.786,172.33-0.597
		c7.346,3.938,16.531,1.186,20.526-6.245C352.162,279.697,349.375,270.512,341.969,266.545z M370.671,213.151
		c-79.13-42.381-179.853-42.022-258.703,0.798c-7.36,3.969-10.086,13.208-6.088,20.554c2.756,5.063,7.967,7.937,13.346,7.937
		c2.441,0,4.926-0.593,7.222-1.834c70.039-38.114,159.581-38.412,229.891-0.711c7.374,3.908,16.582,1.183,20.521-6.222
		C380.827,226.299,378.045,217.119,370.671,213.151z M399.014,159.518c-96.664-51.707-219.672-51.235-315.952,1.066
		c-7.36,4.025-10.083,13.208-6.086,20.584c2.753,5.062,7.969,7.906,13.343,7.906c2.441,0,4.931-0.592,7.225-1.836
		c87.468-47.56,199.294-47.976,287.193-0.948c7.225,3.909,16.559,1.186,20.488-6.221
		C409.198,172.667,406.412,163.487,399.014,159.518z M427.558,106.002C313.276,44.908,167.952,45.44,54.159,107.276
		c-7.362,4.028-10.085,13.21-6.085,20.584c2.753,5.063,7.966,7.908,13.341,7.908c2.443,0,4.933-0.593,7.225-1.836
		c104.972-57.069,239.102-57.573,344.647-1.186c7.253,3.909,16.55,1.186,20.521-6.221
		C437.751,119.122,434.965,109.941,427.558,106.002z M456.261,52.548C325.331-17.491,158.863-17.521,27.982,52.487
		c-7.391,3.969-10.174,13.152-6.222,20.556c3.937,7.374,13.103,10.13,20.523,6.216c122.072-65.33,277.479-65.388,399.64,0.061
		c2.282,1.185,4.737,1.778,7.164,1.778c5.391,0,10.637-2.903,13.362-7.999C466.412,65.697,463.635,56.517,456.261,52.548z"/>
</g>
<g>
</g>
<g>
</g>
<g>
</g>
<g>
</g>
<g>
</g>
<g>
</g>
<g>
</g>
<g>
</g>
<g>
</g>
<g>
</g>
<g>
</g>
<g>
</g>
<g>
</g>
<g>
</g>
<g>
</g>
</svg>
