<?xml version="1.0" encoding="iso-8859-1"?>
<!-- Generator: Adobe Illustrator 16.0.0, SVG Export Plug-In . SVG Version: 6.00 Build 0)  -->
<!DOCTYPE svg PUBLIC "-//W3C//DTD SVG 1.1//EN" "http://www.w3.org/Graphics/SVG/1.1/DTD/svg11.dtd">
<svg version="1.1" id="Capa_1" xmlns="http://www.w3.org/2000/svg" xmlns:xlink="http://www.w3.org/1999/xlink" x="0px" y="0px"
	 width="363.17px" height="363.17px" viewBox="0 0 363.17 363.17" style="enable-background:new 0 0 363.17 363.17;"
	 xml:space="preserve">
<g>
	<path d="M212.846,332.849c0,16.727-13.595,30.321-30.338,30.321c-16.748,0-30.327-13.595-30.327-30.321
		c0-16.732,13.579-30.327,30.327-30.327C199.251,302.521,212.846,316.116,212.846,332.849z M225.466,252.621
		c-26.122-14.038-59.394-14.095-85.679-0.089c-7.39,3.939-10.202,13.119-6.263,20.488c3.909,7.439,13.091,10.254,20.509,6.282
		c17.635-9.357,39.594-9.39,57.095,0.028c2.282,1.218,4.742,1.806,7.174,1.806c5.391,0,10.627-2.897,13.353-7.994
		C235.622,265.769,232.84,256.593,225.466,252.621z M254.042,199.137c-43.684-23.424-99.194-23.424-142.845-0.065
		c-7.39,3.943-10.174,13.119-6.221,20.525c3.953,7.374,13.119,10.249,20.523,6.188c34.856-18.654,79.324-18.654,114.206,0.065
		c2.282,1.241,4.746,1.807,7.173,1.807c5.391,0,10.627-2.903,13.353-8.004C264.203,212.288,261.417,203.075,254.042,199.137z
		 M282.469,145.502c-61.563-32.875-139.867-32.576-201.083,0.711c-7.357,4.025-10.085,13.208-6.086,20.582
		c2.754,5.036,7.967,7.908,13.341,7.908c2.443,0,4.933-0.593,7.229-1.836c52.418-28.579,119.523-28.784,172.327-0.593
		c7.341,3.939,16.526,1.183,20.525-6.249C292.663,158.652,289.876,149.469,282.469,145.502z M311.172,92.106
		c-79.131-42.377-179.855-42.022-258.703,0.798c-7.362,3.969-10.086,13.212-6.086,20.556c2.753,5.066,7.967,7.934,13.341,7.934
		c2.443,0,4.931-0.59,7.225-1.834c70.041-38.114,159.581-38.413,229.891-0.712c7.369,3.909,16.582,1.186,20.521-6.221
		C321.328,105.253,318.546,96.076,311.172,92.106z M339.515,38.472c-96.669-51.707-219.672-51.235-315.952,1.066
		c-7.36,4.03-10.085,13.208-6.088,20.584c2.756,5.061,7.969,7.906,13.346,7.906c2.441,0,4.931-0.593,7.225-1.836
		c87.466-47.56,199.294-47.975,287.188-0.947c7.229,3.908,16.555,1.185,20.493-6.219C349.699,51.624,346.913,42.444,339.515,38.472z
		"/>
</g>
<g>
</g>
<g>
</g>
<g>
</g>
<g>
</g>
<g>
</g>
<g>
</g>
<g>
</g>
<g>
</g>
<g>
</g>
<g>
</g>
<g>
</g>
<g>
</g>
<g>
</g>
<g>
</g>
<g>
</g>
</svg>
